{
.appVersion = "3148";
classes = (
{
code = "alef-hb bet-hb gimel-hb dalet-hb he-hb vav-hb zayin-hb het-hb tet-hb yod-hb finalkaf-hb kaf-hb lamed-hb finalmem-hb mem-hb finalnun-hb nun-hb samekh-hb ayin-hb finalpe-hb pe-hb finaltsadi-hb tsadi-hb qof-hb resh-hb shin-hb tav-hb";
name = HebrewLetters;
},
{
automatic = 1;

glyphs = (
{
color = 6;
glyphname = A;
layers = (
{
anchors = (
{
name = bottom;
position = "{378, 0}";
},
{
name = ogonek;
position = "{700, 122}";
},
{
name = top;
position = "{378, 700}";
}
);
background = {
anchors = (
{
name = bottom;
position = "{378, 0}";
},
{
name = ogonek;
position = "{700, 122}";
},
{
name = top;
position = "{378, 700}";
}
);
paths = (
{
closed = 1;
nodes = (
"207 0 LINE SMOOTH",
"233 0 OFFCURVE",
"242 14 OFFCURVE",
"246 25 CURVE SMOOTH",
"270 91 LINE",
"485 91 LINE",
"509 25 LINE SMOOTH",
"513 14 OFFCURVE",
"522 0 OFFCURVE",
"548 0 CURVE SMOOTH",
"733 0 LINE SMOOTH",
"745 0 OFFCURVE",
"755 10 OFFCURVE",
"755 22 CURVE SMOOTH",
"755 24 OFFCURVE",
"755 26 OFFCURVE",
"754 29 CURVE SMOOTH",
"531 667 LINE",
"527 682 OFFCURVE",
"513 700 OFFCURVE",
"486 700 CURVE SMOOTH",
"269 700 LINE SMOOTH",
"242 700 OFFCURVE",
"228 682 OFFCURVE",
"224 667 CURVE",
"1 29 LINE SMOOTH",
"0 26 OFFCURVE",
"0 24 OFFCURVE",
"0 22 CURVE SMOOTH",
"0 10 OFFCURVE",
"10 0 OFFCURVE",
"22 0 CURVE SMOOTH"
);
},
{
closed = 1;
nodes = (
"377 472 LINE",
"434 286 LINE",
"321 286 LINE"
);
}
);
};
layerId = "EC64484B-0978-4CB1-9EE9-C40A2D8C4059";
paths = (
{
closed = 1;
nodes = (
"59.394 -13 LINE",
"96.787 20 LINE",
"132.213 -5 LINE",
"167.638 20 LINE",
"200.796 -6.661 LINE",
"225.36 28.079 LINE",
"268.111 36.898 LINE",
"241.5 71.5 LINE",
"285.193 67.646 LINE",
"291.852 111 LINE",
"331.689 91 LINE",
"371.525 111 LINE",
"401.402 79 LINE",
"431.279 111 LINE",
"463.148 75 LINE",
"495.016 111 LINE",
"476.392 68.673 LINE",
"520.091 53.545 LINE",
"526.136 16.236 LINE",
"563.745 20 LINE",
"591.298 -13 LINE",
"618.851 20 LINE",
"660.181 -2 LINE",
"701.511 20 LINE",
"723.572 -4.99 LINE",
"733.68 26.775 LINE",
"752.104 64.987 LINE",
"713.888 83.402 LINE",
"727.408 132.61 LINE",
"686.178 162.68 LINE",
"700.165 201.46 LINE",
"665.065 223.083 LINE",
"675.652 256.438 LINE",
"646.592 275.935 LINE",
"666.243 316.695 LINE",
"625.479 336.337 LINE",
"647.77 369.547 LINE",
"609.645 381.639 LINE",
"625.998 431.837 LINE",
"581.935 460.917 LINE",
"608.002 495.446 LINE",
"566.101 506.219 LINE",
"588.016 543.533 LINE",
"547.627 559.071 LINE",
"558.976 605.401 LINE",
"521.237 634.574 LINE",
"538.52 663.672 LINE",
"505.81 672.36 LINE",
"488.049 698.833 LINE",
"462.327 680 LINE",
"434.709 710 LINE",
"407.091 680 LINE",
"385.391 706 LINE",
"363.691 680 LINE",
"330.155 718 LINE",
"296.618 680 LINE",
"275.144 698.636 LINE",
"256.284 677.358 LINE",
"209.933 664 LINE",
"228.485 619.473 LINE",
"187.721 599.831 LINE",
"207.373 559.071 LINE",
"171.237 531.456 LINE",
"182.302 487.343 LINE",
"143.233 475.581 LINE",
"166.467 442.041 LINE",
"128.718 434.054 LINE",
"153.272 404.29 LINE",
"120.06 382.008 LINE",
"132.16 343.888 LINE",
"83.468 322.779 LINE",
"108.408 275.935 LINE",
"70.283 263.843 LINE",
"92.574 230.633 LINE",
"55.21 205.566 LINE",
"68.822 162.68 LINE",
"34.007 138.841 LINE",
"46.391 98.503 LINE",
"14.305 88.536 LINE",
"33.195 60.751 LINE"
);
},
{
closed = 1;
nodes = (
"314.725 280.397 LINE",
"305.429 303.857 LINE",
"323.339 319.104 LINE",
"316.857 341.714 LINE",
"336.644 356.394 LINE",
"328.286 379.571 LINE",
"351.356 393.26 LINE",
"339.714 417.429 LINE",
"358.563 432.392 LINE",
"351.143 455.286 LINE",
"372.717 456.402 LINE",
"373.2 478 LINE",
"382.187 461.848 LINE",
"400.643 462.857 LINE",
"392.861 439.763 LINE",
"412.25 425 LINE",
"406.81 402.624 LINE",
"423.857 387.143 LINE",
"416.543 364.192 LINE",
"435.464 349.286 LINE",
"430.493 327.054 LINE",
"447.071 311.429 LINE",
"436.947 287.616 LINE",
"458.679 273.571 LINE",
"438.538 290.804 LINE",
"429.19 266 LINE",
"409.31 284.13 LINE",
"389.429 266 LINE",
"369.548 291.2 LINE",
"349.667 266 LINE",
"329.786 284.62 LINE",
"309.905 266 LINE"
);
},
{
closed = 1;
nodes = (
"709.301 69.653 LINE",
"689 43.947 LINE",
"659.933 42.935 LINE",
"648.767 76.016 LINE",
"681.136 92.836 LINE"
);
},
{
closed = 1;
nodes = (
"455.778 478.951 LINE",
"426.573 482.615 LINE",
"419.748 509.991 LINE",
"443.883 527.934 LINE",
"460.436 505.597 LINE"
);
},
{
closed = 1;
nodes = (
"322.458 135.859 LINE",
"315.71 122.052 LINE",
"301.612 122.544 LINE",
"295.844 136.788 LINE",
"309.314 140.995 LINE"
);
},
{
closed = 1;
nodes = (
"595.396 146.936 LINE",
"546.279 113.114 LINE",
"483.66 136.025 LINE",
"517.931 189.876 LINE",
"565.787 196.466 LINE"
);
},
{
closed = 1;
nodes = (
"252.34 418.041 LINE",
"227.639 401.036 LINE",
"209.681 421.824 LINE",
"220.286 440.419 LINE",
"244.733 446.429 LINE"
);
},
{
closed = 1;
nodes = (
"608 312 LINE",
"568.816 278.713 LINE",
"528.066 290.252 LINE",
"519.976 339.626 LINE",
"576.85 370.014 LINE"
);
},
{
closed = 1;
nodes = (
"159.843 122.559 LINE",
"145.762 105.499 LINE",
"127.298 109.088 LINE",
"118.009 131.635 LINE",
"143.007 140.614 LINE"
);
},
{
closed = 1;
nodes = (
"256.016 187.428 LINE",
"217.904 175.278 LINE",
"202.015 206.128 LINE",
"218.449 230.492 LINE",
"247.488 223.007 LINE"
);
},
{
closed = 1;
nodes = (
"386.939 569.256 LINE",
"369.016 542.861 LINE",
"339.951 557.222 LINE",
"340.551 588.998 LINE",
"370.991 593.252 LINE"
);
},
{
closed = 1;
nodes = (
"605.344 229.042 LINE",
"598.269 226.045 LINE",
"589.184 230.092 LINE",
"595.606 238.122 LINE",
"605.82 239.314 LINE"
);
},
{
closed = 1;
nodes = (
"164.455 306.744 LINE",
"154.808 299.002 LINE",
"145.437 307.076 LINE",
"148.691 319.011 LINE",
"161.018 317.986 LINE"
);
},
{
closed = 1;
nodes = (
"221.969 116.351 LINE",
"210.659 110.082 LINE",
"203.165 119.283 LINE",
"208.606 127.122 LINE",
"219.502 129.045 LINE"
);
},
{
closed = 1;
nodes = (
"492.998 637.209 LINE",
"484.907 625.654 LINE",
"473.812 631.584 LINE",
"470.351 644.456 LINE",
"483.339 644.65 LINE"
);
},
{
closed = 1;
nodes = (
"435.32 170.784 LINE",
"409.324 158.793 LINE",
"399.027 185.047 LINE",
"412.012 210.08 LINE",
"434.935 194.348 LINE"
);
},
{
closed = 1;
nodes = (
"337.167 439.328 LINE",
"314.457 445.414 LINE",
"316.581 466.714 LINE",
"332.588 467.659 LINE",
"339.986 458.523 LINE"
);
},
{
closed = 1;
nodes = (
"519.942 531.731 LINE",
"504.343 532.56 LINE",
"499.227 552.893 LINE",
"520.141 557.455 LINE",
"528.982 542.68 LINE"
);
}
);
width = 755;
},
{
anchors = (
{
name = bottom;
position = "{378, 0}";
},
{
name = ogonek;
position = "{700, 122}";
},
{
name = top;
position = "{378, 700}";
}
);
associatedMasterId = "EC64484B-0978-4CB1-9EE9-C40A2D8C4059";
background = {
anchors = (
{
name = bottom;
position = "{378, 0}";
},
{
name = ogonek;
position = "{700, 122}";
},
{
name = top;
position = "{378, 700}";
}
);
paths = (
{
closed = 1;
nodes = (
"207 0 LINE SMOOTH",
"233 0 OFFCURVE",
"242 14 OFFCURVE",
"246 25 CURVE SMOOTH",
"270 91 LINE",
"485 91 LINE",
"509 25 LINE SMOOTH",
"513 14 OFFCURVE",
"522 0 OFFCURVE",
"548 0 CURVE SMOOTH",
"733 0 LINE SMOOTH",
"745 0 OFFCURVE",
"755 10 OFFCURVE",
"755 22 CURVE SMOOTH",
"755 24 OFFCURVE",
"755 26 OFFCURVE",
"754 29 CURVE SMOOTH",
"531 667 LINE",
"527 682 OFFCURVE",
"513 700 OFFCURVE",
"486 700 CURVE SMOOTH",
"269 700 LINE SMOOTH",
"242 700 OFFCURVE",
"228 682 OFFCURVE",
"224 667 CURVE",
"1 29 LINE SMOOTH",
"0 26 OFFCURVE",
"0 24 OFFCURVE",
"0 22 CURVE SMOOTH",
"0 10 OFFCURVE",
"10 0 OFFCURVE",
"22 0 CURVE SMOOTH"
);
},
{
closed = 1;
nodes = (
"377 472 LINE",
"434 286 LINE",
"321 286 LINE"
);
}
);
};
color = 6;
layerId = "B4744709-28CD-4AA0-AF61-D9F28879ED7D";
name = "Jul 23 21, 16:38";
paths = (
{
closed = 1;
nodes = (
"207 0 LINE SMOOTH",
"233 0 OFFCURVE",
"242 14 OFFCURVE",
"246 25 CURVE SMOOTH",
"270 91 LINE",
"485 91 LINE",
"509 25 LINE SMOOTH",
"513 14 OFFCURVE",
"522 0 OFFCURVE",
"548 0 CURVE SMOOTH",
"733 0 LINE SMOOTH",
"745 0 OFFCURVE",
"755 10 OFFCURVE",
"755 22 CURVE SMOOTH",
"755 24 OFFCURVE",
"755 26 OFFCURVE",
"754 29 CURVE SMOOTH",
"531 667 LINE",
"527 682 OFFCURVE",
"513 700 OFFCURVE",
"486 700 CURVE SMOOTH",
"269 700 LINE SMOOTH",
"242 700 OFFCURVE",
"228 682 OFFCURVE",
"224 667 CURVE",
"1 29 LINE SMOOTH",
"0 26 OFFCURVE",
"0 24 OFFCURVE",
"0 22 CURVE SMOOTH",
"0 10 OFFCURVE",
"10 0 OFFCURVE",
"22 0 CURVE SMOOTH"
);
},
{
closed = 1;
nodes = (
"377 472 LINE",
"434 286 LINE",
"321 286 LINE"
);
}
);
width = 755;
}
);
leftKerningGroup = A;
rightKerningGroup = A;
unicode = 0041;
userData = {
com.typemytype.robofont.guides = (
{
angle = 0;
isGlobal = 0;
magnetic = 5;
x = 0;
y = 680;
},
{
angle = 90;
isGlobal = 0;
magnetic = 5;
x = 35;
y = 0;
},
{
angle = 90;
isGlobal = 0;
magnetic = 5;
x = 637;
y = 0;
},
{
angle = 90;
isGlobal = 0;
magnetic = 5;
x = 336;
y = 0;
}
);
};
},
{
color = 6;
glyphname = Aogonek;
layers = (
{
background = {
paths = (
{
closed = 1;
nodes = (
"718 -220 LINE SMOOTH",
"733 -220 OFFCURVE",
"745 -208 OFFCURVE",
"745 -193 CURVE SMOOTH",
"745 -125 LINE SMOOTH",
"745 -110 OFFCURVE",
"733 -98 OFFCURVE",
"718 -98 CURVE SMOOTH",
"708 -98 LINE SMOOTH",
"669 -98 OFFCURVE",
"658 -70 OFFCURVE",
"658 -49 CURVE SMOOTH",
"658 -29 OFFCURVE",
"668 -2 OFFCURVE",
"702 0 CURVE",
"733 0 LINE SMOOTH",
"745 0 OFFCURVE",
"755 10 OFFCURVE",
"755 22 CURVE SMOOTH",
"755 24 OFFCURVE",
"755 26 OFFCURVE",
"754 29 CURVE SMOOTH",
"531 667 LINE",
"527 682 OFFCURVE",
"513 700 OFFCURVE",
"486 700 CURVE SMOOTH",
"269 700 LINE SMOOTH",
"242 700 OFFCURVE",
"228 682 OFFCURVE",
"224 667 CURVE",
"1 29 LINE SMOOTH",
"0 26 OFFCURVE",
"0 24 OFFCURVE",
"0 22 CURVE SMOOTH",
"0 10 OFFCURVE",
"10 0 OFFCURVE",
"22 0 CURVE SMOOTH",
"207 0 LINE SMOOTH",
"233 0 OFFCURVE",
"242 14 OFFCURVE",
"246 25 CURVE SMOOTH",
"270 91 LINE",
"485 91 LINE",
"509 25 LINE SMOOTH",
"512 15 OFFCURVE",
"519 3 OFFCURVE",
"537 0 CURVE",
"534 -15 OFFCURVE",
"532 -31 OFFCURVE",
"532 -49 CURVE SMOOTH",
"532 -144 OFFCURVE",
"583 -220 OFFCURVE",
"704 -220 CURVE SMOOTH"
);
},
{
closed = 1;
nodes = (
"377 472 LINE",
"434 286 LINE",
"321 286 LINE"
);
}
);
};
hints = (
{
horizontal = 1;
place = "{0, 0}";
type = Tag;
}
);
layerId = "EC64484B-0978-4CB1-9EE9-C40A2D8C4059";
paths = (
{
closed = 1;
nodes = (
"729.195 -171.106 LINE",
"725 -133 LINE",
"719.934 -89.083 LINE",
"683.771 -114.512 LINE",
"676.714 -79.576 LINE",
"641.647 -73.197 LINE",
"681.19 -47.134 LINE",
"644.854 -16.759 LINE",
"691.551 -26.825 LINE",
"701 20 LINE",
"730.52 20.29 LINE",
"725.763 49.426 LINE",
"739.558 79.666 LINE",
"709.929 94.728 LINE",
"726.749 134.498 LINE",
"688.817 155.13 LINE",
"717.715 190.649 LINE",
"672.982 200.432 LINE",
"691.497 232.322 LINE",
"657.148 245.734 LINE",
"671.704 288.949 LINE",
"633.396 313.686 LINE",
"642.004 352.704 LINE",
"610.964 377.864 LINE",
"619.197 420.987 LINE",
"585.893 449.592 LINE",
"609.23 497.994 LINE",
"560.822 521.32 LINE",
"589.437 554.621 LINE",
"546.308 562.846 LINE",
"571.715 599.263 LINE",
"529.154 611.923 LINE",
"538.394 662.216 LINE",
"490.352 679.726 LINE",
"462.663 706.863 LINE",
"434.709 680 LINE",
"409.064 703 LINE",
"383.418 680 LINE",
"355.8 706 LINE",
"328.182 680 LINE",
"308.455 714 LINE",
"288.727 680 LINE",
"246.968 682.609 LINE",
"236.402 642.124 LINE",
"204.043 613.189 LINE",
"211.331 570.396 LINE",
"174.526 562.079 LINE",
"198.136 532.645 LINE",
"168.883 521.688 LINE",
"184.941 494.893 LINE",
"142.664 480.016 LINE",
"166.467 442.041 LINE",
"140.99 429.765 LINE",
"153.272 404.29 LINE",
"120.151 388.33 LINE",
"136.118 355.213 LINE",
"90.259 333.115 LINE",
"112.367 287.26 LINE",
"70.192 257.52 LINE",
"84.657 207.982 LINE",
"50.308 194.57 LINE",
"68.822 162.68 LINE",
"25.511 141.81 LINE",
"46.391 98.503 LINE",
"9.869 87.968 LINE",
"31.876 56.976 LINE",
"27.574 29.657 LINE",
"53.489 20 LINE",
"77.106 -15 LINE",
"100.723 20 LINE",
"134.181 0 LINE",
"167.638 20 LINE",
"197.937 -9.576 LINE",
"222.899 24.625 LINE",
"265.902 32.546 LINE",
"240.182 67.909 LINE",
"284.043 74.22 LINE",
"254.682 107.409 LINE",
"286.685 84.248 LINE",
"315.754 111 LINE",
"353.598 75 LINE",
"391.443 111 LINE",
"433.27 82 LINE",
"475.098 111 LINE",
"474.752 67.637 LINE",
"517.455 60.091 LINE",
"516.843 14.649 LINE",
"556.216 -8.047 LINE",
"525.271 -30.114 LINE",
"552.126 -57.009 LINE",
"525.984 -92.147 LINE",
"562.813 -115.847 LINE",
"559.712 -159.465 LINE",
"602.059 -170.366 LINE",
"611.895 -214.794 LINE",
"652.414 -194.087 LINE"
);
},
{
closed = 1;
nodes = (
"313.318 280.822 LINE",
"305.429 303.857 LINE",
"322.87 319.245 LINE",
"316.857 341.714 LINE",
"336.644 356.394 LINE",
"328.286 379.571 LINE",
"349.011 393.968 LINE",
"339.714 417.429 LINE",
"361.847 431.401 LINE",
"351.143 455.286 LINE",
"370.608 458.45 LINE",
"373.2 478 LINE",
"379.583 457.129 LINE",
"400.643 462.857 LINE",
"391.924 439.476 LINE",
"412.25 425 LINE",
"403.062 401.475 LINE",
"423.857 387.143 LINE",
"419.823 365.198 LINE",
"435.464 349.286 LINE",
"428.619 326.479 LINE",
"447.071 311.429 LINE",
"435.541 287.185 LINE",
"458.679 273.571 LINE",
"439.931 285.38 LINE",
"429.19 266 LINE",
"409.31 283.64 LINE",
"389.429 266 LINE",
"369.548 287 LINE",
"349.667 266 LINE",
"329.786 284.62 LINE",
"309.905 266 LINE"
);
},
{
closed = 1;
nodes = (
"497.562 569.505 LINE",
"441.871 528.037 LINE",
"402.666 577.148 LINE",
"408.771 641.229 LINE",
"480.94 636.281 LINE"
);
},
{
closed = 1;
nodes = (
"585.519 262.784 LINE",
"575.262 251.002 LINE",
"561.763 261.442 LINE",
"568.38 274.785 LINE",
"580.736 274.192 LINE"
);
},
{
closed = 1;
nodes = (
"597.18 333.802 LINE",
"568.005 318.088 LINE",
"541.146 330.45 LINE",
"541.07 369.679 LINE",
"584.541 371.858 LINE"
);
},
{
closed = 1;
nodes = (
"142.541 174.816 LINE",
"115.421 177.272 LINE",
"112.349 206.5 LINE",
"138.574 215.519 LINE",
"159.858 196.718 LINE"
);
},
{
closed = 1;
nodes = (
"261.5 239.297 LINE",
"203.205 241.356 LINE",
"200.545 296.676 LINE",
"243.122 328.732 LINE",
"277.126 288.316 LINE"
);
},
{
closed = 1;
nodes = (
"352.493 487.558 LINE",
"329.184 480.222 LINE",
"317.185 495.653 LINE",
"322.012 517.602 LINE",
"342.607 508.607 LINE"
);
},
{
closed = 1;
nodes = (
"595.829 181.803 LINE",
"591.173 140.029 LINE",
"553.253 160.586 LINE",
"545.887 194.029 LINE",
"581.014 220.228 LINE"
);
},
{
closed = 1;
nodes = (
"468.883 402.67 LINE",
"467.521 379.429 LINE",
"444.052 388.496 LINE",
"446.405 406.634 LINE",
"459.084 412.818 LINE"
);
},
{
closed = 1;
nodes = (
"490.448 470.308 LINE",
"477.929 473.929 LINE",
"476.981 485.086 LINE",
"486.877 492.852 LINE",
"493.889 482.408 LINE"
);
},
{
closed = 1;
nodes = (
"282.983 167.634 LINE",
"254.917 164.328 LINE",
"242.224 188.201 LINE",
"261.18 206.666 LINE",
"277.361 191.573 LINE"
);
}
);
width = 755;
},
{
associatedMasterId = "EC64484B-0978-4CB1-9EE9-C40A2D8C4059";
background = {
paths = (
{
closed = 1;
nodes = (
"718 -220 LINE SMOOTH",
"733 -220 OFFCURVE",
"745 -208 OFFCURVE",
"745 -193 CURVE SMOOTH",
"745 -125 LINE SMOOTH",
"745 -110 OFFCURVE",
"733 -98 OFFCURVE",
"718 -98 CURVE SMOOTH",
"708 -98 LINE SMOOTH",
"669 -98 OFFCURVE",
"658 -70 OFFCURVE",
"658 -49 CURVE SMOOTH",
"658 -29 OFFCURVE",
"668 -2 OFFCURVE",
"702 0 CURVE",
"733 0 LINE SMOOTH",
"745 0 OFFCURVE",
"755 10 OFFCURVE",
"755 22 CURVE SMOOTH",
"755 24 OFFCURVE",
"755 26 OFFCURVE",
"754 29 CURVE SMOOTH",
"531 667 LINE",
"527 682 OFFCURVE",
"513 700 OFFCURVE",
"486 700 CURVE SMOOTH",
"269 700 LINE SMOOTH",
"242 700 OFFCURVE",
"228 682 OFFCURVE",
"224 667 CURVE",
"1 29 LINE SMOOTH",
"0 26 OFFCURVE",
"0 24 OFFCURVE",
"0 22 CURVE SMOOTH",
"0 10 OFFCURVE",
"10 0 OFFCURVE",
"22 0 CURVE SMOOTH",
"207 0 LINE SMOOTH",
"233 0 OFFCURVE",
"242 14 OFFCURVE",
"246 25 CURVE SMOOTH",
"270 91 LINE",
"485 91 LINE",
"509 25 LINE SMOOTH",
"512 15 OFFCURVE",
"519 3 OFFCURVE",
"537 0 CURVE",
"534 -15 OFFCURVE",
"532 -31 OFFCURVE",
"532 -49 CURVE SMOOTH",
"532 -144 OFFCURVE",
"583 -220 OFFCURVE",
"704 -220 CURVE SMOOTH"
);
},
{
closed = 1;
nodes = (
"377 472 LINE",
"434 286 LINE",
"321 286 LINE"
);
}
);
};
color = 6;
hints = (
{
horizontal = 1;
place = "{0, 0}";
type = Tag;
}
);
layerId = "425CB149-7B94-4701-9B95-683FB97AFC3F";
name = "Jul 23 21, 16:38";
paths = (
{
closed = 1;
nodes = (
"718 -220 LINE SMOOTH",
"733 -220 OFFCURVE",
"745 -208 OFFCURVE",
"745 -193 CURVE SMOOTH",
"745 -125 LINE SMOOTH",
"745 -110 OFFCURVE",
"733 -98 OFFCURVE",
"718 -98 CURVE SMOOTH",
"708 -98 LINE SMOOTH",
"669 -98 OFFCURVE",
"658 -70 OFFCURVE",
"658 -49 CURVE SMOOTH",
"658 -29 OFFCURVE",
"668 -2 OFFCURVE",
"702 0 CURVE",
"733 0 LINE SMOOTH",
"745 0 OFFCURVE",
"755 10 OFFCURVE",
"755 22 CURVE SMOOTH",
"755 24 OFFCURVE",
"755 26 OFFCURVE",
"754 29 CURVE SMOOTH",
"531 667 LINE",
"527 682 OFFCURVE",
"513 700 OFFCURVE",
"486 700 CURVE SMOOTH",
"269 700 LINE SMOOTH",
"242 700 OFFCURVE",
"228 682 OFFCURVE",
"224 667 CURVE",
"1 29 LINE SMOOTH",
"0 26 OFFCURVE",
"0 24 OFFCURVE",
"0 22 CURVE SMOOTH",
"0 10 OFFCURVE",
"10 0 OFFCURVE",
"22 0 CURVE SMOOTH",
"207 0 LINE SMOOTH",
"233 0 OFFCURVE",
"242 14 OFFCURVE",
"246 25 CURVE SMOOTH",
"270 91 LINE",
"485 91 LINE",
"509 25 LINE SMOOTH",
"512 15 OFFCURVE",
"519 3 OFFCURVE",
"537 0 CURVE",
"534 -15 OFFCURVE",
"532 -31 OFFCURVE",
"532 -49 CURVE SMOOTH",
"532 -144 OFFCURVE",
"583 -220 OFFCURVE",
"704 -220 CURVE SMOOTH"
);
},
{
closed = 1;
nodes = (
"377 472 LINE",
"434 286 LINE",
"321 286 LINE"
);
}
);
width = 755;
}
);
leftKerningGroup = A;
rightKerningGroup = A;
unicode = 0104;
},
{
color = 6;
glyphname = AE;
layers = (
{
anchors = (
{
name = bottom;
position = "{503, 0}";
},
{
name = top;
position = "{503, 700}";
}
);
background = {
anchors = (
{
name = bottom;
position = "{503, 0}";
},
{
name = top;
position = "{503, 700}";
}
);
paths = (
{
closed = 1;
nodes = (
"211 0 LINE SMOOTH",
"237 0 OFFCURVE",
"246 14 OFFCURVE",
"250 25 CURVE SMOOTH",
"258 47 OFFCURVE",
"266 69 OFFCURVE",
"274 91 CURVE",
"423 91 LINE",
"423 27 LINE SMOOTH",
"423 12 OFFCURVE",
"435 0 OFFCURVE",
"450 0 CURVE SMOOTH",
"941 0 LINE SMOOTH",
"956 0 OFFCURVE",
"968 12 OFFCURVE",
"968 27 CURVE SMOOTH",
"968 168 LINE SMOOTH",
"968 183 OFFCURVE",
"956 195 OFFCURVE",
"941 195 CURVE SMOOTH",
"663 195 LINE",
"663 258 LINE",
"911 258 LINE SMOOTH",
"926 258 OFFCURVE",
"938 270 OFFCURVE",
"938 285 CURVE SMOOTH",
"938 415 LINE SMOOTH",
"938 430 OFFCURVE",
"926 442 OFFCURVE",
"911 442 CURVE SMOOTH",
"663 442 LINE",
"663 505 LINE",
"933 505 LINE SMOOTH",
"948 505 OFFCURVE",
"960 517 OFFCURVE",
"960 532 CURVE SMOOTH",
"960 673 LINE SMOOTH",
"960 688 OFFCURVE",
"948 700 OFFCURVE",
"933 700 CURVE SMOOTH",
"273 700 LINE SMOOTH",
"246 700 OFFCURVE",
"232 682 OFFCURVE",
"228 667 CURVE",
"154 454 OFFCURVE",
"79 242 OFFCURVE",
"5 29 CURVE SMOOTH",
"4 26 OFFCURVE",
"4 24 OFFCURVE",
"4 22 CURVE SMOOTH",
"4 10 OFFCURVE",
"14 0 OFFCURVE",
"26 0 CURVE SMOOTH"
);
},
{
closed = 1;
nodes = (
"391 505 LINE",
"423 505 LINE",
"423 286 LINE",
"325 286 LINE"
);
}
);
};
layerId = "EC64484B-0978-4CB1-9EE9-C40A2D8C4059";
paths = (
{
closed = 1;
nodes = (
"59.457 -12 LINE",
"92.915 20 LINE",
"120.468 -15 LINE",
"148.021 20 LINE",
"179.511 -2 LINE",
"211 20 LINE",
"245.552 16.858 LINE",
"238.091 50.741 LINE",
"277.499 68.386 LINE",
"258.643 107.229 LINE",
"290.947 80.17 LINE",
"319.674 111 LINE",
"353.489 75 LINE",
"387.304 111 LINE",
"406.317 72.244 LINE",
"443 95 LINE",
"430.879 53.582 LINE",
"457.984 20 LINE",
"499.898 -14 LINE",
"541.813 20 LINE",
"575.744 -18 LINE",
"609.675 20 LINE",
"631.63 -16 LINE",
"653.585 20 LINE",
"685.52 -16 LINE",
"717.455 20 LINE",
"755.378 -10 LINE",
"793.301 20 LINE",
"821.244 -18 LINE",
"849.187 20 LINE",
"879.126 -13 LINE",
"909.065 20 LINE",
"938.394 14.395 LINE",
"948 42.667 LINE",
"981 74 LINE",
"948 105.333 LINE",
"980.051 146.079 LINE",
"937.027 175 LINE",
"897.293 196 LINE",
"857.56 175 LINE",
"817.827 192.5 LINE",
"778.093 175 LINE",
"756.24 200.9 LINE",
"734.387 175 LINE",
"696.64 191.8 LINE",
"658.893 175 LINE",
"668.986 198.946 LINE",
"643 198.769 LINE",
"675 234.423 LINE",
"643 270.077 LINE",
"683.613 248.974 LINE",
"719 278 LINE",
"761 261.9 LINE",
"803 278 LINE",
"825 257 LINE",
"847 278 LINE",
"869 263.3 LINE",
"891 278 LINE",
"922.477 301.266 LINE",
"918 340.152 LINE",
"950 363.788 LINE",
"918 387.424 LINE",
"927.518 415.163 LINE",
"899 422 LINE",
"871 444.4 LINE",
"843 422 LINE",
"805 448.6 LINE",
"767 422 LINE",
"747 439.5 LINE",
"727 422 LINE",
"701 440.2 LINE",
"675 422 LINE",
"674.587 453.851 LINE",
"643 449.731 LINE",
"665.957 486.259 LINE",
"646.973 525 LINE",
"674.781 499.8 LINE",
"702.589 525 LINE",
"738.342 509.6 LINE",
"774.096 525 LINE",
"809.849 510.3 LINE",
"845.603 525 LINE",
"883.342 509.6 LINE",
"921.082 525 LINE",
"945.874 539.259 LINE",
"940 567.25 LINE",
"979 600.542 LINE",
"940 633.833 LINE",
"936.94 674.092 LINE",
"897 680 LINE",
"863 712 LINE",
"829 680 LINE",
"789 709 LINE",
"749 680 LINE",
"729 711 LINE",
"709 680 LINE",
"675 717 LINE",
"641 680 LINE",
"607 703 LINE",
"573 680 LINE",
"549 708 LINE",
"525 680 LINE",
"483 703 LINE",
"441 680 LINE",
"415 718 LINE",
"389 680 LINE",
"359 700 LINE",
"329 680 LINE",
"293.183 716.651 LINE",
"260.284 677.358 LINE",
"225.098 668.345 LINE",
"237.76 634.301 LINE",
"202.793 603.717 LINE",
"211.281 558.045 LINE",
"169.929 527.598 LINE",
"183.332 478.027 LINE",
"140.003 463.303 LINE",
"164.604 424.715 LINE",
"129.064 405.162 LINE",
"144.443 367.628 LINE",
"103.792 360.618 LINE",
"131.036 329.643 LINE",
"92.613 298.461 LINE",
"103.286 250.143 LINE",
"69.488 232.211 LINE",
"84.786 197.143 LINE",
"49.289 171.31 LINE",
"61 129 LINE",
"27.675 100.286 LINE",
"35.893 57.071 LINE"
);
},
{
closed = 1;
nodes = (
"321.564 279.675 LINE",
"309.471 304.088 LINE",
"327.874 319.317 LINE",
"320.941 342.176 LINE",
"341.221 356.84 LINE",
"332.412 380.265 LINE",
"353.63 394.646 LINE",
"343.882 418.353 LINE",
"366.977 432.169 LINE",
"355.353 456.441 LINE",
"378.448 470.257 LINE",
"366.824 494.529 LINE",
"387.325 503.062 LINE",
"383.882 525 LINE",
"403.588 506.8 LINE",
"423.294 525 LINE",
"421.302 503.323 LINE",
"443 505.077 LINE",
"428.3 485.154 LINE",
"443 465.231 LINE",
"428.3 445.308 LINE",
"443 425.385 LINE",
"426.83 405.462 LINE",
"443 385.538 LINE",
"424.38 365.615 LINE",
"443 345.692 LINE",
"433.2 325.769 LINE",
"443 305.846 LINE",
"428.79 285.923 LINE",
"443 266 LINE",
"423.405 289.1 LINE",
"403.811 266 LINE",
"384.216 283.5 LINE",
"364.622 266 LINE",
"345.027 277.27 LINE",
"325.432 266 LINE"
);
},
{
closed = 1;
nodes = (
"606.994 529.243 LINE",
"589.947 521.294 LINE",
"574.142 534.684 LINE",
"583.28 557.845 LINE",
"605.433 548.594 LINE"
);
},
{
closed = 1;
nodes = (
"603.657 365.787 LINE",
"570.761 366.936 LINE",
"560.749 398.919 LINE",
"588.663 407.988 LINE",
"617.799 397.545 LINE"
);
},
{
closed = 1;
nodes = (
"109.703 138.899 LINE",
"93.178 118.148 LINE",
"82.306 142.089 LINE",
"88.5 157.99 LINE",
"110.052 160.606 LINE"
);
},
{
closed = 1;
nodes = (
"646.878 142.611 LINE",
"640.531 133.107 LINE",
"630.911 140.055 LINE",
"631.359 151.913 LINE",
"644.634 154.595 LINE"
);
},
{
closed = 1;
nodes = (
"630.299 75.52 LINE",
"616 73.275 LINE",
"617.583 86.997 LINE",
"625.558 91.981 LINE",
"637.614 87.145 LINE"
);
},
{
closed = 1;
nodes = (
"737.618 119.151 LINE",
"711.537 95.357 LINE",
"681.161 110.834 LINE",
"679.423 151.577 LINE",
"724.252 157.858 LINE"
);
},
{
closed = 1;
nodes = (
"323.263 405.737 LINE",
"299.282 406.853 LINE",
"284.283 425.598 LINE",
"304.497 437.803 LINE",
"324.82 431.08 LINE"
);
},
{
closed = 1;
nodes = (
"495.054 583.626 LINE",
"440.214 576.893 LINE",
"424.717 625.442 LINE",
"456.297 672.59 LINE",
"496.533 633.637 LINE"
);
},
{
closed = 1;
nodes = (
"239.151 327.881 LINE",
"226.228 328.332 LINE",
"222.663 340.762 LINE",
"233.419 348.993 LINE",
"244.535 340.308 LINE"
);
},
{
closed = 1;
nodes = (
"845.092 352.908 LINE",
"814.196 348.834 LINE",
"808.222 374.816 LINE",
"821.776 398.668 LINE",
"851.839 385.166 LINE"
);
},
{
closed = 1;
nodes = (
"543.035 322.528 LINE",
"527.128 303.015 LINE",
"503.968 321.109 LINE",
"516.257 345.41 LINE",
"536.004 338.244 LINE"
);
},
{
closed = 1;
nodes = (
"795.725 45.224 LINE",
"763.729 51.366 LINE",
"756.448 91.924 LINE",
"794.798 89.923 LINE",
"820 69 LINE"
);
},
{
closed = 1;
nodes = (
"285.206 550.125 LINE",
"258.736 552.328 LINE",
"248.629 583.554 LINE",
"282.425 605.438 LINE",
"304.718 573.036 LINE"
);
},
{
closed = 1;
nodes = (
"503.115 468.491 LINE",
"487.305 471.171 LINE",
"479.197 482.257 LINE",
"490.469 490.893 LINE",
"499.19 483.507 LINE"
);
},
{
closed = 1;
nodes = (
"428 200.412 LINE",
"404.279 199.651 LINE",
"399.816 224.541 LINE",
"421.195 236.885 LINE",
"435.629 219.534 LINE"
);
},
{
closed = 1;
nodes = (
"764.615 569.278 LINE",
"735.083 559.084 LINE",
"710.692 574.926 LINE",
"722.579 605 LINE",
"753.401 599.868 LINE"
);
},
{
closed = 1;
nodes = (
"486.126 30.636 LINE",
"476.208 32.095 LINE",
"475.285 42.635 LINE",
"485.474 48.718 LINE",
"492.962 38.872 LINE"
);
},
{
closed = 1;
nodes = (
"923.956 45.836 LINE",
"919.661 36.778 LINE",
"910.798 40.316 LINE",
"909.938 48.5 LINE",
"917.04 49.891 LINE"
);
},
{
closed = 1;
nodes = (
"206.761 439.481 LINE",
"200.787 424.755 LINE",
"181.724 423.836 LINE",
"178.593 444.185 LINE",
"196.316 455.858 LINE"
);
},
{
closed = 1;
nodes = (
"210.877 240.993 LINE",
"194.743 215.59 LINE",
"163.914 208.572 LINE",
"153.87 243.603 LINE",
"183.872 257.985 LINE"
);
},
{
closed = 1;
nodes = (
"548.767 432.024 LINE",
"529.21 439.58 LINE",
"523.224 458.92 LINE",
"543.126 467.727 LINE",
"566.737 453.758 LINE"
);
},
{
closed = 1;
nodes = (
"178.835 154.717 LINE",
"172.424 148.627 LINE",
"164.544 147.149 LINE",
"161.843 156.804 LINE",
"170.853 159.948 LINE"
);
},
{
closed = 1;
nodes = (
"349.951 653.395 LINE",
"338.241 631.602 LINE",
"313.147 637.859 LINE",
"318.127 659.419 LINE",
"333.629 666.554 LINE"
);
},
{
closed = 1;
nodes = (
"617.902 607.749 LINE",
"611.408 600.111 LINE",
"601.981 604.914 LINE",
"601.515 617.485 LINE",
"615.448 619.692 LINE"
);
},
{
closed = 1;
nodes = (
"477.361 335.427 LINE",
"463.264 332.152 LINE",
"457.078 340.887 LINE",
"458.863 354.583 LINE",
"471.474 348.252 LINE"
);
},
{
closed = 1;
nodes = (
"727.951 328.017 LINE",
"718.192 302.16 LINE",
"685.742 295.444 LINE",
"679.471 329.79 LINE",
"705.506 349.996 LINE"
);
}
);
width = 1005;
},
{
anchors = (
{
name = bottom;
position = "{503, 0}";
},
{
name = top;
position = "{503, 700}";
}
);
associatedMasterId = "EC64484B-0978-4CB1-9EE9-C40A2D8C4059";
background = {
anchors = (
{
name = bottom;
position = "{503, 0}";
},
{
name = top;
position = "{503, 700}";
}
);
paths = (
{
closed = 1;
nodes = (
"211 0 LINE SMOOTH",
"237 0 OFFCURVE",
"246 14 OFFCURVE",
"250 25 CURVE SMOOTH",
"258 47 OFFCURVE",
"266 69 OFFCURVE",
"274 91 CURVE",
"423 91 LINE",
"423 27 LINE SMOOTH",
"423 12 OFFCURVE",
"435 0 OFFCURVE",
"450 0 CURVE SMOOTH",
"941 0 LINE SMOOTH",
"956 0 OFFCURVE",
"968 12 OFFCURVE",
"968 27 CURVE SMOOTH",
"968 168 LINE SMOOTH",
"968 183 OFFCURVE",
"956 195 OFFCURVE",
"941 195 CURVE SMOOTH",
"663 195 LINE",
"663 258 LINE",
"911 258 LINE SMOOTH",
"926 258 OFFCURVE",
"938 270 OFFCURVE",
"938 285 CURVE SMOOTH",
"938 415 LINE SMOOTH",
"938 430 OFFCURVE",
"926 442 OFFCURVE",
"911 442 CURVE SMOOTH",
"663 442 LINE",
"663 505 LINE",
"933 505 LINE SMOOTH",
"948 505 OFFCURVE",
"960 517 OFFCURVE",
"960 532 CURVE SMOOTH",
"960 673 LINE SMOOTH",
"960 688 OFFCURVE",
"948 700 OFFCURVE",
"933 700 CURVE SMOOTH",
"273 700 LINE SMOOTH",
"246 700 OFFCURVE",
"232 682 OFFCURVE",
"228 667 CURVE",
"154 454 OFFCURVE",
"79 242 OFFCURVE",
"5 29 CURVE SMOOTH",
"4 26 OFFCURVE",
"4 24 OFFCURVE",
"4 22 CURVE SMOOTH",
"4 10 OFFCURVE",
"14 0 OFFCURVE",
"26 0 CURVE SMOOTH"
);
},
{
closed = 1;
nodes = (
"391 505 LINE",
"423 505 LINE",
"423 286 LINE",
"325 286 LINE"
);
}
);
};
color = 6;
layerId = "0650BB00-F5D1-40A5-89C4-C1A75A24D72B";
name = "Jul 23 21, 16:38";
paths = (
{
closed = 1;
nodes = (
"211 0 LINE SMOOTH",
"237 0 OFFCURVE",
"246 14 OFFCURVE",
"250 25 CURVE SMOOTH",
"258 47 OFFCURVE",
"266 69 OFFCURVE",
"274 91 CURVE",
"423 91 LINE",
"423 27 LINE SMOOTH",
"423 12 OFFCURVE",
"435 0 OFFCURVE",
"450 0 CURVE SMOOTH",
"941 0 LINE SMOOTH",
"956 0 OFFCURVE",
"968 12 OFFCURVE",
"968 27 CURVE SMOOTH",
"968 168 LINE SMOOTH",
"968 183 OFFCURVE",
"956 195 OFFCURVE",
"941 195 CURVE SMOOTH",
"663 195 LINE",
"663 258 LINE",
"911 258 LINE SMOOTH",
"926 258 OFFCURVE",
"938 270 OFFCURVE",
"938 285 CURVE SMOOTH",
"938 415 LINE SMOOTH",
"938 430 OFFCURVE",
"926 442 OFFCURVE",
"911 442 CURVE SMOOTH",
"663 442 LINE",
"663 505 LINE",
"933 505 LINE SMOOTH",
"948 505 OFFCURVE",
"960 517 OFFCURVE",
"960 532 CURVE SMOOTH",
"960 673 LINE SMOOTH",
"960 688 OFFCURVE",
"948 700 OFFCURVE",
"933 700 CURVE SMOOTH",
"273 700 LINE SMOOTH",
"246 700 OFFCURVE",
"232 682 OFFCURVE",
"228 667 CURVE",
"154 454 OFFCURVE",
"79 242 OFFCURVE",
"5 29 CURVE SMOOTH",
"4 26 OFFCURVE",
"4 24 OFFCURVE",
"4 22 CURVE SMOOTH",
"4 10 OFFCURVE",
"14 0 OFFCURVE",
"26 0 CURVE SMOOTH"
);
},
{
closed = 1;
nodes = (
"391 505 LINE",
"423 505 LINE",
"423 286 LINE",
"325 286 LINE"
);
}
);
width = 1005;
}
);
leftKerningGroup = AE;
rightKerningGroup = E;
unicode = 00C6;
userData = {
com.typemytype.robofont.guides = (
{
angle = 0;
isGlobal = 0;
magnetic = 5;
x = 0;
y = 505;
},
{
angle = 90;
isGlobal = 0;
magnetic = 5;
x = 431;
y = 0;
}
);
};
},
{
color = 6;
glyphname = B;
layers = (
{
anchors = (
{
name = bottom;
position = "{367, 0}";
},
{
name = top;
position = "{367, 700}";
}
);
background = {
anchors = (
{
name = bottom;
position = "{367, 0}";
},
{
name = top;
position = "{367, 700}";
}
);
paths = (
{
closed = 1;
nodes = (
"424 0 LINE SMOOTH",
"605 0 OFFCURVE",
"706 70 OFFCURVE",
"706 220 CURVE SMOOTH",
"706 286 OFFCURVE",
"662 344 OFFCURVE",
"611 365 CURVE",
"643 381 OFFCURVE",
"691 426 OFFCURVE",
"691 490 CURVE SMOOTH",
"691 630 OFFCURVE",
"605 700 OFFCURVE",
"414 700 CURVE SMOOTH",
"82 700 LINE SMOOTH",
"67 700 OFFCURVE",
"55 688 OFFCURVE",
"55 673 CURVE SMOOTH",
"55 27 LINE SMOOTH",
"55 12 OFFCURVE",
"67 0 OFFCURVE",
"82 0 CURVE SMOOTH"
);
},
{
closed = 1;
nodes = (
"305 270 LINE",
"398 270 LINE SMOOTH",
"428 270 OFFCURVE",
"444 245 OFFCURVE",
"444 221 CURVE SMOOTH",
"444 199 OFFCURVE",
"431 172 OFFCURVE",
"398 172 CURVE SMOOTH",
"305 172 LINE"
);
},
{
closed = 1;
nodes = (
"305 528 LINE",
"389 528 LINE SMOOTH",
"418 528 OFFCURVE",
"430 503 OFFCURVE",
"430 482 CURVE SMOOTH",
"430 461 OFFCURVE",
"418 437 OFFCURVE",
"389 437 CURVE SMOOTH",
"305 437 LINE"
);
}
);
};
hints = (
{
horizontal = 1;
place = "{0, 0}";
type = Tag;
}
);
layerId = "EC64484B-0978-4CB1-9EE9-C40A2D8C4059";
paths = (
{
closed = 1;
nodes = (
"107.849 -8 LINE",
"133.698 20 LINE",
"161.535 -7 LINE",
"189.372 20 LINE",
"213.233 -18 LINE",
"237.093 20 LINE",
"270.895 -10 LINE",
"304.698 20 LINE",
"338.5 -18 LINE",
"372.302 20 LINE",
"416.485 -6.501 LINE",
"460.055 20.995 LINE",
"491.891 -10.591 LINE",
"515.767 27.37 LINE",
"545.475 8.117 LINE",
"562.327 39.25 LINE",
"612.383 26.94 LINE",
"628.556 75.885 LINE",
"671.382 80.249 LINE",
"665.428 122.882 LINE",
"700.492 131.271 LINE",
"679.259 160.409 LINE",
"712.78 198.168 LINE",
"684.432 239.951 LINE",
"693.903 278.028 LINE",
"660.699 298.933 LINE",
"653.422 334.665 LINE",
"617.327 339.844 LINE",
"640.807 366.018 LINE",
"622.462 396.015 LINE",
"667.13 411.034 LINE",
"665.904 458.143 LINE",
"688.997 493.462 LINE",
"668.111 530.13 LINE",
"683.595 581.741 LINE",
"636.22 607.414 LINE",
"646.442 647.344 LINE",
"607.102 635.046 LINE",
"591.089 665.585 LINE",
"556.991 660.446 LINE",
"543.821 688.862 LINE",
"518.139 670.936 LINE",
"498.421 704.017 LINE",
"470.317 677.687 LINE",
"435.309 714.825 LINE",
"398 680 LINE",
"356 708 LINE",
"314 680 LINE",
"280 703 LINE",
"246 680 LINE",
"210 703 LINE",
"174 680 LINE",
"140 713 LINE",
"106 680 LINE",
"76.267 671.892 LINE",
"75 641.099 LINE",
"46 621.16 LINE",
"75 601.222 LINE",
"49 565.333 LINE",
"75 529.444 LINE",
"48 505.519 LINE",
"75 481.593 LINE",
"52 439.722 LINE",
"75 397.852 LINE",
"39 373.926 LINE",
"75 350 LINE",
"52 316.105 LINE",
"75 282.21 LINE",
"45 240.34 LINE",
"75 198.469 LINE",
"47 160.586 LINE",
"75 122.704 LINE",
"49 100.772 LINE",
"75 78.84 LINE"
);
},
{
closed = 1;
nodes = (
"299.21 171.714 LINE",
"285 191.429 LINE",
"300.19 211.143 LINE",
"285 230.857 LINE",
"294.8 250.571 LINE",
"285 270.286 LINE",
"303.803 271.188 LINE",
"304.483 290 LINE",
"323.966 276.28 LINE",
"343.448 290 LINE",
"362.931 272.36 LINE",
"382.414 290 LINE",
"400.262 270.711 LINE",
"421.985 285.502 LINE",
"425.906 258.705 LINE",
"452.967 259.824 LINE",
"447.171 237.197 LINE",
"464 221 LINE",
"445.425 205.055 LINE",
"453.322 181.884 LINE",
"431.2 177.034 LINE",
"422.139 156.279 LINE",
"400.23 173.14 LINE",
"382.414 152 LINE",
"362.931 168.17 LINE",
"343.448 152 LINE",
"323.966 166.7 LINE",
"304.483 152 LINE"
);
},
{
closed = 1;
nodes = (
"301.17 436.848 LINE",
"285 456.697 LINE",
"304.11 476.545 LINE",
"285 496.394 LINE",
"301.17 516.242 LINE",
"285 536.091 LINE",
"305.329 527.165 LINE",
"313 548 LINE",
"333 534.28 LINE",
"353 548 LINE",
"372.969 535.199 LINE",
"393.015 547.878 LINE",
"404.512 524.433 LINE",
"429.314 532.602 LINE",
"427.683 509.139 LINE",
"448.376 497.96 LINE",
"434.953 478.454 LINE",
"445.988 457.503 LINE",
"420.667 451.568 LINE",
"420.702 425.561 LINE",
"397.339 437.566 LINE",
"381 417 LINE",
"361 436.11 LINE",
"341 417 LINE",
"321 434.64 LINE",
"301 417 LINE"
);
},
{
closed = 1;
nodes = (
"462.036 98.027 LINE",
"428.778 83.691 LINE",
"423.223 122.186 LINE",
"449.476 143.995 LINE",
"484.984 126.046 LINE"
);
},
{
closed = 1;
nodes = (
"313.438 615.425 LINE",
"288.737 586.926 LINE",
"243.656 574.472 LINE",
"241.947 626.096 LINE",
"280.897 636.728 LINE"
);
},
{
closed = 1;
nodes = (
"216.07 281.129 LINE",
"198 267 LINE",
"180.881 281.438 LINE",
"185.657 303.989 LINE",
"210.343 303.989 LINE"
);
},
{
closed = 1;
nodes = (
"548.536 282.464 LINE",
"541.822 279.763 LINE",
"540.062 286.782 LINE",
"543.905 292.914 LINE",
"553.019 290.086 LINE"
);
},
{
closed = 1;
nodes = (
"503.712 518.052 LINE",
"474.737 526.737 LINE",
"476.744 550.264 LINE",
"493.659 559.791 LINE",
"513.717 546.598 LINE"
);
},
{
closed = 1;
nodes = (
"150.927 151.907 LINE",
"127.048 129.743 LINE",
"85.382 131.743 LINE",
"101.083 170.712 LINE",
"129.616 175.325 LINE"
);
},
{
closed = 1;
nodes = (
"419.215 322.359 LINE",
"386.886 315.966 LINE",
"377.049 342.395 LINE",
"390.468 367.198 LINE",
"416.505 353.188 LINE"
);
},
{
closed = 1;
nodes = (
"214.634 482.905 LINE",
"159.949 475.79 LINE",
"120.075 517.878 LINE",
"162.059 563.296 LINE",
"229.514 550.402 LINE"
);
},
{
closed = 1;
nodes = (
"186.76 656.713 LINE",
"177.359 646.071 LINE",
"166.865 654.933 LINE",
"165.963 670.147 LINE",
"180.5 666.794 LINE"
);
},
{
closed = 1;
nodes = (
"533.971 312.901 LINE",
"516.623 300.477 LINE",
"501.259 306.375 LINE",
"498.234 325.957 LINE",
"517.3 325.203 LINE"
);
},
{
closed = 1;
nodes = (
"356.474 659.368 LINE",
"345.228 657.332 LINE",
"343.543 669.078 LINE",
"352.244 672.996 LINE",
"362.574 669.032 LINE"
);
},
{
closed = 1;
nodes = (
"262.473 471.403 LINE",
"255.714 468.819 LINE",
"253.091 476.042 LINE",
"258.304 479.951 LINE",
"267.089 478.945 LINE"
);
},
{
closed = 1;
nodes = (
"570.639 366.335 LINE",
"501.675 358.269 LINE",
"485.485 422.096 LINE",
"529.605 472.847 LINE",
"590.558 432.851 LINE"
);
},
{
closed = 1;
nodes = (
"615.206 255.043 LINE",
"582.16 256.42 LINE",
"574.239 292.028 LINE",
"605.923 298.796 LINE",
"623.681 281.647 LINE"
);
},
{
closed = 1;
nodes = (
"479.41 644.343 LINE",
"471.152 639.254 LINE",
"466.184 649.908 LINE",
"475.147 654.948 LINE",
"485.063 652.226 LINE"
);
},
{
closed = 1;
nodes = (
"357.795 48.507 LINE",
"317.017 48.904 LINE",
"319.153 90.5 LINE",
"353.901 112.17 LINE",
"384.786 79.077 LINE"
);
},
{
closed = 1;
nodes = (
"374.962 402.872 LINE",
"368.126 394.636 LINE",
"358.962 396.752 LINE",
"359 405.605 LINE",
"367.25 411.744 LINE"
);
},
{
closed = 1;
nodes = (
"192.635 343.285 LINE",
"183.408 345.717 LINE",
"177.874 355.298 LINE",
"188.872 360.962 LINE",
"196.769 353.025 LINE"
);
},
{
closed = 1;
nodes = (
"541.375 63.167 LINE",
"523.744 64.545 LINE",
"511.002 74.279 LINE",
"523.784 84.519 LINE",
"540.926 83.751 LINE"
);
},
{
closed = 1;
nodes = (
"470.126 453.636 LINE",
"460.962 455.752 LINE",
"458.428 466.15 LINE",
"468.35 466.846 LINE",
"476.962 461.872 LINE"
);
},
{
closed = 1;
nodes = (
"263.495 432.887 LINE",
"247.767 426.027 LINE",
"233.092 431.381 LINE",
"237.358 448.491 LINE",
"254.949 449.721 LINE"
);
},
{
closed = 1;
nodes = (
"632.951 594.133 LINE",
"625.47 580.113 LINE",
"608.679 583.159 LINE",
"610.571 598.665 LINE",
"622.474 603.718 LINE"
);
},
{
closed = 1;
nodes = (
"672.188 206.584 LINE",
"661.744 202.545 LINE",
"653.002 212.209 LINE",
"660.322 227.301 LINE",
"671.553 216.589 LINE"
);
},
{
closed = 1;
nodes = (
"626.559 182.579 LINE",
"614.635 157.009 LINE",
"585.95 159.716 LINE",
"579.436 188.988 LINE",
"606.29 204.799 LINE"
);
},
{
closed = 1;
nodes = (
"341.806 351.169 LINE",
"328.679 320.811 LINE",
"298.448 331.632 LINE",
"296.758 358.666 LINE",
"319.244 364.688 LINE"
);
}
);
width = 734;
},
{
anchors = (
{
name = bottom;
position = "{367, 0}";
},
{
name = top;
position = "{367, 700}";
}
);
associatedMasterId = "EC64484B-0978-4CB1-9EE9-C40A2D8C4059";
background = {
anchors = (
{
name = bottom;
position = "{367, 0}";
},
{
name = top;
position = "{367, 700}";
}
);
paths = (
{
closed = 1;
nodes = (
"424 0 LINE SMOOTH",
"605 0 OFFCURVE",
"706 70 OFFCURVE",
"706 220 CURVE SMOOTH",
"706 286 OFFCURVE",
"662 344 OFFCURVE",
"611 365 CURVE",
"643 381 OFFCURVE",
"691 426 OFFCURVE",
"691 490 CURVE SMOOTH",
"691 630 OFFCURVE",
"605 700 OFFCURVE",
"414 700 CURVE SMOOTH",
"82 700 LINE SMOOTH",
"67 700 OFFCURVE",
"55 688 OFFCURVE",
"55 673 CURVE SMOOTH",
"55 27 LINE SMOOTH",
"55 12 OFFCURVE",
"67 0 OFFCURVE",
"82 0 CURVE SMOOTH"
);
},
{
closed = 1;
nodes = (
"305 270 LINE",
"398 270 LINE SMOOTH",
"428 270 OFFCURVE",
"444 245 OFFCURVE",
"444 221 CURVE SMOOTH",
"444 199 OFFCURVE",
"431 172 OFFCURVE",
"398 172 CURVE SMOOTH",
"305 172 LINE"
);
},
{
closed = 1;
nodes = (
"305 528 LINE",
"389 528 LINE SMOOTH",
"418 528 OFFCURVE",
"430 503 OFFCURVE",
"430 482 CURVE SMOOTH",
"430 461 OFFCURVE",
"418 437 OFFCURVE",
"389 437 CURVE SMOOTH",
"305 437 LINE"
);
}
);
};
color = 6;
hints = (
{
horizontal = 1;
place = "{0, 0}";
type = Tag;
}
);
layerId = "FEB33C8C-2502-479E-B1E9-835223D6DF6A";
name = "Jul 23 21, 16:38";
paths = (
{
closed = 1;
nodes = (
"424 0 LINE SMOOTH",
"605 0 OFFCURVE",
"706 70 OFFCURVE",
"706 220 CURVE SMOOTH",
"706 286 OFFCURVE",
"662 344 OFFCURVE",
"611 365 CURVE",
"643 381 OFFCURVE",
"691 426 OFFCURVE",
"691 490 CURVE SMOOTH",
"691 630 OFFCURVE",
"605 700 OFFCURVE",
"414 700 CURVE SMOOTH",
"82 700 LINE SMOOTH",
"67 700 OFFCURVE",
"55 688 OFFCURVE",
"55 673 CURVE SMOOTH",
"55 27 LINE SMOOTH",
"55 12 OFFCURVE",
"67 0 OFFCURVE",
"82 0 CURVE SMOOTH"
);
},
{
closed = 1;
nodes = (
"305 270 LINE",
"398 270 LINE SMOOTH",
"428 270 OFFCURVE",
"444 245 OFFCURVE",
"444 221 CURVE SMOOTH",
"444 199 OFFCURVE",
"431 172 OFFCURVE",
"398 172 CURVE SMOOTH",
"305 172 LINE"
);
},
{
closed = 1;
nodes = (
"305 528 LINE",
"389 528 LINE SMOOTH",
"418 528 OFFCURVE",
"430 503 OFFCURVE",
"430 482 CURVE SMOOTH",
"430 461 OFFCURVE",
"418 437 OFFCURVE",
"389 437 CURVE SMOOTH",
"305 437 LINE"
);
}
);
width = 734;
}
);
leftKerningGroup = I;
unicode = 0042;
userData = {
com.typemytype.robofont.guides = (
{
angle = 0;
isGlobal = 0;
magnetic = 5;
x = 0;
y = 271;
},
{
angle = 0;
isGlobal = 0;
magnetic = 5;
x = 0;
y = 437;
},
{
angle = 0;
isGlobal = 0;
magnetic = 5;
x = 0;
y = 521;
},
{
angle = 0;
isGlobal = 0;
magnetic = 5;
x = 0;
y = 198;
},
{
angle = 0;
isGlobal = 0;
magnetic = 5;
x = 0;
y = 9;
},
{
angle = 90;
isGlobal = 0;
magnetic = 5;
x = 355;
y = 0;
},
{
angle = 90;
isGlobal = 0;
magnetic = 5;
x = 583;
y = 0;
},
{
angle = 90;
isGlobal = 0;
magnetic = 5;
x = 94;
y = 0;
}
);
};
},
{
color = 6;
glyphname = C;
layers = (
{
anchors = (
{
name = bottom;
position = "{367, 0}";
},
{
name = top;
position = "{367, 700}";
}
);
background = {
anchors = (
{
name = bottom;
position = "{367, 0}";
},
{
name = top;
position = "{367, 700}";
}
);
paths = (
{
closed = 1;
nodes = (
"542 -10 OFFCURVE",
"706 64 OFFCURVE",
"709 246 CURVE SMOOTH",
"709 258 OFFCURVE",
"699 268 OFFCURVE",
"687 268 CURVE",
"483 268 LINE",
"461 268 OFFCURVE",
"453 262 OFFCURVE",
"446 239 CURVE SMOOTH",
"433 199 OFFCURVE",
"405 185 OFFCURVE",
"371 185 CURVE SMOOTH",
"327 185 OFFCURVE",
"299 205 OFFCURVE",
"297 266 CURVE SMOOTH",
"295 323 OFFCURVE",
"295 379 OFFCURVE",
"297 434 CURVE",
"299 495 OFFCURVE",
"327 515 OFFCURVE",
"371 515 CURVE SMOOTH",
"405 515 OFFCURVE",
"431 504 OFFCURVE",
"446 461 CURVE SMOOTH",
"454 439 OFFCURVE",
"461 432 OFFCURVE",
"483 432 CURVE",
"687 432 LINE",
"699 432 OFFCURVE",
"709 442 OFFCURVE",
"709 454 CURVE SMOOTH",
"706 636 OFFCURVE",
"542 710 OFFCURVE",
"372 710 CURVE SMOOTH",
"185 710 OFFCURVE",
"45 625 OFFCURVE",
"37 439 CURVE",
"35 382 OFFCURVE",
"35 315 OFFCURVE",
"37 261 CURVE",
"45 70 OFFCURVE",
"180 -10 OFFCURVE",
"372 -10 CURVE SMOOTH"
);
}
);
};
layerId = "EC64484B-0978-4CB1-9EE9-C40A2D8C4059";
paths = (
{
closed = 1;
nodes = (
"414.093 -14.069 LINE",
"452.348 15.725 LINE",
"483.321 -14.624 LINE",
"499.694 25.53 LINE",
"543.535 12.376 LINE",
"567.295 51.498 LINE",
"613.431 52.998 LINE",
"628.897 96.49 LINE",
"678.189 106.386 LINE",
"669.81 155.959 LINE",
"716.625 181.13 LINE",
"687.936 225.876 LINE",
"685.798 253.065 LINE",
"659 248 LINE",
"625 280 LINE",
"591 248 LINE",
"563 282 LINE",
"535 248 LINE",
"496.947 266.366 LINE",
"466.275 237.304 LINE",
"427.916 227.091 LINE",
"437.94 188.683 LINE",
"405.81 199.487 LINE",
"395.087 167.329 LINE",
"373.789 201.58 LINE",
"355.028 165.876 LINE",
"340.61 201.613 LINE",
"304.616 187.848 LINE",
"315.308 227.204 LINE",
"278.648 245.071 LINE",
"305.162 282.471 LINE",
"275.722 317.613 LINE",
"299.895 360.022 LINE",
"276.069 402.626 LINE",
"315.853 436.689 LINE",
"284.033 478.289 LINE",
"324.198 483.553 LINE",
"320.723 523.912 LINE",
"361.221 500.605 LINE",
"394.997 532.893 LINE",
"400.327 487.321 LINE",
"440.65 509.214 LINE",
"442.886 469.6 LINE",
"478.478 452.063 LINE",
"512.715 426.032 LINE",
"547 452 LINE",
"573 418 LINE",
"599 452 LINE",
"631 429 LINE",
"663 452 LINE",
"697.692 472.705 LINE",
"681.786 509.842 LINE",
"703.814 546.635 LINE",
"662.593 558.456 LINE",
"664.889 592.539 LINE",
"631.696 600.61 LINE",
"631.545 644.751 LINE",
"588.208 636.365 LINE",
"584.817 672.338 LINE",
"552.808 655.577 LINE",
"524.804 693.071 LINE",
"480.105 679.211 LINE",
"458.382 709.919 LINE",
"428.35 687.271 LINE",
"405.59 713.571 LINE",
"380.064 689.947 LINE",
"348.656 722.771 LINE",
"319.846 687.644 LINE",
"295.343 718.608 LINE",
"280.056 682.2 LINE",
"241.853 692.354 LINE",
"214.346 663.965 LINE",
"172.966 678.655 LINE",
"160.876 636.441 LINE",
"127.04 639.598 LINE",
"123.799 605.769 LINE",
"88.937 605.361 LINE",
"96.291 571.281 LINE",
"56.249 542.405 LINE",
"64.275 493.694 LINE",
"33.615 462.886 LINE",
"56.612 426.004 LINE",
"23.06 386.46 LINE",
"55.501 345.999 LINE",
"29.785 319.713 LINE",
"56.065 293.992 LINE",
"24.696 262.293 LINE",
"59.235 234.082 LINE",
"29.981 206.086 LINE",
"67.512 190.889 LINE",
"43.148 160.975 LINE",
"80.945 153.24 LINE",
"75.126 106.208 LINE",
"120.827 93.669 LINE",
"128.968 44.926 LINE",
"178.076 50.458 LINE",
"192.243 5.816 LINE",
"233.571 27.854 LINE",
"266.03 -3.967 LINE",
"308.085 13.282 LINE"
);
},
{
closed = 1;
nodes = (
"248.766 502.652 LINE",
"208.691 441.011 LINE",
"144.015 495.826 LINE",
"165.835 579.075 LINE",
"245.507 563.119 LINE"
);
},
{
closed = 1;
nodes = (
"635.329 518.171 LINE",
"622.129 508.475 LINE",
"613.032 523.093 LINE",
"622.254 533.272 LINE",
"638.257 534.285 LINE"
);
},
{
closed = 1;
nodes = (
"214.692 298.089 LINE",
"192.503 286.197 LINE",
"173.962 293.828 LINE",
"179.393 312.607 LINE",
"197.718 317.147 LINE"
);
},
{
closed = 1;
nodes = (
"248.643 120.112 LINE",
"211.706 132.926 LINE",
"211.483 166 LINE",
"238.99 176.476 LINE",
"270.797 156.868 LINE"
);
},
{
closed = 1;
nodes = (
"132.971 353.837 LINE",
"127.743 336.311 LINE",
"104.147 338.859 LINE",
"104.887 363.068 LINE",
"125.597 371.436 LINE"
);
},
{
closed = 1;
nodes = (
"615.457 142.922 LINE",
"606.616 135.007 LINE",
"596.426 142.968 LINE",
"601.408 154.29 LINE",
"615.619 157.032 LINE"
);
},
{
closed = 1;
nodes = (
"475.412 60.275 LINE",
"420.665 55.657 LINE",
"394.056 95.146 LINE",
"423.353 136.467 LINE",
"472.74 117.509 LINE"
);
},
{
closed = 1;
nodes = (
"249.768 345.346 LINE",
"244.174 342.003 LINE",
"235.543 343.922 LINE",
"240.922 350.94 LINE",
"248.474 353.632 LINE"
);
},
{
closed = 1;
nodes = (
"566.021 508.979 LINE",
"544.92 503.18 LINE",
"540.172 523.19 LINE",
"551.81 534.828 LINE",
"572.711 530.534 LINE"
);
},
{
closed = 1;
nodes = (
"523.289 602.573 LINE",
"489.017 586.98 LINE",
"467.073 616.907 LINE",
"487.26 643.107 LINE",
"519.215 637.641 LINE"
);
},
{
closed = 1;
nodes = (
"598.679 185.657 LINE",
"573 165 LINE",
"545.419 185.039 LINE",
"557.718 215.034 LINE",
"583.58 208.562 LINE"
);
},
{
closed = 1;
nodes = (
"582.641 595.087 LINE",
"570.775 595.053 LINE",
"561.213 605.431 LINE",
"573.608 612.903 LINE",
"584.887 607.822 LINE"
);
},
{
closed = 1;
nodes = (
"414.852 608.399 LINE",
"386.94 579.226 LINE",
"354.113 585.974 LINE",
"357.142 616.331 LINE",
"381.174 627.411 LINE"
);
},
{
closed = 1;
nodes = (
"163.557 149.365 LINE",
"162.982 127.549 LINE",
"142.819 135.897 LINE",
"138.863 150.659 LINE",
"151.576 156.985 LINE"
);
}
);
width = 733;
},
{
anchors = (
{
name = bottom;
position = "{367, 0}";
},
{
name = top;
position = "{367, 700}";
}
);
associatedMasterId = "EC64484B-0978-4CB1-9EE9-C40A2D8C4059";
background = {
anchors = (
{
name = bottom;
position = "{367, 0}";
},
{
name = top;
position = "{367, 700}";
}
);
paths = (
{
closed = 1;
nodes = (
"542 -10 OFFCURVE",
"706 64 OFFCURVE",
"709 246 CURVE SMOOTH",
"709 258 OFFCURVE",
"699 268 OFFCURVE",
"687 268 CURVE",
"483 268 LINE",
"461 268 OFFCURVE",
"453 262 OFFCURVE",
"446 239 CURVE SMOOTH",
"433 199 OFFCURVE",
"405 185 OFFCURVE",
"371 185 CURVE SMOOTH",
"327 185 OFFCURVE",
"299 205 OFFCURVE",
"297 266 CURVE SMOOTH",
"295 323 OFFCURVE",
"295 379 OFFCURVE",
"297 434 CURVE",
"299 495 OFFCURVE",
"327 515 OFFCURVE",
"371 515 CURVE SMOOTH",
"405 515 OFFCURVE",
"431 504 OFFCURVE",
"446 461 CURVE SMOOTH",
"454 439 OFFCURVE",
"461 432 OFFCURVE",
"483 432 CURVE",
"687 432 LINE",
"699 432 OFFCURVE",
"709 442 OFFCURVE",
"709 454 CURVE SMOOTH",
"706 636 OFFCURVE",
"542 710 OFFCURVE",
"372 710 CURVE SMOOTH",
"185 710 OFFCURVE",
"45 625 OFFCURVE",
"37 439 CURVE",
"35 382 OFFCURVE",
"35 315 OFFCURVE",
"37 261 CURVE",
"45 70 OFFCURVE",
"180 -10 OFFCURVE",
"372 -10 CURVE SMOOTH"
);
}
);
};
color = 6;
layerId = "F915653E-7DBB-42AB-8E5E-2423796913F0";
name = "Jul 23 21, 16:38";
paths = (
{
closed = 1;
nodes = (
"542 -10 OFFCURVE",
"706 64 OFFCURVE",
"709 246 CURVE SMOOTH",
"709 258 OFFCURVE",
"699 268 OFFCURVE",
"687 268 CURVE",
"483 268 LINE",
"461 268 OFFCURVE",
"453 262 OFFCURVE",
"446 239 CURVE SMOOTH",
"433 199 OFFCURVE",
"405 185 OFFCURVE",
"371 185 CURVE SMOOTH",
"327 185 OFFCURVE",
"299 205 OFFCURVE",
"297 266 CURVE SMOOTH",
"295 323 OFFCURVE",
"295 379 OFFCURVE",
"297 434 CURVE",
"299 495 OFFCURVE",
"327 515 OFFCURVE",
"371 515 CURVE SMOOTH",
"405 515 OFFCURVE",
"431 504 OFFCURVE",
"446 461 CURVE SMOOTH",
"454 439 OFFCURVE",
"461 432 OFFCURVE",
"483 432 CURVE",
"687 432 LINE",
"699 432 OFFCURVE",
"709 442 OFFCURVE",
"709 454 CURVE SMOOTH",
"706 636 OFFCURVE",
"542 710 OFFCURVE",
"372 710 CURVE SMOOTH",
"185 710 OFFCURVE",
"45 625 OFFCURVE",
"37 439 CURVE",
"35 382 OFFCURVE",
"35 315 OFFCURVE",
"37 261 CURVE",
"45 70 OFFCURVE",
"180 -10 OFFCURVE",
"372 -10 CURVE SMOOTH"
);
}
);
width = 733;
}
);
leftKerningGroup = O;
rightKerningGroup = C;
unicode = 0043;
userData = {
com.typemytype.robofont.guides = (
{
angle = 0;
isGlobal = 0;
magnetic = 5;
x = 0;
y = 434;
},
{
angle = 0;
isGlobal = 0;
magnetic = 5;
x = 0;
y = 266;
},
{
angle = 0;
isGlobal = 0;
magnetic = 5;
x = 0;
y = 710;
},
{
angle = 0;
isGlobal = 0;
magnetic = 5;
x = 0;
y = "-10";
},
{
angle = 90;
isGlobal = 0;
magnetic = 5;
x = 599;
y = 0;
},
{
angle = 90;
isGlobal = 0;
magnetic = 5;
x = 209;
y = 0;
},
{
angle = 90;
isGlobal = 0;
magnetic = 5;
x = 149;
y = 0;
},
{
angle = 90;
isGlobal = 0;
magnetic = 5;
x = 332;
y = 0;
}
);
};
},
{
color = 6;
glyphname = Ccedilla;
layers = (
{
background = {
paths = (
{
closed = 1;
nodes = (
"426 -220 OFFCURVE",
"465 -183 OFFCURVE",
"465 -130 CURVE SMOOTH",
"465 -77 OFFCURVE",
"435 -40 OFFCURVE",
"384 -40 CURVE SMOOTH",
"380 -40 OFFCURVE",
"362 -42 OFFCURVE",
"354 -45 CURVE",
"372 -10 LINE",
"542 -10 OFFCURVE",
"706 64 OFFCURVE",
"709 246 CURVE SMOOTH",
"709 258 OFFCURVE",
"699 268 OFFCURVE",
"687 268 CURVE",
"483 268 LINE",
"461 268 OFFCURVE",
"453 262 OFFCURVE",
"446 239 CURVE SMOOTH",
"433 199 OFFCURVE",
"405 185 OFFCURVE",
"371 185 CURVE SMOOTH",
"327 185 OFFCURVE",
"299 205 OFFCURVE",
"297 266 CURVE SMOOTH",
"295 323 OFFCURVE",
"295 379 OFFCURVE",
"297 434 CURVE SMOOTH",
"299 495 OFFCURVE",
"327 515 OFFCURVE",
"371 515 CURVE SMOOTH",
"405 515 OFFCURVE",
"431 504 OFFCURVE",
"446 461 CURVE SMOOTH",
"454 439 OFFCURVE",
"461 432 OFFCURVE",
"483 432 CURVE",
"687 432 LINE",
"699 432 OFFCURVE",
"709 442 OFFCURVE",
"709 454 CURVE SMOOTH",
"706 636 OFFCURVE",
"542 710 OFFCURVE",
"372 710 CURVE SMOOTH",
"185 710 OFFCURVE",
"45 625 OFFCURVE",
"37 439 CURVE SMOOTH",
"35 382 OFFCURVE",
"35 315 OFFCURVE",
"37 261 CURVE SMOOTH",
"44 91 OFFCURVE",
"151 10 OFFCURVE",
"309 -6 CURVE",
"289 -52 LINE",
"280 -71 OFFCURVE",
"282 -76 OFFCURVE",
"291 -85 CURVE",
"312 -106 LINE",
"325 -119 OFFCURVE",
"348 -106 OFFCURVE",
"366 -106 CURVE SMOOTH",
"386 -106 OFFCURVE",
"394 -118 OFFCURVE",
"394 -130 CURVE SMOOTH",
"394 -142 OFFCURVE",
"385 -154 OFFCURVE",
"366 -154 CURVE SMOOTH",
"332 -154 OFFCURVE",
"327 -136 OFFCURVE",
"310 -151 CURVE",
"289 -169 LINE",
"266 -189 OFFCURVE",
"313 -220 OFFCURVE",
"366 -220 CURVE SMOOTH"
);
}
);
};
hints = (
{
horizontal = 1;
place = "{0, 0}";
type = Tag;
}
);
layerId = "EC64484B-0978-4CB1-9EE9-C40A2D8C4059";
paths = (
{
closed = 1;
nodes = (
"399.471 -223.07 LINE",
"416.773 -186.285 LINE",
"448.875 -185.417 LINE",
"441.217 -154.231 LINE",
"478.465 -136.411 LINE",
"443.867 -113.874 LINE",
"437.077 -68.635 LINE",
"392.076 -60.412 LINE",
"376.827 -23.415 LINE",
"337.846 -32.462 LINE",
"373.687 -22.152 LINE",
"392.251 10.193 LINE",
"421.547 -1.363 LINE",
"448.467 14.979 LINE",
"474.169 -12.761 LINE",
"488.081 22.404 LINE",
"519.375 2.68 LINE",
"534.321 36.517 LINE",
"582.633 27.298 LINE",
"601.58 72.685 LINE",
"637.15 79.279 LINE",
"644.9 114.615 LINE",
"680.574 123.908 LINE",
"671.464 159.629 LINE",
"702.713 177.846 LINE",
"685.909 209.878 LINE",
"689.611 241.049 LINE",
"659 248 LINE",
"621 269 LINE",
"583 248 LINE",
"557 271 LINE",
"531 248 LINE",
"504.709 279.962 LINE",
"478.512 247.923 LINE",
"426.46 238.282 LINE",
"434.901 186.021 LINE",
"388.362 202.129 LINE",
"355.028 165.876 LINE",
"341.856 218.107 LINE",
"288.518 210.584 LINE",
"317.013 250.029 LINE",
"276.604 277.139 LINE",
"315.129 300.218 LINE",
"275.67 321.662 LINE",
"312.72 353.991 LINE",
"275.77 386.435 LINE",
"308.239 405.917 LINE",
"276.725 426.908 LINE",
"302.088 446.137 LINE",
"281.752 470.62 LINE",
"323.845 474.506 LINE",
"304.616 512.152 LINE",
"346.791 493.494 LINE",
"366.999 534.949 LINE",
"393.929 493.76 LINE",
"440.65 509.214 LINE",
"432.162 476.399 LINE",
"465 468 LINE",
"476.502 426.943 LINE",
"511 452 LINE",
"543 430 LINE",
"575 452 LINE",
"613 426 LINE",
"651 452 LINE",
"687.553 460.622 LINE",
"684.467 498.051 LINE",
"698.975 525.679 LINE",
"671.434 540.351 LINE",
"673.997 574.77 LINE",
"642.33 588.494 LINE",
"645.357 619.67 LINE",
"614.13 617.221 LINE",
"600.32 659.18 LINE",
"556.465 653.882 LINE",
"530.172 695.482 LINE",
"484.042 678.34 LINE",
"450.153 712.342 LINE",
"408.261 688.897 LINE",
"367.845 718.614 LINE",
"327.85 688.331 LINE",
"294.947 705.877 LINE",
"268.234 679.86 LINE",
"227.26 703.86 LINE",
"206.896 660.962 LINE",
"161.795 658.183 LINE",
"138.463 619.486 LINE",
"95.078 624.116 LINE",
"103.094 581.227 LINE",
"62.961 558.673 LINE",
"69.454 513.097 LINE",
"43.363 489.677 LINE",
"58.459 458.033 LINE",
"31.308 433.195 LINE",
"56.104 406.007 LINE",
"29.834 368.186 LINE",
"55.563 329.996 LINE",
"30.376 293.402 LINE",
"57.175 257.972 LINE",
"23.122 220.585 LINE",
"66.285 194.233 LINE",
"57.911 144.384 LINE",
"100.655 117.403 LINE",
"107.306 63.107 LINE",
"161.907 59.809 LINE",
"176.718 15.407 LINE",
"220.234 32.648 LINE",
"248.302 2.449 LINE",
"286.863 17.037 LINE",
"286.316 -23.383 LINE",
"326.2 -16.8 LINE",
"283.703 -23.779 LINE",
"307 -60 LINE",
"305.869 -88.732 LINE",
"334.549 -90.794 LINE",
"364.025 -115.293 LINE",
"396.603 -95.099 LINE",
"379.102 -128.772 LINE",
"405.176 -156.346 LINE",
"372.692 -144.757 LINE",
"353.1 -173.141 LINE",
"327.296 -164.302 LINE",
"325.635 -191.527 LINE"
);
},
{
closed = 1;
nodes = (
"645.97 488.303 LINE",
"640.474 478.282 LINE",
"627.714 482.82 LINE",
"632.717 493.592 LINE",
"642.298 499.126 LINE"
);
},
{
closed = 1;
nodes = (
"527.116 504.849 LINE",
"498.414 471.827 LINE",
"478.216 512.466 LINE",
"487.982 556.784 LINE",
"526.015 533.732 LINE"
);
},
{
closed = 1;
nodes = (
"365.867 645.531 LINE",
"352.897 644.819 LINE",
"350.42 661.17 LINE",
"365.071 660.727 LINE",
"372.986 653.523 LINE"
);
},
{
closed = 1;
nodes = (
"508.256 198.736 LINE",
"490.558 184.271 LINE",
"479.185 203.653 LINE",
"487.19 219.365 LINE",
"505.314 217.314 LINE"
);
},
{
closed = 1;
nodes = (
"194.146 447.895 LINE",
"134.246 457.573 LINE",
"142.428 512.571 LINE",
"182.648 526.129 LINE",
"216.84 496.661 LINE"
);
},
{
closed = 1;
nodes = (
"433.718 61.964 LINE",
"412.467 23.653 LINE",
"374.097 49.568 LINE",
"371.91 97.954 LINE",
"424.727 106.446 LINE"
);
},
{
closed = 1;
nodes = (
"658.98 544.848 LINE",
"630.961 528.697 LINE",
"600.3 528.665 LINE",
"601.572 565.086 LINE",
"633.524 566.673 LINE"
);
},
{
closed = 1;
nodes = (
"209.049 171.654 LINE",
"145.931 175.445 LINE",
"157.522 237.604 LINE",
"214.673 285.095 LINE",
"266.956 215.548 LINE"
);
},
{
closed = 1;
nodes = (
"304.854 579.912 LINE",
"292.257 569.197 LINE",
"281.171 577.305 LINE",
"279.929 591.725 LINE",
"293.945 590.089 LINE"
);
},
{
closed = 1;
nodes = (
"581.883 559.33 LINE",
"571.563 552.137 LINE",
"562.053 556.775 LINE",
"562.807 567.947 LINE",
"572.63 566.393 LINE"
);
},
{
closed = 1;
nodes = (
"148.993 347.833 LINE",
"125.361 316.024 LINE",
"88.292 342.003 LINE",
"109.224 373.912 LINE",
"137.98 375.726 LINE"
);
}
);
width = 733;
},
{
associatedMasterId = "EC64484B-0978-4CB1-9EE9-C40A2D8C4059";
background = {
paths = (
{
closed = 1;
nodes = (
"426 -220 OFFCURVE",
"465 -183 OFFCURVE",
"465 -130 CURVE SMOOTH",
"465 -77 OFFCURVE",
"435 -40 OFFCURVE",
"384 -40 CURVE SMOOTH",
"380 -40 OFFCURVE",
"362 -42 OFFCURVE",
"354 -45 CURVE",
"372 -10 LINE",
"542 -10 OFFCURVE",
"706 64 OFFCURVE",
"709 246 CURVE SMOOTH",
"709 258 OFFCURVE",
"699 268 OFFCURVE",
"687 268 CURVE",
"483 268 LINE",
"461 268 OFFCURVE",
"453 262 OFFCURVE",
"446 239 CURVE SMOOTH",
"433 199 OFFCURVE",
"405 185 OFFCURVE",
"371 185 CURVE SMOOTH",
"327 185 OFFCURVE",
"299 205 OFFCURVE",
"297 266 CURVE SMOOTH",
"295 323 OFFCURVE",
"295 379 OFFCURVE",
"297 434 CURVE SMOOTH",
"299 495 OFFCURVE",
"327 515 OFFCURVE",
"371 515 CURVE SMOOTH",
"405 515 OFFCURVE",
"431 504 OFFCURVE",
"446 461 CURVE SMOOTH",
"454 439 OFFCURVE",
"461 432 OFFCURVE",
"483 432 CURVE",
"687 432 LINE",
"699 432 OFFCURVE",
"709 442 OFFCURVE",
"709 454 CURVE SMOOTH",
"706 636 OFFCURVE",
"542 710 OFFCURVE",
"372 710 CURVE SMOOTH",
"185 710 OFFCURVE",
"45 625 OFFCURVE",
"37 439 CURVE SMOOTH",
"35 382 OFFCURVE",
"35 315 OFFCURVE",
"37 261 CURVE SMOOTH",
"44 91 OFFCURVE",
"151 10 OFFCURVE",
"309 -6 CURVE",
"289 -52 LINE",
"280 -71 OFFCURVE",
"282 -76 OFFCURVE",
"291 -85 CURVE",
"312 -106 LINE",
"325 -119 OFFCURVE",
"348 -106 OFFCURVE",
"366 -106 CURVE SMOOTH",
"386 -106 OFFCURVE",
"394 -118 OFFCURVE",
"394 -130 CURVE SMOOTH",
"394 -142 OFFCURVE",
"385 -154 OFFCURVE",
"366 -154 CURVE SMOOTH",
"332 -154 OFFCURVE",
"327 -136 OFFCURVE",
"310 -151 CURVE",
"289 -169 LINE",
"266 -189 OFFCURVE",
"313 -220 OFFCURVE",
"366 -220 CURVE SMOOTH"
);
}
);
};
color = 6;
hints = (
{
horizontal = 1;
place = "{0, 0}";
type = Tag;
}
);
layerId = "6992C6F7-D3C2-42AA-8CAB-6CCDFF67A75E";
name = "Jul 23 21, 16:38";
paths = (
{
closed = 1;
nodes = (
"426 -220 OFFCURVE",
"465 -183 OFFCURVE",
"465 -130 CURVE SMOOTH",
"465 -77 OFFCURVE",
"435 -40 OFFCURVE",
"384 -40 CURVE SMOOTH",
"380 -40 OFFCURVE",
"362 -42 OFFCURVE",
"354 -45 CURVE",
"372 -10 LINE",
"542 -10 OFFCURVE",
"706 64 OFFCURVE",
"709 246 CURVE SMOOTH",
"709 258 OFFCURVE",
"699 268 OFFCURVE",
"687 268 CURVE",
"483 268 LINE",
"461 268 OFFCURVE",
"453 262 OFFCURVE",
"446 239 CURVE SMOOTH",
"433 199 OFFCURVE",
"405 185 OFFCURVE",
"371 185 CURVE SMOOTH",
"327 185 OFFCURVE",
"299 205 OFFCURVE",
"297 266 CURVE SMOOTH",
"295 323 OFFCURVE",
"295 379 OFFCURVE",
"297 434 CURVE SMOOTH",
"299 495 OFFCURVE",
"327 515 OFFCURVE",
"371 515 CURVE SMOOTH",
"405 515 OFFCURVE",
"431 504 OFFCURVE",
"446 461 CURVE SMOOTH",
"454 439 OFFCURVE",
"461 432 OFFCURVE",
"483 432 CURVE",
"687 432 LINE",
"699 432 OFFCURVE",
"709 442 OFFCURVE",
"709 454 CURVE SMOOTH",
"706 636 OFFCURVE",
"542 710 OFFCURVE",
"372 710 CURVE SMOOTH",
"185 710 OFFCURVE",
"45 625 OFFCURVE",
"37 439 CURVE SMOOTH",
"35 382 OFFCURVE",
"35 315 OFFCURVE",
"37 261 CURVE SMOOTH",
"44 91 OFFCURVE",
"151 10 OFFCURVE",
"309 -6 CURVE",
"289 -52 LINE",
"280 -71 OFFCURVE",
"282 -76 OFFCURVE",
"291 -85 CURVE",
"312 -106 LINE",
"325 -119 OFFCURVE",
"348 -106 OFFCURVE",
"366 -106 CURVE SMOOTH",
"386 -106 OFFCURVE",
"394 -118 OFFCURVE",
"394 -130 CURVE SMOOTH",
"394 -142 OFFCURVE",
"385 -154 OFFCURVE",
"366 -154 CURVE SMOOTH",
"332 -154 OFFCURVE",
"327 -136 OFFCURVE",
"310 -151 CURVE",
"289 -169 LINE",
"266 -189 OFFCURVE",
"313 -220 OFFCURVE",
"366 -220 CURVE SMOOTH"
);
}
);
width = 733;
}
);
leftKerningGroup = O;
rightKerningGroup = C;
unicode = 00C7;
userData = {
com.typemytype.robofont.guides = (
{
angle = 0;
isGlobal = 0;
magnetic = 5;
x = 0;
y = "-174";
},
{
angle = 0;
isGlobal = 0;
magnetic = 5;
x = 0;
y = "-220";
},
{
angle = 0;
isGlobal = 0;
magnetic = 5;
x = 0;
y = "-96";
},
{
angle = 0;
isGlobal = 0;
magnetic = 5;
x = 0;
y = "-50";
},
{
angle = 0;
isGlobal = 0;
magnetic = 5;
x = 0;
y = "-135";
},
{
angle = 90;
isGlobal = 0;
magnetic = 5;
x = 331;
y = 0;
},
{
angle = 90;
isGlobal = 0;
magnetic = 5;
x = 342;
y = 0;
}
);
};
},
{
color = 6;
glyphname = D;
layers = (
{
anchors = (
{
name = bottom;
position = "{370, 0}";
},
{
name = center;
position = "{370, 350}";
},
{
name = top;
position = "{364, 700}";
}
);
background = {
anchors = (
{
name = bottom;
position = "{370, 0}";
},
{
name = center;
position = "{370, 350}";
},
{
name = top;
position = "{364, 700}";
}
);
paths = (
{
closed = 1;
nodes = (
"375 0 LINE SMOOTH",
"566 0 OFFCURVE",
"696 87 OFFCURVE",
"704 276 CURVE SMOOTH",
"706 330 OFFCURVE",
"706 368 OFFCURVE",
"704 425 CURVE SMOOTH",
"697 604 OFFCURVE",
"557 700 OFFCURVE",
"370 700 CURVE",
"82 700 LINE SMOOTH",
"67 700 OFFCURVE",
"55 688 OFFCURVE",
"55 673 CURVE SMOOTH",
"55 27 LINE SMOOTH",
"55 12 OFFCURVE",
"67 0 OFFCURVE",
"82 0 CURVE SMOOTH"
);
},
{
closed = 1;
nodes = (
"305 505 LINE",
"365 505 LINE SMOOTH",
"410 505 OFFCURVE",
"447 481 OFFCURVE",
"450 425 CURVE SMOOTH",
"453 370 OFFCURVE",
"453 333 OFFCURVE",
"450 276 CURVE SMOOTH",
"447 220 OFFCURVE",
"414 195 OFFCURVE",
"370 195 CURVE SMOOTH",
"305 195 LINE"
);
}
);
};
hints = (
{
horizontal = 1;
place = "{0, 0}";
type = Tag;
}
);
layerId = "EC64484B-0978-4CB1-9EE9-C40A2D8C4059";
paths = (
{
closed = 1;
nodes = (
"107.736 -18 LINE",
"133.473 20 LINE",
"153.27 0 LINE",
"173.068 20 LINE",
"202.764 -3 LINE",
"232.459 20 LINE",
"264.135 -7 LINE",
"295.811 20 LINE",
"321.547 -3 LINE",
"347.284 20 LINE",
"383.995 -12.159 LINE",
"419.178 21.664 LINE",
"466.688 -5.596 LINE",
"502.201 36.107 LINE",
"552.438 26.871 LINE",
"578.921 70.548 LINE",
"615.561 60.265 LINE",
"613.292 98.253 LINE",
"653.762 90.445 LINE",
"639.125 128.974 LINE",
"674.037 156.937 LINE",
"672.623 201.645 LINE",
"710.819 232.201 LINE",
"683.811 272.984 LINE",
"717.587 300.621 LINE",
"685.387 330.078 LINE",
"711.226 358.813 LINE",
"685.066 387.256 LINE",
"717.312 410.727 LINE",
"683.595 432.03 LINE",
"701.986 476.695 LINE",
"667.481 510.497 LINE",
"684.128 542.919 LINE",
"648.444 550.333 LINE",
"654.658 582.342 LINE",
"622.241 585.861 LINE",
"622.317 628.43 LINE",
"580.1 622.964 LINE",
"576.055 659.995 LINE",
"541.899 645.129 LINE",
"522.183 685.166 LINE",
"481.481 666.862 LINE",
"451.595 708.192 LINE",
"410.158 678.456 LINE",
"380.9 711.217 LINE",
"350 680 LINE",
"324 702 LINE",
"298 680 LINE",
"262 713 LINE",
"226 680 LINE",
"202 715 LINE",
"178 680 LINE",
"154 710 LINE",
"130 680 LINE",
"92.78 708.213 LINE",
"75 665.025 LINE",
"48 635.117 LINE",
"75 605.21 LINE",
"55 575.302 LINE",
"75 545.395 LINE",
"52 519.475 LINE",
"75 493.556 LINE",
"46 465.642 LINE",
"75 437.728 LINE",
"55 409.815 LINE",
"75 381.901 LINE",
"37 357.975 LINE",
"75 334.049 LINE",
"49 306.136 LINE",
"75 278.222 LINE",
"47 240.34 LINE",
"75 202.457 LINE",
"54 182.519 LINE",
"75 162.58 LINE",
"54 134.667 LINE",
"75 106.753 LINE",
"53 68.87 LINE",
"75 30.988 LINE"
);
},
{
closed = 1;
nodes = (
"301.66 194.886 LINE",
"285 214.773 LINE",
"297.74 234.659 LINE",
"285 254.545 LINE",
"303.13 274.432 LINE",
"285 294.318 LINE",
"299.7 314.205 LINE",
"285 334.091 LINE",
"296.76 353.977 LINE",
"285 373.864 LINE",
"296.27 393.75 LINE",
"285 413.636 LINE",
"303.62 433.523 LINE",
"285 453.409 LINE",
"299.21 473.295 LINE",
"285 493.182 LINE",
"298.979 506.582 LINE",
"293 525 LINE",
"313 511 LINE",
"333 525 LINE",
"352.92 504.587 LINE",
"373.069 524.773 LINE",
"389.572 506.694 LINE",
"412.243 515.926 LINE",
"413.073 482.645 LINE",
"444.825 492.654 LINE",
"442.673 468.468 LINE",
"464.446 457.718 LINE",
"449.993 435.163 LINE",
"470.429 417.844 LINE",
"452.099 396.725 LINE",
"471.962 377.041 LINE",
"459.804 356.57 LINE",
"472.145 336.21 LINE",
"461.758 316.086 LINE",
"470.964 295.394 LINE",
"453.676 276.39 LINE",
"467.645 254.828 LINE",
"448.073 240.678 LINE",
"453.217 217.081 LINE",
"419.722 222.454 LINE",
"424.478 188.865 LINE",
"400.221 197.702 LINE",
"386.218 176.015 LINE",
"365.923 198.6 LINE",
"346.818 175 LINE",
"327.5 191.1 LINE",
"308.182 175 LINE"
);
},
{
closed = 1;
nodes = (
"414.883 124.17 LINE",
"401.982 126.014 LINE",
"397.599 137.581 LINE",
"408.122 140.999 LINE",
"419.476 137.508 LINE"
);
},
{
closed = 1;
nodes = (
"600.934 482.746 LINE",
"591.495 472.262 LINE",
"582.072 480 LINE",
"583.798 488.684 LINE",
"593.881 494.963 LINE"
);
},
{
closed = 1;
nodes = (
"558.927 255.907 LINE",
"538.435 220.158 LINE",
"506.951 244.222 LINE",
"501.422 281.14 LINE",
"542.486 291.379 LINE"
);
},
{
closed = 1;
nodes = (
"209.672 248.362 LINE",
"196.429 177.746 LINE",
"133.82 212.992 LINE",
"103.027 277.906 LINE",
"177.449 301.898 LINE"
);
},
{
closed = 1;
nodes = (
"184.994 79.165 LINE",
"165.977 83.073 LINE",
"164.583 103.009 LINE",
"182.871 109.525 LINE",
"195.959 95.186 LINE"
);
},
{
closed = 1;
nodes = (
"236.47 520.446 LINE",
"173.122 486.268 LINE",
"117.755 512.629 LINE",
"132.536 574.387 LINE",
"195.5 582.631 LINE"
);
},
{
closed = 1;
nodes = (
"360.836 59.136 LINE",
"337.101 42.297 LINE",
"313.908 40.61 LINE",
"317.144 64 LINE",
"335.782 78.497 LINE"
);
},
{
closed = 1;
nodes = (
"526.925 503.528 LINE",
"472.034 496.446 LINE",
"442.693 551.79 LINE",
"495.21 577.903 LINE",
"535.087 552.984 LINE"
);
},
{
closed = 1;
nodes = (
"206.632 401.231 LINE",
"196.097 394.356 LINE",
"186.032 405.093 LINE",
"194.13 418.053 LINE",
"207.426 413.071 LINE"
);
},
{
closed = 1;
nodes = (
"522.059 416.165 LINE",
"498 420.144 LINE",
"491.328 437.119 LINE",
"503.7 455.879 LINE",
"528.839 444.168 LINE"
);
},
{
closed = 1;
nodes = (
"334.489 631.75 LINE",
"319.927 587.009 LINE",
"274.836 592.632 LINE",
"270.689 630.577 LINE",
"298.361 659.976 LINE"
);
},
{
closed = 1;
nodes = (
"638.927 169.093 LINE",
"618.365 143.82 LINE",
"578.358 141.288 LINE",
"590.343 178.658 LINE",
"616.983 199.02 LINE"
);
},
{
closed = 1;
nodes = (
"401.405 58.56 LINE",
"392.643 57.291 LINE",
"390.239 65.812 LINE",
"396.529 72.988 LINE",
"406.336 67.584 LINE"
);
},
{
closed = 1;
nodes = (
"522.364 148.983 LINE",
"510 145 LINE",
"503.343 150.837 LINE",
"504.122 161.09 LINE",
"515.29 160.281 LINE"
);
},
{
closed = 1;
nodes = (
"576.535 371.308 LINE",
"571.71 358.052 LINE",
"558.843 360.12 LINE",
"549.025 373.814 LINE",
"565.384 378.993 LINE"
);
},
{
closed = 1;
nodes = (
"277.774 468.72 LINE",
"270.483 463.715 LINE",
"269.019 472.436 LINE",
"272.425 478.821 LINE",
"281.715 476.635 LINE"
);
}
);
width = 740;
},
{
anchors = (
{
name = bottom;
position = "{370, 0}";
},
{
name = center;
position = "{370, 350}";
},
{
name = top;
position = "{364, 700}";
}
);
associatedMasterId = "EC64484B-0978-4CB1-9EE9-C40A2D8C4059";
background = {
anchors = (
{
name = bottom;
position = "{370, 0}";
},
{
name = center;
position = "{370, 350}";
},
{
name = top;
position = "{364, 700}";
}
);
paths = (
{
closed = 1;
nodes = (
"375 0 LINE SMOOTH",
"566 0 OFFCURVE",
"696 87 OFFCURVE",
"704 276 CURVE SMOOTH",
"706 330 OFFCURVE",
"706 368 OFFCURVE",
"704 425 CURVE SMOOTH",
"697 604 OFFCURVE",
"557 700 OFFCURVE",
"370 700 CURVE",
"82 700 LINE SMOOTH",
"67 700 OFFCURVE",
"55 688 OFFCURVE",
"55 673 CURVE SMOOTH",
"55 27 LINE SMOOTH",
"55 12 OFFCURVE",
"67 0 OFFCURVE",
"82 0 CURVE SMOOTH"
);
},
{
closed = 1;
nodes = (
"305 505 LINE",
"365 505 LINE SMOOTH",
"410 505 OFFCURVE",
"447 481 OFFCURVE",
"450 425 CURVE SMOOTH",
"453 370 OFFCURVE",
"453 333 OFFCURVE",
"450 276 CURVE SMOOTH",
"447 220 OFFCURVE",
"414 195 OFFCURVE",
"370 195 CURVE SMOOTH",
"305 195 LINE"
);
}
);
};
color = 6;
hints = (
{
horizontal = 1;
place = "{0, 0}";
type = Tag;
}
);
layerId = "0C16D2E4-C6B5-4E12-83C6-5457D1E61184";
name = "Jul 23 21, 16:38";
paths = (
{
closed = 1;
nodes = (
"375 0 LINE SMOOTH",
"566 0 OFFCURVE",
"696 87 OFFCURVE",
"704 276 CURVE SMOOTH",
"706 330 OFFCURVE",
"706 368 OFFCURVE",
"704 425 CURVE SMOOTH",
"697 604 OFFCURVE",
"557 700 OFFCURVE",
"370 700 CURVE",
"82 700 LINE SMOOTH",
"67 700 OFFCURVE",
"55 688 OFFCURVE",
"55 673 CURVE SMOOTH",
"55 27 LINE SMOOTH",
"55 12 OFFCURVE",
"67 0 OFFCURVE",
"82 0 CURVE SMOOTH"
);
},
{
closed = 1;
nodes = (
"305 505 LINE",
"365 505 LINE SMOOTH",
"410 505 OFFCURVE",
"447 481 OFFCURVE",
"450 425 CURVE SMOOTH",
"453 370 OFFCURVE",
"453 333 OFFCURVE",
"450 276 CURVE SMOOTH",
"447 220 OFFCURVE",
"414 195 OFFCURVE",
"370 195 CURVE SMOOTH",
"305 195 LINE"
);
}
);
width = 740;
}
);
leftKerningGroup = I;
rightKerningGroup = D;
unicode = 0044;
userData = {
com.typemytype.robofont.guides = (
{
angle = 0;
isGlobal = 0;
magnetic = 5;
x = 0;
y = 425;
},
{
angle = 0;
isGlobal = 0;
magnetic = 5;
x = 0;
y = 276;
},
{
angle = 0;
isGlobal = 0;
magnetic = 5;
x = 0;
y = 9;
},
{
angle = 90;
isGlobal = 0;
magnetic = 5;
x = 320;
y = 0;
},
{
angle = 90;
isGlobal = 0;
magnetic = 5;
x = 603;
y = 0;
},
{
angle = 90;
isGlobal = 0;
magnetic = 5;
x = 94;
y = 0;
}
);
};
},
{
color = 6;
glyphname = Eth;
layers = (
{
background = {
paths = (
{
closed = 1;
nodes = (
"395 0 LINE SMOOTH",
"586 0 OFFCURVE",
"729 87 OFFCURVE",
"729 276 CURVE SMOOTH",
"729 326 OFFCURVE",
"729 375 OFFCURVE",
"729 425 CURVE SMOOTH",
"729 604 OFFCURVE",
"581 700 OFFCURVE",
"394 700 CURVE SMOOTH",
"106 700 LINE SMOOTH",
"91 700 OFFCURVE",
"79 688 OFFCURVE",
"79 673 CURVE SMOOTH",
"79 429 LINE",
"41 429 LINE",
"26 429 OFFCURVE",
"14 417 OFFCURVE",
"14 402 CURVE SMOOTH",
"14 301 LINE SMOOTH",
"14 286 OFFCURVE",
"26 274 OFFCURVE",
"41 274 CURVE SMOOTH",
"79 274 LINE",
"79 27 LINE SMOOTH",
"79 12 OFFCURVE",
"91 0 OFFCURVE",
"106 0 CURVE SMOOTH"
);
},
{
closed = 1;
nodes = (
"329 274 LINE",
"385 274 LINE SMOOTH",
"400 274 OFFCURVE",
"412 286 OFFCURVE",
"412 301 CURVE SMOOTH",
"412 402 LINE SMOOTH",
"412 417 OFFCURVE",
"400 429 OFFCURVE",
"385 429 CURVE SMOOTH",
"329 429 LINE",
"329 505 LINE",
"394 505 LINE SMOOTH",
"439 505 OFFCURVE",
"469 481 OFFCURVE",
"469 425 CURVE SMOOTH",
"469 375 OFFCURVE",
"469 326 OFFCURVE",
"469 276 CURVE SMOOTH",
"469 220 OFFCURVE",
"438 195 OFFCURVE",
"394 195 CURVE SMOOTH",
"329 195 LINE"
);
}
);
};
hints = (
{
horizontal = 1;
place = "{0, 0}";
type = Tag;
}
);
layerId = "EC64484B-0978-4CB1-9EE9-C40A2D8C4059";
paths = (
{
closed = 1;
nodes = (
"133.712 -15 LINE",
"161.425 20 LINE",
"193.096 -10 LINE",
"224.767 20 LINE",
"256.438 -10 LINE",
"288.11 20 LINE",
"319.781 -5 LINE",
"351.452 20 LINE",
"371.247 -19 LINE",
"391.041 20 LINE",
"431.447 -15.644 LINE",
"467.3 24.576 LINE",
"510.449 -2.707 LINE",
"537.968 40.292 LINE",
"567.107 27.265 LINE",
"579.004 56.884 LINE",
"618.977 50.634 LINE",
"629.558 89.684 LINE",
"678.883 101.13 LINE",
"680.151 151.75 LINE",
"708.695 166.172 LINE",
"698.339 196.429 LINE",
"722.517 216.373 LINE",
"707.407 243.832 LINE",
"747.19 272.982 LINE",
"709 304.189 LINE",
"729 332.378 LINE",
"709 360.568 LINE",
"742.777 400.969 LINE",
"708.555 440.995 LINE",
"730.432 486.474 LINE",
"691.712 518.843 LINE",
"710.289 550.7 LINE",
"673.603 554.45 LINE",
"670.027 601.981 LINE",
"623.198 610.869 LINE",
"602.944 655.174 LINE",
"554.396 651.152 LINE",
"539.21 681.493 LINE",
"508.882 666.284 LINE",
"486.507 698.938 LINE",
"453.868 676.54 LINE",
"429.571 703.187 LINE",
"402.002 679.942 LINE",
"374.041 717.971 LINE",
"346 680 LINE",
"316 710 LINE",
"286 680 LINE",
"254 712 LINE",
"222 680 LINE",
"196 707 LINE",
"170 680 LINE",
"127.265 706.744 LINE",
"99 665 LINE",
"66 623 LINE",
"99 581 LINE",
"72 543 LINE",
"99 505 LINE",
"60 479 LINE",
"99 453 LINE",
"59.191 442.275 LINE",
"83.533 409 LINE",
"46.247 419.258 LINE",
"34 382.577 LINE",
"9 345.673 LINE",
"34 308.769 LINE",
"59.631 271.155 LINE",
"99 294 LINE",
"69 260.127 LINE",
"99 226.254 LINE",
"73 204.336 LINE",
"99 182.418 LINE",
"64 158.507 LINE",
"99 134.597 LINE",
"65 102.716 LINE",
"99 70.836 LINE",
"76 50.91 LINE",
"99 30.985 LINE"
);
},
{
closed = 1;
nodes = (
"324.19 194.833 LINE",
"309 214.667 LINE",
"322.72 234.5 LINE",
"309 254.333 LINE",
"327.13 274.167 LINE",
"309 294 LINE",
"329 277.83 LINE",
"349 294 LINE",
"370.359 277.381 LINE",
"390 296 LINE",
"404.703 315.295 LINE",
"392 335.962 LINE",
"409.15 355.385 LINE",
"392 374.808 LINE",
"401.427 396.706 LINE",
"381 409 LINE",
"361 420.76 LINE",
"341 409 LINE",
"329.041 429.163 LINE",
"309 417 LINE",
"325.17 437 LINE",
"309 457 LINE",
"327.62 477 LINE",
"309 497 LINE",
"326.567 506.127 LINE",
"320.591 525 LINE",
"339.909 513.73 LINE",
"359.227 525 LINE",
"378.607 515.172 LINE",
"398.016 524.944 LINE",
"414.286 504.658 LINE",
"437.157 517.031 LINE",
"444.405 493.709 LINE",
"468.818 493.037 LINE",
"463.4 468.576 LINE",
"485.553 456.875 LINE",
"469.214 435.351 LINE",
"489 416.946 LINE",
"477.73 396.811 LINE",
"489 376.676 LINE",
"473.81 356.541 LINE",
"489 336.405 LINE",
"472.34 316.27 LINE",
"489 296.135 LINE",
"477.551 276.406 LINE",
"487.649 255.952 LINE",
"469.311 240.935 LINE",
"475.181 217.971 LINE",
"454.359 210.312 LINE",
"447.732 189.138 LINE",
"424.701 194.614 LINE",
"410.043 176.024 LINE",
"390.047 190.207 LINE",
"370.818 175 LINE",
"351.5 190.68 LINE",
"332.182 175 LINE"
);
},
{
closed = 1;
nodes = (
"292.794 214.159 LINE",
"245.558 215.046 LINE",
"219.021 239.813 LINE",
"242.055 271.07 LINE",
"292.401 271.783 LINE"
);
},
{
closed = 1;
nodes = (
"666.649 293.69 LINE",
"624.557 238.582 LINE",
"547.264 236.815 LINE",
"536.316 325.5 LINE",
"614.019 338.842 LINE"
);
},
{
closed = 1;
nodes = (
"437.581 80.816 LINE",
"414.936 70.852 LINE",
"404.01 91.407 LINE",
"413.818 111.734 LINE",
"438.336 105.545 LINE"
);
},
{
closed = 1;
nodes = (
"272.034 504.718 LINE",
"242.657 494.321 LINE",
"227 520 LINE",
"243.584 542.825 LINE",
"263.944 529.405 LINE"
);
},
{
closed = 1;
nodes = (
"125.878 366.611 LINE",
"119.392 358.097 LINE",
"105.417 361.863 LINE",
"108.969 377.351 LINE",
"123.634 378.595 LINE"
);
},
{
closed = 1;
nodes = (
"241.989 415.657 LINE",
"218.202 407.077 LINE",
"206 428 LINE",
"219.747 444.168 LINE",
"245.225 442.695 LINE"
);
},
{
closed = 1;
nodes = (
"207.16 559.661 LINE",
"172.941 542.193 LINE",
"153.04 574.482 LINE",
"171.249 604.007 LINE",
"203.76 593.621 LINE"
);
},
{
closed = 1;
nodes = (
"195.871 309.963 LINE",
"169.424 289.51 LINE",
"143.887 291.255 LINE",
"138.856 320.906 LINE",
"167.399 330.385 LINE"
);
},
{
closed = 1;
nodes = (
"327.951 611.059 LINE",
"320.871 603.197 LINE",
"312.938 608.5 LINE",
"312.312 618.022 LINE",
"322.254 619.308 LINE"
);
},
{
closed = 1;
nodes = (
"604.286 558.819 LINE",
"594.748 558.526 LINE",
"592.012 569.384 LINE",
"601.696 569.951 LINE",
"605.924 565.868 LINE"
);
},
{
closed = 1;
nodes = (
"447.684 132.798 LINE",
"440 132.804 LINE",
"434.197 139.871 LINE",
"442.268 144.962 LINE",
"448.481 140.44 LINE"
);
},
{
closed = 1;
nodes = (
"618.177 444.687 LINE",
"581.164 444.733 LINE",
"565.272 472.897 LINE",
"586.228 507.408 LINE",
"617.723 482.145 LINE"
);
},
{
closed = 1;
nodes = (
"180.65 225.327 LINE",
"172 209.876 LINE",
"155.632 211.596 LINE",
"146.729 230.135 LINE",
"167.509 245.869 LINE"
);
},
{
closed = 1;
nodes = (
"151.998 653.721 LINE",
"141.847 634.874 LINE",
"120.436 643.102 LINE",
"117.631 667.842 LINE",
"142.837 673.856 LINE"
);
},
{
closed = 1;
nodes = (
"167.257 461.524 LINE",
"154.966 428.428 LINE",
"121.942 435.378 LINE",
"115.987 464.768 LINE",
"140.394 470.939 LINE"
);
},
{
closed = 1;
nodes = (
"472.905 642.821 LINE",
"453.174 622.589 LINE",
"430 634.184 LINE",
"426.868 663.37 LINE",
"456.987 666.172 LINE"
);
},
{
closed = 1;
nodes = (
"424.786 556.714 LINE",
"397.286 552.623 LINE",
"390.146 583.55 LINE",
"416.656 591.928 LINE",
"432.539 577.049 LINE"
);
},
{
closed = 1;
nodes = (
"577.709 139.643 LINE",
"568.412 134.341 LINE",
"560.015 143.424 LINE",
"567.058 154.269 LINE",
"577.217 149.035 LINE"
);
},
{
closed = 1;
nodes = (
"364.608 33.149 LINE",
"347.212 29.844 LINE",
"337.009 43.523 LINE",
"348.968 53.574 LINE",
"364.436 51.388 LINE"
);
},
{
closed = 1;
nodes = (
"266.762 76.632 LINE",
"249.396 60.056 LINE",
"232.564 78.403 LINE",
"238.282 103.353 LINE",
"269.641 105.215 LINE"
);
}
);
width = 766;
},
{
associatedMasterId = "EC64484B-0978-4CB1-9EE9-C40A2D8C4059";
background = {
paths = (
{
closed = 1;
nodes = (
"395 0 LINE SMOOTH",
"586 0 OFFCURVE",
"729 87 OFFCURVE",
"729 276 CURVE SMOOTH",
"729 326 OFFCURVE",
"729 375 OFFCURVE",
"729 425 CURVE SMOOTH",
"729 604 OFFCURVE",
"581 700 OFFCURVE",
"394 700 CURVE SMOOTH",
"106 700 LINE SMOOTH",
"91 700 OFFCURVE",
"79 688 OFFCURVE",
"79 673 CURVE SMOOTH",
"79 429 LINE",
"41 429 LINE",
"26 429 OFFCURVE",
"14 417 OFFCURVE",
"14 402 CURVE SMOOTH",
"14 301 LINE SMOOTH",
"14 286 OFFCURVE",
"26 274 OFFCURVE",
"41 274 CURVE SMOOTH",
"79 274 LINE",
"79 27 LINE SMOOTH",
"79 12 OFFCURVE",
"91 0 OFFCURVE",
"106 0 CURVE SMOOTH"
);
},
{
closed = 1;
nodes = (
"329 274 LINE",
"385 274 LINE SMOOTH",
"400 274 OFFCURVE",
"412 286 OFFCURVE",
"412 301 CURVE SMOOTH",
"412 402 LINE SMOOTH",
"412 417 OFFCURVE",
"400 429 OFFCURVE",
"385 429 CURVE SMOOTH",
"329 429 LINE",
"329 505 LINE",
"394 505 LINE SMOOTH",
"439 505 OFFCURVE",
"469 481 OFFCURVE",
"469 425 CURVE SMOOTH",
"469 375 OFFCURVE",
"469 326 OFFCURVE",
"469 276 CURVE SMOOTH",
"469 220 OFFCURVE",
"438 195 OFFCURVE",
"394 195 CURVE SMOOTH",
"329 195 LINE"
);
}
);
};
color = 6;
hints = (
{
horizontal = 1;
place = "{0, 0}";
type = Tag;
}
);
layerId = "E10E2D64-A579-4626-9078-3A9293C23AD9";
name = "Jul 23 21, 16:38";
paths = (
{
closed = 1;
nodes = (
"395 0 LINE SMOOTH",
"586 0 OFFCURVE",
"729 87 OFFCURVE",
"729 276 CURVE SMOOTH",
"729 326 OFFCURVE",
"729 375 OFFCURVE",
"729 425 CURVE SMOOTH",
"729 604 OFFCURVE",
"581 700 OFFCURVE",
"394 700 CURVE SMOOTH",
"106 700 LINE SMOOTH",
"91 700 OFFCURVE",
"79 688 OFFCURVE",
"79 673 CURVE SMOOTH",
"79 429 LINE",
"41 429 LINE",
"26 429 OFFCURVE",
"14 417 OFFCURVE",
"14 402 CURVE SMOOTH",
"14 301 LINE SMOOTH",
"14 286 OFFCURVE",
"26 274 OFFCURVE",
"41 274 CURVE SMOOTH",
"79 274 LINE",
"79 27 LINE SMOOTH",
"79 12 OFFCURVE",
"91 0 OFFCURVE",
"106 0 CURVE SMOOTH"
);
},
{
closed = 1;
nodes = (
"329 274 LINE",
"385 274 LINE SMOOTH",
"400 274 OFFCURVE",
"412 286 OFFCURVE",
"412 301 CURVE SMOOTH",
"412 402 LINE SMOOTH",
"412 417 OFFCURVE",
"400 429 OFFCURVE",
"385 429 CURVE SMOOTH",
"329 429 LINE",
"329 505 LINE",
"394 505 LINE SMOOTH",
"439 505 OFFCURVE",
"469 481 OFFCURVE",
"469 425 CURVE SMOOTH",
"469 375 OFFCURVE",
"469 326 OFFCURVE",
"469 276 CURVE SMOOTH",
"469 220 OFFCURVE",
"438 195 OFFCURVE",
"394 195 CURVE SMOOTH",
"329 195 LINE"
);
}
);
width = 766;
}
);
leftKerningGroup = I;
rightKerningGroup = D;
unicode = 00D0;
userData = {
com.typemytype.robofont.guides = (
{
angle = 0;
isGlobal = 0;
magnetic = 5;
x = 0;
y = 350;
}
);
};
},
{
color = 6;
glyphname = Dcroat;
layers = (
{
background = {
paths = (
{
closed = 1;
nodes = (
"395 0 LINE SMOOTH",
"586 0 OFFCURVE",
"720 87 OFFCURVE",
"728 276 CURVE SMOOTH",
"730 330 OFFCURVE",
"730 368 OFFCURVE",
"728 425 CURVE SMOOTH",
"721 604 OFFCURVE",
"581 700 OFFCURVE",
"394 700 CURVE",
"106 700 LINE SMOOTH",
"91 700 OFFCURVE",
"79 688 OFFCURVE",
"79 673 CURVE SMOOTH",
"79 430 LINE",
"41 430 LINE SMOOTH",
"26 430 OFFCURVE",
"14 418 OFFCURVE",
"14 403 CURVE SMOOTH",
"14 302 LINE SMOOTH",
"14 287 OFFCURVE",
"26 275 OFFCURVE",
"41 275 CURVE SMOOTH",
"79 275 LINE",
"79 27 LINE SMOOTH",
"79 12 OFFCURVE",
"91 0 OFFCURVE",
"106 0 CURVE SMOOTH"
);
},
{
closed = 1;
nodes = (
"329 275 LINE",
"385 275 LINE SMOOTH",
"400 275 OFFCURVE",
"412 287 OFFCURVE",
"412 302 CURVE SMOOTH",
"412 403 LINE SMOOTH",
"412 418 OFFCURVE",
"400 430 OFFCURVE",
"385 430 CURVE SMOOTH",
"329 430 LINE",
"329 505 LINE",
"394 505 LINE SMOOTH",
"439 505 OFFCURVE",
"471 481 OFFCURVE",
"474 425 CURVE SMOOTH",
"477 370 OFFCURVE",
"477 333 OFFCURVE",
"474 276 CURVE SMOOTH",
"471 220 OFFCURVE",
"438 195 OFFCURVE",
"394 195 CURVE SMOOTH",
"329 195 LINE"
);
}
);
};
hints = (
{
horizontal = 1;
place = "{0, 0}";
type = Tag;
}
);
layerId = "EC64484B-0978-4CB1-9EE9-C40A2D8C4059";
paths = (
{
closed = 1;
nodes = (
"135.692 -2 LINE",
"165.384 20 LINE",
"201.014 -11 LINE",
"236.644 20 LINE",
"264.356 -2 LINE",
"292.068 20 LINE",
"331.658 -16 LINE",
"371.247 20 LINE",
"393.401 -13.834 LINE",
"415.044 20.33 LINE",
"448.13 -11.814 LINE",
"474.894 25.757 LINE",
"506.655 12.439 LINE",
"529.587 38.135 LINE",
"565.296 19.077 LINE",
"577.882 57.546 LINE",
"613.371 54.628 LINE",
"624.603 88.419 LINE",
"671.527 83.388 LINE",
"662.41 129.692 LINE",
"701.99 142.857 LINE",
"690.151 182.854 LINE",
"728.872 215.397 LINE",
"706.984 260.996 LINE",
"728.075 288.633 LINE",
"709.196 317.826 LINE",
"748.131 352.614 LINE",
"709.066 387.256 LINE",
"740.17 412.795 LINE",
"707.316 436.04 LINE",
"740.516 468.016 LINE",
"698.747 487.511 LINE",
"717.88 532.439 LINE",
"672.444 550.333 LINE",
"685.974 590.599 LINE",
"643.532 588.83 LINE",
"650.415 629.634 LINE",
"610.626 618.268 LINE",
"607.784 659.838 LINE",
"569.511 643.367 LINE",
"545.037 681.946 LINE",
"501.582 667.839 LINE",
"482.479 709.8 LINE",
"450.161 676.919 LINE",
"415.147 703.437 LINE",
"378 680 LINE",
"340 706 LINE",
"302 680 LINE",
"264 704 LINE",
"226 680 LINE",
"200 709 LINE",
"174 680 LINE",
"150 714 LINE",
"126 680 LINE",
"92.717 665.091 LINE",
"99 629.167 LINE",
"71 599.28 LINE",
"99 569.394 LINE",
"62 543.492 LINE",
"99 517.591 LINE",
"79 481.727 LINE",
"99 445.864 LINE",
"65.386 443.329 LINE",
"60.333 410 LINE",
"33.349 400.517 LINE",
"34 371.923 LINE",
"-2 344.731 LINE",
"34 317.538 LINE",
"46.594 290.866 LINE",
"75.8 295 LINE",
"71.077 266.065 LINE",
"99 275 LINE",
"74 239 LINE",
"99 203 LINE",
"63 177 LINE",
"99 151 LINE",
"61 111 LINE",
"99 71 LINE"
);
},
{
closed = 1;
nodes = (
"320.27 195 LINE",
"309 215 LINE",
"323.7 235 LINE",
"309 255 LINE",
"327.13 275 LINE",
"309 295 LINE",
"329 283.73 LINE",
"349 295 LINE",
"370.288 279.849 LINE",
"390 297 LINE",
"402.256 316.417 LINE",
"392 336.962 LINE",
"406.21 356.385 LINE",
"392 375.808 LINE",
"395.829 395.905 LINE",
"381 410 LINE",
"361 427.64 LINE",
"341 410 LINE",
"329.126 430.612 LINE",
"309 417.931 LINE",
"325.17 437.759 LINE",
"309 457.586 LINE",
"319.29 477.414 LINE",
"309 497.241 LINE",
"328.36 505.457 LINE",
"320.591 525 LINE",
"339.909 511.28 LINE",
"359.227 525 LINE",
"378.614 507.331 LINE",
"398.053 524.943 LINE",
"414.655 505.138 LINE",
"437.59 517.047 LINE",
"446.429 494.975 LINE",
"470.165 493.575 LINE",
"463.893 467.564 LINE",
"488.862 457.945 LINE",
"481.453 436.48 LINE",
"494.429 417.844 LINE",
"481.975 396.945 LINE",
"495.962 377.041 LINE",
"482.334 356.564 LINE",
"496.145 336.21 LINE",
"485.758 316.086 LINE",
"494.964 295.394 LINE",
"475.723 276.55 LINE",
"491.645 254.828 LINE",
"472.988 240.328 LINE",
"477.217 217.081 LINE",
"450.146 215.91 LINE",
"448.478 188.865 LINE",
"424.355 197.304 LINE",
"410.218 176.015 LINE",
"390.152 189.713 LINE",
"370.818 175 LINE",
"351.5 186.76 LINE",
"332.182 175 LINE"
);
},
{
closed = 1;
nodes = (
"188.841 143.8 LINE",
"179.419 98.937 LINE",
"140.896 116.348 LINE",
"130.793 144.676 LINE",
"157.989 172.948 LINE"
);
},
{
closed = 1;
nodes = (
"253.569 237.967 LINE",
"235.17 224.08 LINE",
"224.333 242.076 LINE",
"231.335 254.429 LINE",
"250.121 260.094 LINE"
);
},
{
closed = 1;
nodes = (
"619.48 417.786 LINE",
"570.124 440.931 LINE",
"569.47 485.077 LINE",
"613.306 519.366 LINE",
"650.876 469.558 LINE"
);
},
{
closed = 1;
nodes = (
"127.822 471.113 LINE",
"114.368 472.664 LINE",
"113.288 486.164 LINE",
"124.389 488.878 LINE",
"130.922 482.113 LINE"
);
},
{
closed = 1;
nodes = (
"350.357 91.322 LINE",
"321.24 55.321 LINE",
"282.467 82.363 LINE",
"290.084 125.791 LINE",
"337.332 136.483 LINE"
);
},
{
closed = 1;
nodes = (
"517.507 152.81 LINE",
"510.403 156.527 LINE",
"508.702 162.817 LINE",
"515.042 165.909 LINE",
"522.912 161.253 LINE"
);
},
{
closed = 1;
nodes = (
"273.725 393.224 LINE",
"241.729 399.366 LINE",
"245.775 431.695 LINE",
"274.034 441.727 LINE",
"291 417 LINE"
);
},
{
closed = 1;
nodes = (
"597.659 154.412 LINE",
"588.733 143.019 LINE",
"575.863 152.341 LINE",
"578.56 168.657 LINE",
"593.991 166.225 LINE"
);
},
{
closed = 1;
nodes = (
"453.433 111.396 LINE",
"430.759 114.285 LINE",
"418.538 132.724 LINE",
"437.606 143.939 LINE",
"461.092 137.378 LINE"
);
},
{
closed = 1;
nodes = (
"212.797 359.868 LINE",
"191.456 321.285 LINE",
"150.733 333.25 LINE",
"150.885 370.5 LINE",
"183.693 392.191 LINE"
);
},
{
closed = 1;
nodes = (
"573.143 343.305 LINE",
"558.851 336.359 LINE",
"545.065 348.518 LINE",
"552.232 373.013 LINE",
"574.83 361.153 LINE"
);
},
{
closed = 1;
nodes = (
"241.226 491.515 LINE",
"166.675 505.933 LINE",
"172.205 577.616 LINE",
"229.37 594.604 LINE",
"257.903 551.79 LINE"
);
},
{
closed = 1;
nodes = (
"277.912 178.511 LINE",
"249.492 157.456 LINE",
"214.422 152.86 LINE",
"215.711 192.427 LINE",
"249.742 207.049 LINE"
);
},
{
closed = 1;
nodes = (
"318.951 378.059 LINE",
"311.247 373.131 LINE",
"305.67 376.5 LINE",
"304.798 383.684 LINE",
"312.847 385.395 LINE"
);
},
{
closed = 1;
nodes = (
"456.854 631.502 LINE",
"438.023 610.017 LINE",
"416.891 631.66 LINE",
"426.139 657.068 LINE",
"453.16 656.124 LINE"
);
},
{
closed = 1;
nodes = (
"657.959 249.644 LINE",
"639.759 237.602 LINE",
"635.032 258.907 LINE",
"645.097 269.644 LINE",
"659.873 265.419 LINE"
);
},
{
closed = 1;
nodes = (
"381.232 625.708 LINE",
"360.229 625.362 LINE",
"366.351 645.456 LINE",
"380.508 649.476 LINE",
"391.998 638.262 LINE"
);
},
{
closed = 1;
nodes = (
"642.867 303.529 LINE",
"612.785 304.359 LINE",
"618.887 333.068 LINE",
"642.5 353.079 LINE",
"660.937 324.814 LINE"
);
},
{
closed = 1;
nodes = (
"502.507 532.81 LINE",
"494.684 535.832 LINE",
"493.702 542.817 LINE",
"500.389 547.878 LINE",
"509.893 541.531 LINE"
);
},
{
closed = 1;
nodes = (
"380.411 550.826 LINE",
"359.046 544.046 LINE",
"343.272 549.748 LINE",
"348.159 567.321 LINE",
"366.756 570.572 LINE"
);
}
);
width = 764;
},
{
associatedMasterId = "EC64484B-0978-4CB1-9EE9-C40A2D8C4059";
background = {
paths = (
{
closed = 1;
nodes = (
"395 0 LINE SMOOTH",
"586 0 OFFCURVE",
"720 87 OFFCURVE",
"728 276 CURVE SMOOTH",
"730 330 OFFCURVE",
"730 368 OFFCURVE",
"728 425 CURVE SMOOTH",
"721 604 OFFCURVE",
"581 700 OFFCURVE",
"394 700 CURVE",
"106 700 LINE SMOOTH",
"91 700 OFFCURVE",
"79 688 OFFCURVE",
"79 673 CURVE SMOOTH",
"79 430 LINE",
"41 430 LINE SMOOTH",
"26 430 OFFCURVE",
"14 418 OFFCURVE",
"14 403 CURVE SMOOTH",
"14 302 LINE SMOOTH",
"14 287 OFFCURVE",
"26 275 OFFCURVE",
"41 275 CURVE SMOOTH",
"79 275 LINE",
"79 27 LINE SMOOTH",
"79 12 OFFCURVE",
"91 0 OFFCURVE",
"106 0 CURVE SMOOTH"
);
},
{
closed = 1;
nodes = (
"329 275 LINE",
"385 275 LINE SMOOTH",
"400 275 OFFCURVE",
"412 287 OFFCURVE",
"412 302 CURVE SMOOTH",
"412 403 LINE SMOOTH",
"412 418 OFFCURVE",
"400 430 OFFCURVE",
"385 430 CURVE SMOOTH",
"329 430 LINE",
"329 505 LINE",
"394 505 LINE SMOOTH",
"439 505 OFFCURVE",
"471 481 OFFCURVE",
"474 425 CURVE SMOOTH",
"477 370 OFFCURVE",
"477 333 OFFCURVE",
"474 276 CURVE SMOOTH",
"471 220 OFFCURVE",
"438 195 OFFCURVE",
"394 195 CURVE SMOOTH",
"329 195 LINE"
);
}
);
};
color = 6;
hints = (
{
horizontal = 1;
place = "{0, 0}";
type = Tag;
}
);
layerId = "26281995-AD15-49F5-97C2-63F740351858";
name = "Jul 23 21, 16:38";
paths = (
{
closed = 1;
nodes = (
"395 0 LINE SMOOTH",
"586 0 OFFCURVE",
"720 87 OFFCURVE",
"728 276 CURVE SMOOTH",
"730 330 OFFCURVE",
"730 368 OFFCURVE",
"728 425 CURVE SMOOTH",
"721 604 OFFCURVE",
"581 700 OFFCURVE",
"394 700 CURVE",
"106 700 LINE SMOOTH",
"91 700 OFFCURVE",
"79 688 OFFCURVE",
"79 673 CURVE SMOOTH",
"79 430 LINE",
"41 430 LINE SMOOTH",
"26 430 OFFCURVE",
"14 418 OFFCURVE",
"14 403 CURVE SMOOTH",
"14 302 LINE SMOOTH",
"14 287 OFFCURVE",
"26 275 OFFCURVE",
"41 275 CURVE SMOOTH",
"79 275 LINE",
"79 27 LINE SMOOTH",
"79 12 OFFCURVE",
"91 0 OFFCURVE",
"106 0 CURVE SMOOTH"
);
},
{
closed = 1;
nodes = (
"329 275 LINE",
"385 275 LINE SMOOTH",
"400 275 OFFCURVE",
"412 287 OFFCURVE",
"412 302 CURVE SMOOTH",
"412 403 LINE SMOOTH",
"412 418 OFFCURVE",
"400 430 OFFCURVE",
"385 430 CURVE SMOOTH",
"329 430 LINE",
"329 505 LINE",
"394 505 LINE SMOOTH",
"439 505 OFFCURVE",
"471 481 OFFCURVE",
"474 425 CURVE SMOOTH",
"477 370 OFFCURVE",
"477 333 OFFCURVE",
"474 276 CURVE SMOOTH",
"471 220 OFFCURVE",
"438 195 OFFCURVE",
"394 195 CURVE SMOOTH",
"329 195 LINE"
);
}
);
width = 764;
}
);
leftKerningGroup = I;
rightKerningGroup = D;
unicode = 0110;
userData = {
com.typemytype.robofont.guides = (
{
angle = 0;
isGlobal = 0;
magnetic = 5;
x = 0;
y = 352;
},
{
angle = 90;
isGlobal = 0;
magnetic = 5;
x = 340;
y = 0;
},
{
angle = 90;
isGlobal = 0;
magnetic = 5;
x = 105;
y = 0;
}
);
};
},
{
color = 6;
glyphname = E;
layers = (
{
anchors = (
{
name = bottom;
position = "{334, 0}";
},
{
name = ogonek;
position = "{626, 122}";
},
{
name = top;
position = "{334, 700}";
},
{
name = topleft;
position = "{20, 700}";
}
);
background = {
anchors = (
{
name = bottom;
position = "{334, 0}";
},
{
name = ogonek;
position = "{626, 122}";
},
{
name = top;
position = "{334, 700}";
},
{
name = topleft;
position = "{20, 700}";
}
);
paths = (
{
closed = 1;
nodes = (
"603 0 LINE SMOOTH",
"618 0 OFFCURVE",
"630 12 OFFCURVE",
"630 27 CURVE SMOOTH",
"630 168 LINE SMOOTH",
"630 183 OFFCURVE",
"618 195 OFFCURVE",
"603 195 CURVE SMOOTH",
"295 195 LINE",
"295 258 LINE",
"573 258 LINE SMOOTH",
"588 258 OFFCURVE",
"600 270 OFFCURVE",
"600 285 CURVE SMOOTH",
"600 415 LINE SMOOTH",
"600 430 OFFCURVE",
"588 442 OFFCURVE",
"573 442 CURVE SMOOTH",
"295 442 LINE",
"295 505 LINE",
"595 505 LINE SMOOTH",
"610 505 OFFCURVE",
"622 517 OFFCURVE",
"622 532 CURVE SMOOTH",
"622 673 LINE SMOOTH",
"622 688 OFFCURVE",
"610 700 OFFCURVE",
"595 700 CURVE SMOOTH",
"82 700 LINE SMOOTH",
"67 700 OFFCURVE",
"55 688 OFFCURVE",
"55 673 CURVE SMOOTH",
"55 27 LINE SMOOTH",
"55 12 OFFCURVE",
"67 0 OFFCURVE",
"82 0 CURVE SMOOTH"
);
}
);
};
layerId = "EC64484B-0978-4CB1-9EE9-C40A2D8C4059";
paths = (
{
closed = 1;
nodes = (
"113.817 -1 LINE",
"145.634 20 LINE",
"177.45 -10 LINE",
"209.267 20 LINE",
"243.073 -14 LINE",
"276.878 20 LINE",
"308.695 -18 LINE",
"340.511 20 LINE",
"372.328 -17 LINE",
"404.145 20 LINE",
"431.985 -2 LINE",
"459.824 20 LINE",
"493.63 -1 LINE",
"527.435 20 LINE",
"568.239 0.006 LINE",
"608 22 LINE",
"635.98 46.962 LINE",
"610 74 LINE",
"642 101.417 LINE",
"610 128.833 LINE",
"637.574 159.797 LINE",
"599 175 LINE",
"561 195.3 LINE",
"523 175 LINE",
"495 200.2 LINE",
"467 175 LINE",
"429 190.4 LINE",
"391 175 LINE",
"361 191.8 LINE",
"331 175 LINE",
"303 202.3 LINE",
"275 175 LINE",
"301 198.769 LINE",
"275 222.538 LINE",
"311 246.308 LINE",
"275 270.077 LINE",
"309.643 251.116 LINE",
"338.573 278 LINE",
"370.36 252.1 LINE",
"402.147 278 LINE",
"422.013 250.7 LINE",
"441.88 278 LINE",
"467.707 259.1 LINE",
"493.533 278 LINE",
"513.4 259.1 LINE",
"533.267 278 LINE",
"564.477 267.929 LINE",
"580 296.818 LINE",
"602 328.333 LINE",
"580 359.848 LINE",
"596.374 393.163 LINE",
"573 422 LINE",
"537.24 436 LINE",
"501.48 422 LINE",
"465.72 443 LINE",
"429.96 422 LINE",
"396.187 436 LINE",
"362.413 422 LINE",
"324.667 448.6 LINE",
"286.92 422 LINE",
"308.531 460.553 LINE",
"275 489.346 LINE",
"313.192 488.067 LINE",
"323 525 LINE",
"365 503.3 LINE",
"407 525 LINE",
"435 498.4 LINE",
"463 525 LINE",
"501 500.5 LINE",
"539 525 LINE",
"578.772 506.58 LINE",
"602 543.75 LINE",
"640 575.083 LINE",
"602 606.417 LINE",
"629.15 648.077 LINE",
"591.023 680 LINE",
"561.198 717 LINE",
"531.372 680 LINE",
"495.581 701 LINE",
"459.791 680 LINE",
"433.942 712 LINE",
"408.093 680 LINE",
"384.233 704 LINE",
"360.372 680 LINE",
"326.57 715 LINE",
"292.767 680 LINE",
"270.895 713 LINE",
"249.023 680 LINE",
"223.174 710 LINE",
"197.326 680 LINE",
"165.512 717 LINE",
"133.698 680 LINE",
"97.497 677.542 LINE",
"75 649.074 LINE",
"49 629.136 LINE",
"75 609.198 LINE",
"42 573.309 LINE",
"75 537.42 LINE",
"36 509.506 LINE",
"75 481.593 LINE",
"47 439.722 LINE",
"75 397.852 LINE",
"38 373.926 LINE",
"75 350 LINE",
"38 316.105 LINE",
"75 282.21 LINE",
"37 254.296 LINE",
"75 226.383 LINE",
"37 188.5 LINE",
"75 150.617 LINE",
"47 124.698 LINE",
"75 98.778 LINE",
"41 64.883 LINE",
"75 30.988 LINE"
);
},
{
closed = 1;
nodes = (
"478.84 70.034 LINE",
"474.172 51.962 LINE",
"457.515 59.515 LINE",
"455.308 73.448 LINE",
"468.503 83.803 LINE"
);
},
{
closed = 1;
nodes = (
"158.509 120.885 LINE",
"139.986 117.619 LINE",
"119.272 135.897 LINE",
"143.874 149.727 LINE",
"170.84 144.676 LINE"
);
},
{
closed = 1;
nodes = (
"446 322 LINE",
"438.017 309.636 LINE",
"422.674 313.771 LINE",
"425.101 328.466 LINE",
"438.944 337.217 LINE"
);
},
{
closed = 1;
nodes = (
"300.475 566.884 LINE",
"273.668 557.003 LINE",
"252.005 569.275 LINE",
"261.381 594.021 LINE",
"287.24 593.57 LINE"
);
},
{
closed = 1;
nodes = (
"234.412 342.251 LINE",
"177.875 343.183 LINE",
"170.087 404.413 LINE",
"227.982 447.952 LINE",
"271.455 387.794 LINE"
);
},
{
closed = 1;
nodes = (
"249.883 62.67 LINE",
"242.384 52.012 LINE",
"226.491 49.885 LINE",
"229.171 65.695 LINE",
"240.084 72.818 LINE"
);
},
{
closed = 1;
nodes = (
"213.034 158.86 LINE",
"182.017 168.008 LINE",
"173.647 204.062 LINE",
"208.953 207.216 LINE",
"234.956 186.675 LINE"
);
},
{
closed = 1;
nodes = (
"318.762 146.663 LINE",
"304.756 148.996 LINE",
"308.368 161.474 LINE",
"317.205 164.69 LINE",
"327.992 157.454 LINE"
);
},
{
closed = 1;
nodes = (
"373.472 346.617 LINE",
"354.778 353.416 LINE",
"342.144 369.837 LINE",
"362.349 382.997 LINE",
"379.213 368.263 LINE"
);
},
{
closed = 1;
nodes = (
"208.198 530.468 LINE",
"184.511 501.088 LINE",
"149.549 523.889 LINE",
"158.86 564.578 LINE",
"198.957 564.138 LINE"
);
},
{
closed = 1;
nodes = (
"500.157 299.196 LINE",
"490.903 294.067 LINE",
"483.165 301.283 LINE",
"489.091 308.248 LINE",
"496.774 308.119 LINE"
);
},
{
closed = 1;
nodes = (
"548.814 627.953 LINE",
"528.961 605.478 LINE",
"507.382 621.789 LINE",
"512.298 641.912 LINE",
"530.339 644.595 LINE"
);
},
{
closed = 1;
nodes = (
"301.18 632.912 LINE",
"292.858 631.872 LINE",
"288.728 641.746 LINE",
"298.419 643.985 LINE",
"307.703 640.419 LINE"
);
},
{
closed = 1;
nodes = (
"197.314 615.12 LINE",
"163.966 607.86 LINE",
"154.027 635.047 LINE",
"168.565 654.284 LINE",
"194.128 647.071 LINE"
);
},
{
closed = 1;
nodes = (
"230.404 250.632 LINE",
"214.306 247.21 LINE",
"198.121 262.3 LINE",
"215.426 281.519 LINE",
"240.785 272 LINE"
);
},
{
closed = 1;
nodes = (
"468.09 649.489 LINE",
"460.146 655.473 LINE",
"459.337 663.114 LINE",
"468.09 668.511 LINE",
"473 659 LINE"
);
},
{
closed = 1;
nodes = (
"138.888 441.172 LINE",
"126.671 429.257 LINE",
"104.758 432.334 LINE",
"107.91 458.004 LINE",
"133.72 463.845 LINE"
);
}
);
width = 667;
},
{
anchors = (
{
name = bottom;
position = "{334, 0}";
},
{
name = ogonek;
position = "{626, 122}";
},
{
name = top;
position = "{334, 700}";
},
{
name = topleft;
position = "{20, 700}";
}
);
associatedMasterId = "EC64484B-0978-4CB1-9EE9-C40A2D8C4059";
background = {
anchors = (
{
name = bottom;
position = "{334, 0}";
},
{
name = ogonek;
position = "{626, 122}";
},
{
name = top;
position = "{334, 700}";
},
{
name = topleft;
position = "{20, 700}";
}
);
paths = (
{
closed = 1;
nodes = (
"603 0 LINE SMOOTH",
"618 0 OFFCURVE",
"630 12 OFFCURVE",
"630 27 CURVE SMOOTH",
"630 168 LINE SMOOTH",
"630 183 OFFCURVE",
"618 195 OFFCURVE",
"603 195 CURVE SMOOTH",
"295 195 LINE",
"295 258 LINE",
"573 258 LINE SMOOTH",
"588 258 OFFCURVE",
"600 270 OFFCURVE",
"600 285 CURVE SMOOTH",
"600 415 LINE SMOOTH",
"600 430 OFFCURVE",
"588 442 OFFCURVE",
"573 442 CURVE SMOOTH",
"295 442 LINE",
"295 505 LINE",
"595 505 LINE SMOOTH",
"610 505 OFFCURVE",
"622 517 OFFCURVE",
"622 532 CURVE SMOOTH",
"622 673 LINE SMOOTH",
"622 688 OFFCURVE",
"610 700 OFFCURVE",
"595 700 CURVE SMOOTH",
"82 700 LINE SMOOTH",
"67 700 OFFCURVE",
"55 688 OFFCURVE",
"55 673 CURVE SMOOTH",
"55 27 LINE SMOOTH",
"55 12 OFFCURVE",
"67 0 OFFCURVE",
"82 0 CURVE SMOOTH"
);
}
);
};
color = 6;
layerId = "CCE4982F-9B86-4A26-893C-14B118A30386";
name = "Jul 23 21, 16:38";
paths = (
{
closed = 1;
nodes = (
"603 0 LINE SMOOTH",
"618 0 OFFCURVE",
"630 12 OFFCURVE",
"630 27 CURVE SMOOTH",
"630 168 LINE SMOOTH",
"630 183 OFFCURVE",
"618 195 OFFCURVE",
"603 195 CURVE SMOOTH",
"295 195 LINE",
"295 258 LINE",
"573 258 LINE SMOOTH",
"588 258 OFFCURVE",
"600 270 OFFCURVE",
"600 285 CURVE SMOOTH",
"600 415 LINE SMOOTH",
"600 430 OFFCURVE",
"588 442 OFFCURVE",
"573 442 CURVE SMOOTH",
"295 442 LINE",
"295 505 LINE",
"595 505 LINE SMOOTH",
"610 505 OFFCURVE",
"622 517 OFFCURVE",
"622 532 CURVE SMOOTH",
"622 673 LINE SMOOTH",
"622 688 OFFCURVE",
"610 700 OFFCURVE",
"595 700 CURVE SMOOTH",
"82 700 LINE SMOOTH",
"67 700 OFFCURVE",
"55 688 OFFCURVE",
"55 673 CURVE SMOOTH",
"55 27 LINE SMOOTH",
"55 12 OFFCURVE",
"67 0 OFFCURVE",
"82 0 CURVE SMOOTH"
);
}
);
width = 667;
}
);
leftKerningGroup = I;
rightKerningGroup = E;
unicode = 0045;
userData = {
com.typemytype.robofont.guides = (
{
angle = 0;
isGlobal = 0;
magnetic = 5;
x = 0;
y = 334;
},
{
angle = 0;
isGlobal = 0;
magnetic = 5;
x = 0;
y = 9;
},
{
angle = 0;
isGlobal = 0;
magnetic = 5;
x = 0;
y = 376;
},
{
angle = 0;
isGlobal = 0;
magnetic = 5;
x = 0;
y = 691;
},
{
angle = 0;
isGlobal = 0;
magnetic = 5;
x = 0;
y = 649;
},
{
angle = 90;
isGlobal = 0;
magnetic = 5;
x = 664;
y = 0;
},
{
angle = 90;
isGlobal = 0;
magnetic = 5;
x = 94;
y = 0;
},
{
angle = 90;
isGlobal = 0;
magnetic = 5;
x = 511;
y = 0;
}
);
};
},
{
color = 6;
glyphname = Eogonek;
layers = (
{
anchors = (
{
name = top;
position = "{334, 700}";
}
);
background = {
anchors = (
{
name = top;
position = "{334, 700}";
}
);
paths = (
{
closed = 1;
nodes = (
"603 -220 LINE SMOOTH",
"618 -220 OFFCURVE",
"630 -208 OFFCURVE",
"630 -193 CURVE SMOOTH",
"630 -125 LINE SMOOTH",
"630 -110 OFFCURVE",
"618 -98 OFFCURVE",
"603 -98 CURVE SMOOTH",
"593 -98 LINE SMOOTH",
"554 -98 OFFCURVE",
"543 -70 OFFCURVE",
"543 -49 CURVE SMOOTH",
"543 -28 OFFCURVE",
"554 0 OFFCURVE",
"593 0 CURVE SMOOTH",
"603 0 LINE SMOOTH",
"618 0 OFFCURVE",
"630 12 OFFCURVE",
"630 27 CURVE SMOOTH",
"630 168 LINE SMOOTH",
"630 183 OFFCURVE",
"618 195 OFFCURVE",
"603 195 CURVE SMOOTH",
"295 195 LINE",
"295 258 LINE",
"573 258 LINE SMOOTH",
"588 258 OFFCURVE",
"600 270 OFFCURVE",
"600 285 CURVE SMOOTH",
"600 415 LINE SMOOTH",
"600 430 OFFCURVE",
"588 442 OFFCURVE",
"573 442 CURVE SMOOTH",
"295 442 LINE",
"295 505 LINE",
"595 505 LINE SMOOTH",
"610 505 OFFCURVE",
"622 517 OFFCURVE",
"622 532 CURVE SMOOTH",
"622 673 LINE SMOOTH",
"622 688 OFFCURVE",
"610 700 OFFCURVE",
"595 700 CURVE SMOOTH",
"82 700 LINE SMOOTH",
"67 700 OFFCURVE",
"55 688 OFFCURVE",
"55 673 CURVE SMOOTH",
"55 27 LINE SMOOTH",
"55 12 OFFCURVE",
"67 0 OFFCURVE",
"82 0 CURVE SMOOTH",
"422 0 LINE",
"419 -16 OFFCURVE",
"417 -31 OFFCURVE",
"417 -49 CURVE SMOOTH",
"417 -144 OFFCURVE",
"468 -220 OFFCURVE",
"589 -220 CURVE SMOOTH"
);
}
);
};
hints = (
{
horizontal = 1;
place = "{0, 0}";
type = Tag;
}
);
layerId = "EC64484B-0978-4CB1-9EE9-C40A2D8C4059";
paths = (
{
closed = 1;
nodes = (
"622.91 -196.546 LINE",
"610 -165 LINE",
"608.515 -133.049 LINE",
"580.753 -117.164 LINE",
"574.379 -67.714 LINE",
"524.58 -65.277 LINE",
"549.232 -44.892 LINE",
"528.022 -20.946 LINE",
"576.285 -30.757 LINE",
"576.714 18.491 LINE",
"606.296 -9.96 LINE",
"610 30.917 LINE",
"630 70.083 LINE",
"610 109.25 LINE",
"636 134.708 LINE",
"610 160.167 LINE",
"581.904 191.992 LINE",
"543 175 LINE",
"515 201.6 LINE",
"487 175 LINE",
"455 200.2 LINE",
"423 175 LINE",
"393 200.2 LINE",
"363 175 LINE",
"329 194.6 LINE",
"295 175 LINE",
"312.28 212.568 LINE",
"275 230.462 LINE",
"302.531 246.449 LINE",
"306.787 278 LINE",
"330.627 256.3 LINE",
"354.467 278 LINE",
"374.333 257 LINE",
"394.2 278 LINE",
"429.96 253.5 LINE",
"465.72 278 LINE",
"495.52 255.6 LINE",
"525.32 278 LINE",
"552.643 253.119 LINE",
"578 280 LINE",
"613.981 308.913 LINE",
"580 340.152 LINE",
"615 363.788 LINE",
"580 387.424 LINE",
"570.388 415.685 LINE",
"541.213 422 LINE",
"517.373 443.7 LINE",
"493.533 422 LINE",
"467.707 440.9 LINE",
"441.88 422 LINE",
"420.027 436.7 LINE",
"398.173 422 LINE",
"376.32 446.5 LINE",
"354.467 422 LINE",
"328.64 442.3 LINE",
"302.813 422 LINE",
"305.733 453.574 LINE",
"275 445.769 LINE",
"309 475.481 LINE",
"275 505.192 LINE",
"310.47 493.978 LINE",
"331 525 LINE",
"371 511 LINE",
"411 525 LINE",
"445 508.2 LINE",
"479 525 LINE",
"519 504 LINE",
"559 525 LINE",
"588.66 520.852 LINE",
"602 547.667 LINE",
"631 580.958 LINE",
"602 614.25 LINE",
"623 635.792 LINE",
"602 657.333 LINE",
"588.081 688.194 LINE",
"555.233 680 LINE",
"525.407 711 LINE",
"495.581 680 LINE",
"457.802 703 LINE",
"420.023 680 LINE",
"380.256 703 LINE",
"340.488 680 LINE",
"314.64 708 LINE",
"288.791 680 LINE",
"254.988 711 LINE",
"221.186 680 LINE",
"181.419 719 LINE",
"141.651 680 LINE",
"101.033 689.704 LINE",
"75 657.049 LINE",
"40 635.117 LINE",
"75 613.185 LINE",
"38 585.272 LINE",
"75 557.358 LINE",
"39 533.432 LINE",
"75 509.506 LINE",
"51 477.605 LINE",
"75 445.704 LINE",
"55 421.778 LINE",
"75 397.852 LINE",
"43 373.926 LINE",
"75 350 LINE",
"51 320.093 LINE",
"75 290.185 LINE",
"41 254.296 LINE",
"75 218.407 LINE",
"36 182.519 LINE",
"75 146.63 LINE",
"45 114.728 LINE",
"75 82.827 LINE",
"69.75 43.439 LINE",
"101.837 20 LINE",
"125.641 -4 LINE",
"149.446 20 LINE",
"189.12 -16 LINE",
"228.793 20 LINE",
"264.5 -5 LINE",
"300.207 20 LINE",
"339.88 -2 LINE",
"379.554 20 LINE",
"399.391 -11 LINE",
"419.228 20 LINE",
"403.814 -13.066 LINE",
"440.285 -12.192 LINE",
"403.256 -41.346 LINE",
"438.184 -72.987 LINE",
"432.625 -116.97 LINE",
"464.745 -147.527 LINE",
"477.095 -186.913 LINE",
"518.359 -187.985 LINE",
"535.243 -231.671 LINE",
"569 -199.204 LINE"
);
},
{
closed = 1;
nodes = (
"211.301 440.012 LINE",
"172.959 398.487 LINE",
"121.06 426.081 LINE",
"143.771 471.019 LINE",
"182.901 479.786 LINE"
);
},
{
closed = 1;
nodes = (
"400.981 658.442 LINE",
"395.419 649.297 LINE",
"384.52 653.701 LINE",
"386.872 664.142 LINE",
"395.997 666.417 LINE"
);
},
{
closed = 1;
nodes = (
"211.58 226.16 LINE",
"173.342 212.846 LINE",
"151.38 252.428 LINE",
"182.359 290.332 LINE",
"221.786 263.901 LINE"
);
},
{
closed = 1;
nodes = (
"206.139 615.362 LINE",
"180.43 625.76 LINE",
"180.798 651.045 LINE",
"204.14 659.082 LINE",
"215.997 639.314 LINE"
);
},
{
closed = 1;
nodes = (
"536.703 352.899 LINE",
"520.7 337.121 LINE",
"497.568 353.594 LINE",
"510 381.517 LINE",
"535.044 372.377 LINE"
);
},
{
closed = 1;
nodes = (
"406.446 122.613 LINE",
"395.336 124.006 LINE",
"391.664 134.584 LINE",
"401.523 140.986 LINE",
"409.693 133.329 LINE"
);
},
{
closed = 1;
nodes = (
"570.803 601.497 LINE",
"557.347 589.185 LINE",
"543.417 598.098 LINE",
"547.929 611.071 LINE",
"561.81 617.365 LINE"
);
},
{
closed = 1;
nodes = (
"405.222 531.416 LINE",
"392.264 532.808 LINE",
"390.35 543.339 LINE",
"397.878 547.999 LINE",
"404.619 543.279 LINE"
);
},
{
closed = 1;
nodes = (
"127.301 573.322 LINE",
"112.209 566.002 LINE",
"96.872 572.791 LINE",
"105.982 585.986 LINE",
"122.898 593.564 LINE"
);
},
{
closed = 1;
nodes = (
"340.568 80.489 LINE",
"279.848 35.01 LINE",
"218.84 81.996 LINE",
"248.88 146.873 LINE",
"308.082 136.939 LINE"
);
},
{
closed = 1;
nodes = (
"494.235 109.18 LINE",
"479.408 112.71 LINE",
"474.426 124.032 LINE",
"484.442 136.99 LINE",
"493.457 124.078 LINE"
);
}
);
width = 667;
},
{
anchors = (
{
name = top;
position = "{334, 700}";
}
);
associatedMasterId = "EC64484B-0978-4CB1-9EE9-C40A2D8C4059";
background = {
anchors = (
{
name = top;
position = "{334, 700}";
}
);
paths = (
{
closed = 1;
nodes = (
"603 -220 LINE SMOOTH",
"618 -220 OFFCURVE",
"630 -208 OFFCURVE",
"630 -193 CURVE SMOOTH",
"630 -125 LINE SMOOTH",
"630 -110 OFFCURVE",
"618 -98 OFFCURVE",
"603 -98 CURVE SMOOTH",
"593 -98 LINE SMOOTH",
"554 -98 OFFCURVE",
"543 -70 OFFCURVE",
"543 -49 CURVE SMOOTH",
"543 -28 OFFCURVE",
"554 0 OFFCURVE",
"593 0 CURVE SMOOTH",
"603 0 LINE SMOOTH",
"618 0 OFFCURVE",
"630 12 OFFCURVE",
"630 27 CURVE SMOOTH",
"630 168 LINE SMOOTH",
"630 183 OFFCURVE",
"618 195 OFFCURVE",
"603 195 CURVE SMOOTH",
"295 195 LINE",
"295 258 LINE",
"573 258 LINE SMOOTH",
"588 258 OFFCURVE",
"600 270 OFFCURVE",
"600 285 CURVE SMOOTH",
"600 415 LINE SMOOTH",
"600 430 OFFCURVE",
"588 442 OFFCURVE",
"573 442 CURVE SMOOTH",
"295 442 LINE",
"295 505 LINE",
"595 505 LINE SMOOTH",
"610 505 OFFCURVE",
"622 517 OFFCURVE",
"622 532 CURVE SMOOTH",
"622 673 LINE SMOOTH",
"622 688 OFFCURVE",
"610 700 OFFCURVE",
"595 700 CURVE SMOOTH",
"82 700 LINE SMOOTH",
"67 700 OFFCURVE",
"55 688 OFFCURVE",
"55 673 CURVE SMOOTH",
"55 27 LINE SMOOTH",
"55 12 OFFCURVE",
"67 0 OFFCURVE",
"82 0 CURVE SMOOTH",
"422 0 LINE",
"419 -16 OFFCURVE",
"417 -31 OFFCURVE",
"417 -49 CURVE SMOOTH",
"417 -144 OFFCURVE",
"468 -220 OFFCURVE",
"589 -220 CURVE SMOOTH"
);
}
);
};
color = 6;
hints = (
{
horizontal = 1;
place = "{0, 0}";
type = Tag;
}
);
layerId = "E1D46AF7-AAC6-4DFB-8230-05F60452CB49";
name = "Jul 23 21, 16:38";
paths = (
{
closed = 1;
nodes = (
"603 -220 LINE SMOOTH",
"618 -220 OFFCURVE",
"630 -208 OFFCURVE",
"630 -193 CURVE SMOOTH",
"630 -125 LINE SMOOTH",
"630 -110 OFFCURVE",
"618 -98 OFFCURVE",
"603 -98 CURVE SMOOTH",
"593 -98 LINE SMOOTH",
"554 -98 OFFCURVE",
"543 -70 OFFCURVE",
"543 -49 CURVE SMOOTH",
"543 -28 OFFCURVE",
"554 0 OFFCURVE",
"593 0 CURVE SMOOTH",
"603 0 LINE SMOOTH",
"618 0 OFFCURVE",
"630 12 OFFCURVE",
"630 27 CURVE SMOOTH",
"630 168 LINE SMOOTH",
"630 183 OFFCURVE",
"618 195 OFFCURVE",
"603 195 CURVE SMOOTH",
"295 195 LINE",
"295 258 LINE",
"573 258 LINE SMOOTH",
"588 258 OFFCURVE",
"600 270 OFFCURVE",
"600 285 CURVE SMOOTH",
"600 415 LINE SMOOTH",
"600 430 OFFCURVE",
"588 442 OFFCURVE",
"573 442 CURVE SMOOTH",
"295 442 LINE",
"295 505 LINE",
"595 505 LINE SMOOTH",
"610 505 OFFCURVE",
"622 517 OFFCURVE",
"622 532 CURVE SMOOTH",
"622 673 LINE SMOOTH",
"622 688 OFFCURVE",
"610 700 OFFCURVE",
"595 700 CURVE SMOOTH",
"82 700 LINE SMOOTH",
"67 700 OFFCURVE",
"55 688 OFFCURVE",
"55 673 CURVE SMOOTH",
"55 27 LINE SMOOTH",
"55 12 OFFCURVE",
"67 0 OFFCURVE",
"82 0 CURVE SMOOTH",
"422 0 LINE",
"419 -16 OFFCURVE",
"417 -31 OFFCURVE",
"417 -49 CURVE SMOOTH",
"417 -144 OFFCURVE",
"468 -220 OFFCURVE",
"589 -220 CURVE SMOOTH"
);
}
);
width = 667;
}
);
leftKerningGroup = I;
rightKerningGroup = E;
unicode = 0118;
userData = {
com.typemytype.robofont.guides = (
{
angle = 90;
isGlobal = 0;
magnetic = 5;
x = 355;
y = 0;
}
);
};
},
{
color = 6;
glyphname = F;
layers = (
{
anchors = (
{
name = bottom;
position = "{323, 0}";
},
{
name = top;
position = "{323, 700}";
}
);
background = {
anchors = (
{
name = bottom;
position = "{323, 0}";
},
{
name = top;
position = "{323, 700}";
}
);
paths = (
{
closed = 1;
nodes = (
"273 0 LINE SMOOTH",
"288 0 OFFCURVE",
"300 12 OFFCURVE",
"300 27 CURVE SMOOTH",
"300 215 LINE",
"566 215 LINE SMOOTH",
"581 215 OFFCURVE",
"593 227 OFFCURVE",
"593 242 CURVE SMOOTH",
"593 393 LINE SMOOTH",
"593 408 OFFCURVE",
"581 420 OFFCURVE",
"566 420 CURVE SMOOTH",
"300 420 LINE",
"300 494 LINE",
"586 494 LINE SMOOTH",
"601 494 OFFCURVE",
"613 506 OFFCURVE",
"613 521 CURVE SMOOTH",
"613 673 LINE SMOOTH",
"613 688 OFFCURVE",
"601 700 OFFCURVE",
"586 700 CURVE SMOOTH",
"82 700 LINE SMOOTH",
"67 700 OFFCURVE",
"55 688 OFFCURVE",
"55 673 CURVE SMOOTH",
"55 27 LINE SMOOTH",
"55 12 OFFCURVE",
"67 0 OFFCURVE",
"82 0 CURVE SMOOTH"
);
}
);
};
hints = (
{
horizontal = 1;
place = "{0, 0}";
type = Tag;
}
);
layerId = "EC64484B-0978-4CB1-9EE9-C40A2D8C4059";
paths = (
{
closed = 1;
nodes = (
"115.823 -1 LINE",
"149.646 20 LINE",
"175.51 -16 LINE",
"201.375 20 LINE",
"229.229 -14 LINE",
"257.083 20 LINE",
"288.974 36.319 LINE",
"280 71 LINE",
"310 107 LINE",
"280 143 LINE",
"316 185 LINE",
"280 227 LINE",
"311.223 207.245 LINE",
"335.611 235 LINE",
"363.417 199 LINE",
"391.222 235 LINE",
"432.931 198 LINE",
"474.639 235 LINE",
"510.389 208 LINE",
"546.139 235 LINE",
"575.349 249.299 LINE",
"573 281.737 LINE",
"600 313.526 LINE",
"573 345.316 LINE",
"598 365.184 LINE",
"573 385.053 LINE",
"542.075 413.07 LINE",
"502.444 400 LINE",
"466.694 423.8 LINE",
"430.944 400 LINE",
"391.222 424.5 LINE",
"351.5 400 LINE",
"315.75 423.8 LINE",
"280 400 LINE",
"302 435.379 LINE",
"280 470.759 LINE",
"316.223 477.21 LINE",
"315.766 514 LINE",
"337.623 488.8 LINE",
"359.481 514 LINE",
"397.234 486.7 LINE",
"434.987 514 LINE",
"460.818 494.4 LINE",
"486.649 514 LINE",
"524.403 497.9 LINE",
"562.156 514 LINE",
"589.713 509.226 LINE",
"593 537 LINE",
"620 577 LINE",
"593 617 LINE",
"630 637 LINE",
"593 657 LINE",
"574.142 689.166 LINE",
"538 680 LINE",
"514 713 LINE",
"490 680 LINE",
"462 716 LINE",
"434 680 LINE",
"394 709 LINE",
"354 680 LINE",
"332 717 LINE",
"310 680 LINE",
"282 702 LINE",
"254 680 LINE",
"226 700 LINE",
"198 680 LINE",
"166 712 LINE",
"134 680 LINE",
"100.838 694.168 LINE",
"75 669.012 LINE",
"49 639.105 LINE",
"75 609.198 LINE",
"54 577.296 LINE",
"75 545.395 LINE",
"40 515.488 LINE",
"75 485.58 LINE",
"50 457.667 LINE",
"75 429.753 LINE",
"54 391.87 LINE",
"75 353.988 LINE",
"41 324.08 LINE",
"75 294.173 LINE",
"50 272.241 LINE",
"75 250.309 LINE",
"50 212.426 LINE",
"75 174.543 LINE",
"36 144.636 LINE",
"75 114.728 LINE",
"36 86.815 LINE",
"75 58.901 LINE"
);
},
{
closed = 1;
nodes = (
"231.715 264.435 LINE",
"193.829 227.939 LINE",
"142.843 225.543 LINE",
"150.555 276 LINE",
"191.227 311.82 LINE"
);
},
{
closed = 1;
nodes = (
"277.492 629.456 LINE",
"260.807 640.287 LINE",
"258.127 655.419 LINE",
"274.113 664.495 LINE",
"282.968 648.907 LINE"
);
},
{
closed = 1;
nodes = (
"145.059 408.636 LINE",
"112.586 414.253 LINE",
"110.155 443.72 LINE",
"134.656 463.776 LINE",
"153.577 438.389 LINE"
);
},
{
closed = 1;
nodes = (
"146.208 110.447 LINE",
"123.816 121.918 LINE",
"113.129 149.776 LINE",
"142.41 148.38 LINE",
"166.982 134.012 LINE"
);
},
{
closed = 1;
nodes = (
"376.354 557.592 LINE",
"331.453 559.318 LINE",
"305.366 600.128 LINE",
"347.07 630.898 LINE",
"379.67 600.987 LINE"
);
},
{
closed = 1;
nodes = (
"423.311 316.24 LINE",
"376.291 272.653 LINE",
"318.995 300.031 LINE",
"333.352 359.648 LINE",
"385.252 358.858 LINE"
);
},
{
closed = 1;
nodes = (
"254.819 84.449 LINE",
"239.083 42.631 LINE",
"193.017 54.904 LINE",
"190.823 99 LINE",
"232.396 129.907 LINE"
);
},
{
closed = 1;
nodes = (
"185.93 650.49 LINE",
"178.208 655.389 LINE",
"176.447 663.589 LINE",
"185.047 665.694 LINE",
"191.999 659.157 LINE"
);
},
{
closed = 1;
nodes = (
"549.822 361.452 LINE",
"546.65 355.76 LINE",
"538.215 353.106 LINE",
"536.583 362.997 LINE",
"544.628 368.978 LINE"
);
},
{
closed = 1;
nodes = (
"541.01 534.019 LINE",
"522.874 524.273 LINE",
"511.146 539.912 LINE",
"518.109 558.178 LINE",
"536.071 551.725 LINE"
);
},
{
closed = 1;
nodes = (
"283.209 259.872 LINE",
"269.215 268.38 LINE",
"263.255 285.324 LINE",
"281.216 285.519 LINE",
"289.998 275.209 LINE"
);
},
{
closed = 1;
nodes = (
"206.22 490.97 LINE",
"185.222 468.231 LINE",
"161.514 493.657 LINE",
"178.819 517.367 LINE",
"210.824 522.403 LINE"
);
},
{
closed = 1;
nodes = (
"450.94 643.15 LINE",
"444.881 631.037 LINE",
"431.825 634.64 LINE",
"430.474 647.5 LINE",
"442.495 653.738 LINE"
);
},
{
closed = 1;
nodes = (
"175.931 615.709 LINE",
"160.077 576.47 LINE",
"116.574 577.89 LINE",
"118.748 615.991 LINE",
"143.581 643.91 LINE"
);
}
);
width = 646;
},
{
anchors = (
{
name = bottom;
position = "{323, 0}";
},
{
name = top;
position = "{323, 700}";
}
);
associatedMasterId = "EC64484B-0978-4CB1-9EE9-C40A2D8C4059";
background = {
anchors = (
{
name = bottom;
position = "{323, 0}";
},
{
name = top;
position = "{323, 700}";
}
);
paths = (
{
closed = 1;
nodes = (
"273 0 LINE SMOOTH",
"288 0 OFFCURVE",
"300 12 OFFCURVE",
"300 27 CURVE SMOOTH",
"300 215 LINE",
"566 215 LINE SMOOTH",
"581 215 OFFCURVE",
"593 227 OFFCURVE",
"593 242 CURVE SMOOTH",
"593 393 LINE SMOOTH",
"593 408 OFFCURVE",
"581 420 OFFCURVE",
"566 420 CURVE SMOOTH",
"300 420 LINE",
"300 494 LINE",
"586 494 LINE SMOOTH",
"601 494 OFFCURVE",
"613 506 OFFCURVE",
"613 521 CURVE SMOOTH",
"613 673 LINE SMOOTH",
"613 688 OFFCURVE",
"601 700 OFFCURVE",
"586 700 CURVE SMOOTH",
"82 700 LINE SMOOTH",
"67 700 OFFCURVE",
"55 688 OFFCURVE",
"55 673 CURVE SMOOTH",
"55 27 LINE SMOOTH",
"55 12 OFFCURVE",
"67 0 OFFCURVE",
"82 0 CURVE SMOOTH"
);
}
);
};
color = 6;
hints = (
{
horizontal = 1;
place = "{0, 0}";
type = Tag;
}
);
layerId = "A9AC704E-EABF-48F0-B13C-791EC04C955E";
name = "Jul 23 21, 16:38";
paths = (
{
closed = 1;
nodes = (
"273 0 LINE SMOOTH",
"288 0 OFFCURVE",
"300 12 OFFCURVE",
"300 27 CURVE SMOOTH",
"300 215 LINE",
"566 215 LINE SMOOTH",
"581 215 OFFCURVE",
"593 227 OFFCURVE",
"593 242 CURVE SMOOTH",
"593 393 LINE SMOOTH",
"593 408 OFFCURVE",
"581 420 OFFCURVE",
"566 420 CURVE SMOOTH",
"300 420 LINE",
"300 494 LINE",
"586 494 LINE SMOOTH",
"601 494 OFFCURVE",
"613 506 OFFCURVE",
"613 521 CURVE SMOOTH",
"613 673 LINE SMOOTH",
"613 688 OFFCURVE",
"601 700 OFFCURVE",
"586 700 CURVE SMOOTH",
"82 700 LINE SMOOTH",
"67 700 OFFCURVE",
"55 688 OFFCURVE",
"55 673 CURVE SMOOTH",
"55 27 LINE SMOOTH",
"55 12 OFFCURVE",
"67 0 OFFCURVE",
"82 0 CURVE SMOOTH"
);
}
);
width = 646;
}
);
leftKerningGroup = I;
unicode = 0046;
userData = {
com.typemytype.robofont.guides = (
{
angle = 0;
isGlobal = 0;
magnetic = 5;
x = 0;
y = 320;
},
{
angle = 0;
isGlobal = 0;
magnetic = 5;
x = 0;
y = 691;
},
{
angle = 0;
isGlobal = 0;
magnetic = 5;
x = 0;
y = 649;
},
{
angle = 0;
isGlobal = 0;
magnetic = 5;
x = 0;
y = 362;
},
{
angle = 0;
isGlobal = 0;
magnetic = 5;
x = 0;
y = 9;
},
{
angle = 90;
isGlobal = 0;
magnetic = 5;
x = 761;
y = 0;
},
{
angle = 90;
isGlobal = 0;
magnetic = 5;
x = 94;
y = 0;
},
{
angle = 90;
isGlobal = 0;
magnetic = 5;
x = 487;
y = 0;
},
{
angle = 90;
isGlobal = 0;
magnetic = 5;
x = 139;
y = 0;
}
);
};
},
{
color = 6;
glyphname = G;
layers = (
{
anchors = (
{
name = bottom;
position = "{377, 0}";
},
{
name = top;
position = "{377, 700}";
}
);
background = {
anchors = (
{
name = bottom;
position = "{377, 0}";
},
{
name = top;
position = "{377, 700}";
}
);
paths = (
{
closed = 1;
nodes = (
"576 -10 OFFCURVE",
"718 85 OFFCURVE",
"718 265 CURVE SMOOTH",
"718 395 LINE SMOOTH",
"718 410 OFFCURVE",
"706 422 OFFCURVE",
"691 422 CURVE SMOOTH",
"416 422 LINE SMOOTH",
"401 422 OFFCURVE",
"389 410 OFFCURVE",
"389 395 CURVE SMOOTH",
"389 284 LINE SMOOTH",
"389 269 OFFCURVE",
"401 257 OFFCURVE",
"416 257 CURVE SMOOTH",
"463 257 LINE",
"463 256 LINE",
"463 205 OFFCURVE",
"428 185 OFFCURVE",
"378 185 CURVE SMOOTH",
"329 185 OFFCURVE",
"299 210 OFFCURVE",
"297 270 CURVE",
"295 327 OFFCURVE",
"295 385 OFFCURVE",
"297 440 CURVE",
"299 490 OFFCURVE",
"325 515 OFFCURVE",
"374 515 CURVE SMOOTH",
"423 515 OFFCURVE",
"438 486 OFFCURVE",
"446 476 CURVE SMOOTH",
"452 469 OFFCURVE",
"460 465 OFFCURVE",
"475 465 CURVE SMOOTH",
"696 465 LINE SMOOTH",
"708 465 OFFCURVE",
"718 475 OFFCURVE",
"718 487 CURVE SMOOTH",
"715 608 OFFCURVE",
"585 710 OFFCURVE",
"374 710 CURVE SMOOTH",
"177 710 OFFCURVE",
"44 622 OFFCURVE",
"37 445 CURVE",
"35 388 OFFCURVE",
"35 319 OFFCURVE",
"37 265 CURVE SMOOTH",
"45 79 OFFCURVE",
"172 -10 OFFCURVE",
"374 -10 CURVE SMOOTH"
);
}
);
};
hints = (
{
horizontal = 1;
place = "{0, 0}";
type = Tag;
}
);
layerId = "EC64484B-0978-4CB1-9EE9-C40A2D8C4059";
paths = (
{
closed = 1;
nodes = (
"407.669 -18.228 LINE",
"438.107 13.457 LINE",
"465.255 -16.644 LINE",
"481.696 20.407 LINE",
"524.025 12.832 LINE",
"554.279 43.39 LINE",
"604.639 38.496 LINE",
"621.931 86.047 LINE",
"674.448 98.398 LINE",
"673.16 152.332 LINE",
"700.625 165.469 LINE",
"688.836 193.54 LINE",
"731.109 224.436 LINE",
"698 265 LINE",
"731 302.424 LINE",
"698 339.848 LINE",
"703.805 379.273 LINE",
"671.072 402 LINE",
"629.225 416 LINE",
"587.377 402 LINE",
"549.514 425.1 LINE",
"511.652 402 LINE",
"481.761 420.2 LINE",
"451.87 402 LINE",
"425.752 414.828 LINE",
"409 391.036 LINE",
"388 355.357 LINE",
"409 319.679 LINE",
"418.465 283.397 LINE",
"455.412 277 LINE",
"456.91 250.347 LINE",
"483 256 LINE",
"442.363 235.246 LINE",
"459.931 193.134 LINE",
"413.208 208.999 LINE",
"390.122 165.389 LINE",
"360.747 199.792 LINE",
"320.429 179.274 LINE",
"316.695 220.922 LINE",
"280.114 241.177 LINE",
"294.299 266.338 LINE",
"276.382 288.994 LINE",
"301.149 317.384 LINE",
"275.522 344.998 LINE",
"301.26 386.677 LINE",
"276.604 429.004 LINE",
"316.158 457.29 LINE",
"295.776 501.439 LINE",
"328.055 502.225 LINE",
"342.158 531.27 LINE",
"371.026 506.989 LINE",
"398.634 532.692 LINE",
"417.768 493.647 LINE",
"461 489 LINE",
"496.834 473.021 LINE",
"534.196 485 LINE",
"561.821 466.8 LINE",
"589.446 485 LINE",
"611.152 466.8 LINE",
"632.857 485 LINE",
"656.536 471 LINE",
"680.214 485 LINE",
"697.217 511.789 LINE",
"686.384 541.612 LINE",
"702.612 573.813 LINE",
"666.648 576.419 LINE",
"669.855 612.407 LINE",
"633.739 611.388 LINE",
"631.449 642.566 LINE",
"601.181 634.742 LINE",
"587.478 670.442 LINE",
"550.846 659.471 LINE",
"532.955 703.655 LINE",
"493.376 677.089 LINE",
"467.464 717.742 LINE",
"430.068 687.317 LINE",
"411.287 708.514 LINE",
"390.043 689.787 LINE",
"344.718 710.644 LINE",
"301.591 685.554 LINE",
"271.985 712.618 LINE",
"254.028 676.75 LINE",
"211.154 702.119 LINE",
"193.147 655.671 LINE",
"149.729 652.194 LINE",
"129.434 613.655 LINE",
"82.031 604.612 LINE",
"85.294 556.464 LINE",
"50.367 532.545 LINE",
"62.601 492.019 LINE",
"36.476 455.779 LINE",
"56.189 415.688 LINE",
"27.863 391.792 LINE",
"55.533 367.138 LINE",
"33.798 332.578 LINE",
"56.062 298.356 LINE",
"28.238 270.913 LINE",
"58.359 246.014 LINE",
"25.435 213.819 LINE",
"67.363 194.778 LINE",
"52.947 142.163 LINE",
"102.185 118.674 LINE",
"102.375 65.029 LINE",
"156.018 65.41 LINE",
"174.9 18.097 LINE",
"223.991 31.705 LINE",
"236.079 -7.84 LINE",
"266.496 20.173 LINE",
"292.062 -13.71 LINE",
"325.968 11.824 LINE"
);
},
{
closed = 1;
nodes = (
"617.733 190.058 LINE",
"563.698 196.861 LINE",
"560.446 254.966 LINE",
"616.757 288.188 LINE",
"644.895 232 LINE"
);
},
{
closed = 1;
nodes = (
"473.754 105.022 LINE",
"450.298 81.061 LINE",
"423.448 84.632 LINE",
"419.135 113.12 LINE",
"445.579 124.559 LINE"
);
},
{
closed = 1;
nodes = (
"605.15 574.428 LINE",
"590.159 571.679 LINE",
"583.431 590.033 LINE",
"601.046 594.954 LINE",
"616.564 586.824 LINE"
);
},
{
closed = 1;
nodes = (
"358.557 612.245 LINE",
"350.653 613.585 LINE",
"347.091 619.042 LINE",
"352.304 622.951 LINE",
"357.494 620.192 LINE"
);
},
{
closed = 1;
nodes = (
"261.5 190.206 LINE",
"252.316 192.798 LINE",
"250.605 200.847 LINE",
"257.627 203.967 LINE",
"263.847 199.455 LINE"
);
},
{
closed = 1;
nodes = (
"89.769 227.368 LINE",
"76.644 225.041 LINE",
"75.728 238.746 LINE",
"85.558 242.981 LINE",
"97.614 238.145 LINE"
);
},
{
closed = 1;
nodes = (
"238.756 35.936 LINE",
"229.443 37.245 LINE",
"225.113 47.822 LINE",
"236.67 54.883 LINE",
"244.848 44.736 LINE"
);
},
{
closed = 1;
nodes = (
"123.854 484.912 LINE",
"113.341 462.38 LINE",
"89.575 476.672 LINE",
"89.578 505.756 LINE",
"118.206 505.875 LINE"
);
},
{
closed = 1;
nodes = (
"157.652 369.542 LINE",
"129.438 368.881 LINE",
"112 386 LINE",
"126.348 412.63 LINE",
"153.607 399.519 LINE"
);
},
{
closed = 1;
nodes = (
"274.969 566.78 LINE",
"243.837 510.498 LINE",
"186.175 535.448 LINE",
"175.916 597.433 LINE",
"241.916 627.482 LINE"
);
},
{
closed = 1;
nodes = (
"180.981 258.99 LINE",
"159.107 259.613 LINE",
"160.417 280.137 LINE",
"175.088 288.854 LINE",
"189.742 276.952 LINE"
);
},
{
closed = 1;
nodes = (
"636.505 335.812 LINE",
"611.194 324.713 LINE",
"604.032 347.093 LINE",
"611.756 360.981 LINE",
"629.257 358.285 LINE"
);
},
{
closed = 1;
nodes = (
"207.816 208.908 LINE",
"203.333 197.379 LINE",
"186.406 194.567 LINE",
"185.312 212.917 LINE",
"199.584 219.903 LINE"
);
},
{
closed = 1;
nodes = (
"131.706 145.947 LINE",
"117.462 137.089 LINE",
"98.78 140.97 LINE",
"103.724 162.164 LINE",
"125.696 166.492 LINE"
);
},
{
closed = 1;
nodes = (
"534.177 341.894 LINE",
"511.76 337.43 LINE",
"504.199 362.162 LINE",
"525.332 373.997 LINE",
"543.17 360.555 LINE"
);
},
{
closed = 1;
nodes = (
"155.945 199.647 LINE",
"146.339 196.778 LINE",
"137.071 206.359 LINE",
"147.713 215.76 LINE",
"161.258 211.5 LINE"
);
}
);
width = 753;
},
{
anchors = (
{
name = bottom;
position = "{377, 0}";
},
{
name = top;
position = "{377, 700}";
}
);
associatedMasterId = "EC64484B-0978-4CB1-9EE9-C40A2D8C4059";
background = {
anchors = (
{
name = bottom;
position = "{377, 0}";
},
{
name = top;
position = "{377, 700}";
}
);
paths = (
{
closed = 1;
nodes = (
"576 -10 OFFCURVE",
"718 85 OFFCURVE",
"718 265 CURVE SMOOTH",
"718 395 LINE SMOOTH",
"718 410 OFFCURVE",
"706 422 OFFCURVE",
"691 422 CURVE SMOOTH",
"416 422 LINE SMOOTH",
"401 422 OFFCURVE",
"389 410 OFFCURVE",
"389 395 CURVE SMOOTH",
"389 284 LINE SMOOTH",
"389 269 OFFCURVE",
"401 257 OFFCURVE",
"416 257 CURVE SMOOTH",
"463 257 LINE",
"463 256 LINE",
"463 205 OFFCURVE",
"428 185 OFFCURVE",
"378 185 CURVE SMOOTH",
"329 185 OFFCURVE",
"299 210 OFFCURVE",
"297 270 CURVE",
"295 327 OFFCURVE",
"295 385 OFFCURVE",
"297 440 CURVE",
"299 490 OFFCURVE",
"325 515 OFFCURVE",
"374 515 CURVE SMOOTH",
"423 515 OFFCURVE",
"438 486 OFFCURVE",
"446 476 CURVE SMOOTH",
"452 469 OFFCURVE",
"460 465 OFFCURVE",
"475 465 CURVE SMOOTH",
"696 465 LINE SMOOTH",
"708 465 OFFCURVE",
"718 475 OFFCURVE",
"718 487 CURVE SMOOTH",
"715 608 OFFCURVE",
"585 710 OFFCURVE",
"374 710 CURVE SMOOTH",
"177 710 OFFCURVE",
"44 622 OFFCURVE",
"37 445 CURVE",
"35 388 OFFCURVE",
"35 319 OFFCURVE",
"37 265 CURVE SMOOTH",
"45 79 OFFCURVE",
"172 -10 OFFCURVE",
"374 -10 CURVE SMOOTH"
);
}
);
};
color = 6;
hints = (
{
horizontal = 1;
place = "{0, 0}";
type = Tag;
}
);
layerId = "DFFC05DF-9BED-46F7-A903-EB6777515B2A";
name = "Jul 23 21, 16:38";
paths = (
{
closed = 1;
nodes = (
"576 -10 OFFCURVE",
"718 85 OFFCURVE",
"718 265 CURVE SMOOTH",
"718 395 LINE SMOOTH",
"718 410 OFFCURVE",
"706 422 OFFCURVE",
"691 422 CURVE SMOOTH",
"416 422 LINE SMOOTH",
"401 422 OFFCURVE",
"389 410 OFFCURVE",
"389 395 CURVE SMOOTH",
"389 284 LINE SMOOTH",
"389 269 OFFCURVE",
"401 257 OFFCURVE",
"416 257 CURVE SMOOTH",
"463 257 LINE",
"463 256 LINE",
"463 205 OFFCURVE",
"428 185 OFFCURVE",
"378 185 CURVE SMOOTH",
"329 185 OFFCURVE",
"299 210 OFFCURVE",
"297 270 CURVE",
"295 327 OFFCURVE",
"295 385 OFFCURVE",
"297 440 CURVE",
"299 490 OFFCURVE",
"325 515 OFFCURVE",
"374 515 CURVE SMOOTH",
"423 515 OFFCURVE",
"438 486 OFFCURVE",
"446 476 CURVE SMOOTH",
"452 469 OFFCURVE",
"460 465 OFFCURVE",
"475 465 CURVE SMOOTH",
"696 465 LINE SMOOTH",
"708 465 OFFCURVE",
"718 475 OFFCURVE",
"718 487 CURVE SMOOTH",
"715 608 OFFCURVE",
"585 710 OFFCURVE",
"374 710 CURVE SMOOTH",
"177 710 OFFCURVE",
"44 622 OFFCURVE",
"37 445 CURVE",
"35 388 OFFCURVE",
"35 319 OFFCURVE",
"37 265 CURVE SMOOTH",
"45 79 OFFCURVE",
"172 -10 OFFCURVE",
"374 -10 CURVE SMOOTH"
);
}
);
width = 753;
}
);
leftKerningGroup = O;
rightKerningGroup = G;
unicode = 0047;
userData = {
com.typemytype.robofont.guides = (
{
angle = 0;
isGlobal = 0;
magnetic = 5;
x = 0;
y = "-10";
},
{
angle = 0;
isGlobal = 0;
magnetic = 5;
x = 0;
y = 260;
},
{
angle = 0;
isGlobal = 0;
magnetic = 5;
x = 0;
y = 440;
},
{
angle = 90;
isGlobal = 0;
magnetic = 5;
x = 334;
y = 0;
},
{
angle = 90;
isGlobal = 0;
magnetic = 5;
x = 133;
y = 0;
},
{
angle = 90;
isGlobal = 0;
magnetic = 5;
x = 604;
y = 0;
},
{
angle = 90;
isGlobal = 0;
magnetic = 5;
x = 67;
y = 0;
}
);
};
},
{
color = 6;
glyphname = H;
layers = (
{
anchors = (
{
name = bottom;
position = "{386, 0}";
},
{
name = center;
position = "{386, 350}";
},
{
name = top;
position = "{386, 700}";
},
{
name = topleft;
position = "{20, 700}";
}
);
background = {
anchors = (
{
name = bottom;
position = "{386, 0}";
},
{
name = center;
position = "{386, 350}";
},
{
name = top;
position = "{386, 700}";
},
{
name = topleft;
position = "{20, 700}";
}
);
paths = (
{
closed = 1;
nodes = (
"278 0 LINE SMOOTH",
"293 0 OFFCURVE",
"305 12 OFFCURVE",
"305 27 CURVE SMOOTH",
"305 243 LINE",
"467 243 LINE",
"467 27 LINE SMOOTH",
"467 12 OFFCURVE",
"479 0 OFFCURVE",
"494 0 CURVE SMOOTH",
"690 0 LINE SMOOTH",
"705 0 OFFCURVE",
"717 12 OFFCURVE",
"717 27 CURVE SMOOTH",
"717 673 LINE SMOOTH",
"717 688 OFFCURVE",
"705 700 OFFCURVE",
"690 700 CURVE SMOOTH",
"494 700 LINE SMOOTH",
"479 700 OFFCURVE",
"467 688 OFFCURVE",
"467 673 CURVE SMOOTH",
"467 463 LINE",
"305 463 LINE",
"305 673 LINE SMOOTH",
"305 688 OFFCURVE",
"293 700 OFFCURVE",
"278 700 CURVE SMOOTH",
"82 700 LINE SMOOTH",
"67 700 OFFCURVE",
"55 688 OFFCURVE",
"55 673 CURVE SMOOTH",
"55 27 LINE SMOOTH",
"55 11 OFFCURVE",
"67 0 OFFCURVE",
"82 0 CURVE SMOOTH"
);
}
);
};
layerId = "EC64484B-0978-4CB1-9EE9-C40A2D8C4059";
paths = (
{
closed = 1;
nodes = (
"110 -18 LINE",
"138 20 LINE",
"178 0 LINE",
"218 20 LINE",
"255.033 -10.316 LINE",
"285 27 LINE",
"307 59 LINE",
"285 91 LINE",
"309 117 LINE",
"285 143 LINE",
"311 185 LINE",
"285 227 LINE",
"321.111 227.161 LINE",
"316.686 263 LINE",
"348.373 242 LINE",
"380.059 263 LINE",
"413.725 226 LINE",
"447.392 263 LINE",
"446.589 222.595 LINE",
"487 223 LINE",
"453 199 LINE",
"487 175 LINE",
"448 151 LINE",
"487 127 LINE",
"453 107 LINE",
"487 87 LINE",
"456 61 LINE",
"487 35 LINE",
"512.709 3.18 LINE",
"550 20 LINE",
"592 -13 LINE",
"634 20 LINE",
"671.279 19.953 LINE",
"697 46.938 LINE",
"732 74.852 LINE",
"697 102.765 LINE",
"721 122.704 LINE",
"697 142.642 LINE",
"719 184.512 LINE",
"697 226.383 LINE",
"721 262.272 LINE",
"697 298.16 LINE",
"727 324.08 LINE",
"697 350 LINE",
"734 387.883 LINE",
"697 425.765 LINE",
"736 449.691 LINE",
"697 473.617 LINE",
"724 513.494 LINE",
"697 553.37 LINE",
"732 577.296 LINE",
"697 601.222 LINE",
"732 625.148 LINE",
"697 649.074 LINE",
"686.944 680.449 LINE",
"654 680 LINE",
"628 700 LINE",
"602 680 LINE",
"568 711 LINE",
"534 680 LINE",
"505.047 697.89 LINE",
"487 669.034 LINE",
"449 649.207 LINE",
"487 629.379 LINE",
"459 587.741 LINE",
"487 546.103 LINE",
"464 510.414 LINE",
"487 474.724 LINE",
"453.508 475.05 LINE",
"463.235 443 LINE",
"429.569 473 LINE",
"395.902 443 LINE",
"354.314 473 LINE",
"312.725 443 LINE",
"317.43 476.612 LINE",
"285 486.621 LINE",
"313 508.431 LINE",
"285 530.241 LINE",
"323 552.052 LINE",
"285 573.862 LINE",
"307 599.638 LINE",
"285 625.414 LINE",
"287.152 662.732 LINE",
"254 680 LINE",
"218 716 LINE",
"182 680 LINE",
"142 718 LINE",
"102 680 LINE",
"78.979 679.725 LINE",
"75 657.049 LINE",
"49 637.111 LINE",
"75 617.173 LINE",
"48 579.29 LINE",
"75 541.407 LINE",
"46 517.481 LINE",
"75 493.556 LINE",
"52 457.667 LINE",
"75 421.778 LINE",
"38 381.901 LINE",
"75 342.025 LINE",
"50 316.105 LINE",
"75 290.185 LINE",
"45 264.265 LINE",
"75 238.346 LINE",
"53 196.475 LINE",
"75 154.605 LINE",
"36 112.735 LINE",
"75 70.864 LINE"
);
},
{
closed = 1;
nodes = (
"607.319 364.468 LINE",
"555.136 349.923 LINE",
"541.004 391.529 LINE",
"556.931 424.148 LINE",
"599.147 415.471 LINE"
);
},
{
closed = 1;
nodes = (
"148.745 191.162 LINE",
"119.678 184.653 LINE",
"104.051 204.535 LINE",
"119.006 220.835 LINE",
"146.449 223.998 LINE"
);
},
{
closed = 1;
nodes = (
"126.302 488.783 LINE",
"110.576 478.51 LINE",
"106.046 497.046 LINE",
"115.75 505.744 LINE",
"127.429 501.665 LINE"
);
},
{
closed = 1;
nodes = (
"485.162 335.199 LINE",
"466.819 347.575 LINE",
"462.436 366.898 LINE",
"481.801 368.432 LINE",
"489.998 356.209 LINE"
);
},
{
closed = 1;
nodes = (
"649.235 494.18 LINE",
"634.967 498.539 LINE",
"629.426 509.032 LINE",
"639.442 521.99 LINE",
"655.035 511.472 LINE"
);
},
{
closed = 1;
nodes = (
"278.653 360.112 LINE",
"245.983 270.612 LINE",
"167.289 299.634 LINE",
"143.587 364.6 LINE",
"208.906 439.759 LINE"
);
},
{
closed = 1;
nodes = (
"124.471 542.133 LINE",
"103.465 528.054 LINE",
"94.327 547.339 LINE",
"93.872 567.809 LINE",
"118.499 566.087 LINE"
);
},
{
closed = 1;
nodes = (
"214.736 35.482 LINE",
"200.968 34.381 LINE",
"201.223 50.27 LINE",
"215.583 55.496 LINE",
"224.992 43.454 LINE"
);
},
{
closed = 1;
nodes = (
"651.421 80.103 LINE",
"621.377 78.724 LINE",
"623.905 105.13 LINE",
"638.593 116.99 LINE",
"654.341 104.686 LINE"
);
},
{
closed = 1;
nodes = (
"663.822 328.113 LINE",
"648.21 327.58 LINE",
"645.756 345.042 LINE",
"660.563 346.863 LINE",
"674.844 340.227 LINE"
);
},
{
closed = 1;
nodes = (
"592.436 583.597 LINE",
"584.598 562.039 LINE",
"556.645 558.317 LINE",
"561.019 584.244 LINE",
"575.674 602.942 LINE"
);
},
{
closed = 1;
nodes = (
"208.089 479.055 LINE",
"198.052 469.136 LINE",
"186.213 480.569 LINE",
"193.427 495.361 LINE",
"206.947 490.193 LINE"
);
},
{
closed = 1;
nodes = (
"670.5 255.617 LINE",
"642.279 262.651 LINE",
"632.334 289.982 LINE",
"658.882 296.901 LINE",
"670.694 281.911 LINE"
);
},
{
closed = 1;
nodes = (
"125.54 589.09 LINE",
"111.808 588.808 LINE",
"109.417 603.902 LINE",
"122.877 609.852 LINE",
"130.877 599.564 LINE"
);
},
{
closed = 1;
nodes = (
"150.939 140.394 LINE",
"142.815 120.59 LINE",
"126.698 131.783 LINE",
"120.428 147.756 LINE",
"137.474 149.718 LINE"
);
},
{
closed = 1;
nodes = (
"393.523 332.623 LINE",
"384.902 321.452 LINE",
"369.931 316.566 LINE",
"370.664 332.584 LINE",
"380.837 344.978 LINE"
);
}
);
width = 772;
},
{
anchors = (
{
name = bottom;
position = "{386, 0}";
},
{
name = center;
position = "{386, 350}";
},
{
name = top;
position = "{386, 700}";
},
{
name = topleft;
position = "{20, 700}";
}
);
associatedMasterId = "EC64484B-0978-4CB1-9EE9-C40A2D8C4059";
background = {
anchors = (
{
name = bottom;
position = "{386, 0}";
},
{
name = center;
position = "{386, 350}";
},
{
name = top;
position = "{386, 700}";
},
{
name = topleft;
position = "{20, 700}";
}
);
paths = (
{
closed = 1;
nodes = (
"278 0 LINE SMOOTH",
"293 0 OFFCURVE",
"305 12 OFFCURVE",
"305 27 CURVE SMOOTH",
"305 243 LINE",
"467 243 LINE",
"467 27 LINE SMOOTH",
"467 12 OFFCURVE",
"479 0 OFFCURVE",
"494 0 CURVE SMOOTH",
"690 0 LINE SMOOTH",
"705 0 OFFCURVE",
"717 12 OFFCURVE",
"717 27 CURVE SMOOTH",
"717 673 LINE SMOOTH",
"717 688 OFFCURVE",
"705 700 OFFCURVE",
"690 700 CURVE SMOOTH",
"494 700 LINE SMOOTH",
"479 700 OFFCURVE",
"467 688 OFFCURVE",
"467 673 CURVE SMOOTH",
"467 463 LINE",
"305 463 LINE",
"305 673 LINE SMOOTH",
"305 688 OFFCURVE",
"293 700 OFFCURVE",
"278 700 CURVE SMOOTH",
"82 700 LINE SMOOTH",
"67 700 OFFCURVE",
"55 688 OFFCURVE",
"55 673 CURVE SMOOTH",
"55 27 LINE SMOOTH",
"55 11 OFFCURVE",
"67 0 OFFCURVE",
"82 0 CURVE SMOOTH"
);
}
);
};
color = 6;
layerId = "C25F0CD2-EA53-4D84-B4DA-EB8960EDDA34";
name = "Jul 23 21, 16:38";
paths = (
{
closed = 1;
nodes = (
"278 0 LINE SMOOTH",
"293 0 OFFCURVE",
"305 12 OFFCURVE",
"305 27 CURVE SMOOTH",
"305 243 LINE",
"467 243 LINE",
"467 27 LINE SMOOTH",
"467 12 OFFCURVE",
"479 0 OFFCURVE",
"494 0 CURVE SMOOTH",
"690 0 LINE SMOOTH",
"705 0 OFFCURVE",
"717 12 OFFCURVE",
"717 27 CURVE SMOOTH",
"717 673 LINE SMOOTH",
"717 688 OFFCURVE",
"705 700 OFFCURVE",
"690 700 CURVE SMOOTH",
"494 700 LINE SMOOTH",
"479 700 OFFCURVE",
"467 688 OFFCURVE",
"467 673 CURVE SMOOTH",
"467 463 LINE",
"305 463 LINE",
"305 673 LINE SMOOTH",
"305 688 OFFCURVE",
"293 700 OFFCURVE",
"278 700 CURVE SMOOTH",
"82 700 LINE SMOOTH",
"67 700 OFFCURVE",
"55 688 OFFCURVE",
"55 673 CURVE SMOOTH",
"55 27 LINE SMOOTH",
"55 11 OFFCURVE",
"67 0 OFFCURVE",
"82 0 CURVE SMOOTH"
);
}
);
width = 772;
}
);
leftKerningGroup = I;
rightKerningGroup = I;
unicode = 0048;
userData = {
com.typemytype.robofont.guides = (
{
angle = 0;
isGlobal = 0;
magnetic = 5;
x = 0;
y = 350;
},
{
angle = 0;
isGlobal = 0;
magnetic = 5;
x = 0;
y = 9;
},
{
angle = 0;
isGlobal = 0;
magnetic = 5;
x = 0;
y = 691;
},
{
angle = 90;
isGlobal = 0;
magnetic = 5;
x = 94;
y = 0;
},
{
angle = 90;
isGlobal = 0;
magnetic = 5;
x = 139;
y = 0;
},
{
angle = 90;
isGlobal = 0;
magnetic = 5;
x = 543;
y = 0;
},
{
angle = 90;
isGlobal = 0;
magnetic = 5;
x = 588;
y = 0;
}
);
};
},
{
color = 3;
glyphname = Hbar;
layers = (
{
background = {
components = (
{
name = H;
}
);
paths = (
{
closed = 1;
nodes = (
"682 521 LINE SMOOTH",
"697 521 OFFCURVE",
"709 533 OFFCURVE",
"709 548 CURVE SMOOTH",
"709 616 LINE SMOOTH",
"709 631 OFFCURVE",
"697 643 OFFCURVE",
"682 643 CURVE SMOOTH",
"88 643 LINE SMOOTH",
"73 643 OFFCURVE",
"61 631 OFFCURVE",
"61 616 CURVE SMOOTH",
"61 548 LINE SMOOTH",
"61 533 OFFCURVE",
"73 521 OFFCURVE",
"88 521 CURVE SMOOTH"
);
}
);
};
components = (
{
name = H;
}
);
hints = (
{
horizontal = 1;
place = "{0, 0}";
type = Tag;
}
);
layerId = "EC64484B-0978-4CB1-9EE9-C40A2D8C4059";
paths = (
{
closed = 1;
nodes = (
"117.899 510 LINE",
"147.799 541 LINE",
"173.711 507 LINE",
"199.624 541 LINE",
"233.51 514 LINE",
"267.396 541 LINE",
"295.302 515 LINE",
"323.208 541 LINE",
"349.121 513 LINE",
"375.034 541 LINE",
"412.906 511 LINE",
"450.779 541 LINE",
"476.691 514 LINE",
"502.604 541 LINE",
"528.517 521 LINE",
"554.43 541 LINE",
"584.329 518 LINE",
"614.228 541 LINE",
"638.148 519 LINE",
"662.067 541 LINE",
"692.353 532.804 LINE",
"689 564 LINE",
"688.421 601.298 LINE",
"658.081 623 LINE",
"616.221 643 LINE",
"574.362 623 LINE",
"552.436 648 LINE",
"530.51 623 LINE",
"494.631 652 LINE",
"458.752 623 LINE",
"436.826 652 LINE",
"414.899 623 LINE",
"392.973 646 LINE",
"371.047 623 LINE",
"351.114 650 LINE",
"331.181 623 LINE",
"307.262 656 LINE",
"283.342 623 LINE",
"251.45 653 LINE",
"219.557 623 LINE",
"187.664 660 LINE",
"155.772 623 LINE",
"129.859 645 LINE",
"103.946 623 LINE",
"80.58 623.366 LINE",
"81 600 LINE",
"59 580 LINE",
"81 560 LINE"
);
},
{
closed = 1;
nodes = (
"526.681 572.353 LINE",
"508.088 561.146 LINE",
"493.417 569.863 LINE",
"496.969 585.351 LINE",
"513.981 591.01 LINE"
);
}
);
width = 772;
},
{
associatedMasterId = "EC64484B-0978-4CB1-9EE9-C40A2D8C4059";
background = {
components = (
{
name = H;
}
);
paths = (
{
closed = 1;
nodes = (
"682 521 LINE SMOOTH",
"697 521 OFFCURVE",
"709 533 OFFCURVE",
"709 548 CURVE SMOOTH",
"709 616 LINE SMOOTH",
"709 631 OFFCURVE",
"697 643 OFFCURVE",
"682 643 CURVE SMOOTH",
"88 643 LINE SMOOTH",
"73 643 OFFCURVE",
"61 631 OFFCURVE",
"61 616 CURVE SMOOTH",
"61 548 LINE SMOOTH",
"61 533 OFFCURVE",
"73 521 OFFCURVE",
"88 521 CURVE SMOOTH"
);
}
);
};
color = 3;
components = (
{
name = H;
}
);
hints = (
{
horizontal = 1;
place = "{0, 0}";
type = Tag;
}
);
layerId = "31F3D2E9-3D26-412B-8554-491907C50EF5";
name = "Jul 23 21, 16:38";
paths = (
{
closed = 1;
nodes = (
"682 521 LINE SMOOTH",
"697 521 OFFCURVE",
"709 533 OFFCURVE",
"709 548 CURVE SMOOTH",
"709 616 LINE SMOOTH",
"709 631 OFFCURVE",
"697 643 OFFCURVE",
"682 643 CURVE SMOOTH",
"88 643 LINE SMOOTH",
"73 643 OFFCURVE",
"61 631 OFFCURVE",
"61 616 CURVE SMOOTH",
"61 548 LINE SMOOTH",
"61 533 OFFCURVE",
"73 521 OFFCURVE",
"88 521 CURVE SMOOTH"
);
}
);
width = 772;
}
);
leftKerningGroup = I;
rightKerningGroup = I;
unicode = 0126;
},
{
color = 6;
glyphname = I;
layers = (
{
anchors = (
{
name = bottom;
position = "{184, 0}";
},
{
name = ogonek;
position = "{301, 122}";
},
{
name = top;
position = "{184, 700}";
},
{
name = topleft;
position = "{20, 700}";
}
);
background = {
anchors = (
{
name = bottom;
position = "{184, 0}";
},
{
name = ogonek;
position = "{301, 122}";
},
{
name = top;
position = "{184, 700}";
},
{
name = topleft;
position = "{20, 700}";
}
);
paths = (
{
closed = 1;
nodes = (
"286 0 LINE SMOOTH",
"301 0 OFFCURVE",
"313 12 OFFCURVE",
"313 27 CURVE SMOOTH",
"313 673 LINE SMOOTH",
"313 688 OFFCURVE",
"301 700 OFFCURVE",
"286 700 CURVE SMOOTH",
"82 700 LINE SMOOTH",
"67 700 OFFCURVE",
"55 688 OFFCURVE",
"55 673 CURVE SMOOTH",
"55 27 LINE SMOOTH",
"55 12 OFFCURVE",
"67 0 OFFCURVE",
"82 0 CURVE SMOOTH"
);
}
);
};
layerId = "EC64484B-0978-4CB1-9EE9-C40A2D8C4059";
paths = (
{
closed = 1;
nodes = (
"116 -15 LINE",
"150 20 LINE",
"180 -5 LINE",
"210 20 LINE",
"242 -2 LINE",
"274 20 LINE",
"302.313 35.813 LINE",
"293 66.877 LINE",
"319 98.778 LINE",
"293 130.679 LINE",
"320 170.556 LINE",
"293 210.432 LINE",
"320 242.333 LINE",
"293 274.235 LINE",
"328 308.13 LINE",
"293 342.025 LINE",
"331 363.957 LINE",
"293 385.889 LINE",
"329 413.802 LINE",
"293 441.716 LINE",
"313 461.654 LINE",
"293 481.593 LINE",
"315 509.506 LINE",
"293 537.42 LINE",
"319 579.29 LINE",
"293 621.16 LINE",
"316 643.093 LINE",
"293 665.025 LINE",
"276.797 704.176 LINE",
"242 680 LINE",
"202 711 LINE",
"162 680 LINE",
"132 704 LINE",
"102 680 LINE",
"64.061 659.089 LINE",
"75 617.173 LINE",
"43 591.253 LINE",
"75 565.333 LINE",
"50 543.401 LINE",
"75 521.469 LINE",
"46 487.574 LINE",
"75 453.679 LINE",
"45 419.784 LINE",
"75 385.889 LINE",
"37 361.963 LINE",
"75 338.037 LINE",
"41 316.105 LINE",
"75 294.173 LINE",
"51 260.278 LINE",
"75 226.383 LINE",
"47 186.506 LINE",
"75 146.63 LINE",
"55 106.753 LINE",
"75 66.877 LINE"
);
},
{
closed = 1;
nodes = (
"234.144 106.883 LINE",
"189.552 87.076 LINE",
"165.129 125.037 LINE",
"185.324 160.218 LINE",
"218.622 145.058 LINE"
);
},
{
closed = 1;
nodes = (
"164.923 343.451 LINE",
"151.464 341.936 LINE",
"147.375 354.847 LINE",
"157.477 361.986 LINE",
"170.137 356.659 LINE"
);
},
{
closed = 1;
nodes = (
"168.947 402.775 LINE",
"159.611 399.122 LINE",
"155.058 406.165 LINE",
"158.37 412.393 LINE",
"166.755 412.557 LINE"
);
},
{
closed = 1;
nodes = (
"163.332 498.191 LINE",
"117.769 473.859 LINE",
"97.021 518.813 LINE",
"117.661 556.648 LINE",
"157.004 540.317 LINE"
);
},
{
closed = 1;
nodes = (
"228.283 53.408 LINE",
"219.874 50.636 LINE",
"210.049 59.133 LINE",
"221.2 65.795 LINE",
"230.715 62.635 LINE"
);
},
{
closed = 1;
nodes = (
"270.586 429.566 LINE",
"226.459 428.142 LINE",
"208.948 467.323 LINE",
"242.211 490.878 LINE",
"272.615 470.722 LINE"
);
},
{
closed = 1;
nodes = (
"248.91 264.718 LINE",
"220.355 228.062 LINE",
"178.79 257.949 LINE",
"187.163 311.08 LINE",
"240.33 307.385 LINE"
);
},
{
closed = 1;
nodes = (
"127.835 211.006 LINE",
"111.954 202.037 LINE",
"101.356 214.097 LINE",
"105.051 229.721 LINE",
"122 227.725 LINE"
);
},
{
closed = 1;
nodes = (
"127.137 319.417 LINE",
"110.929 322.275 LINE",
"107.756 339.042 LINE",
"123.257 344.803 LINE",
"135.854 334.088 LINE"
);
},
{
closed = 1;
nodes = (
"277.922 117.113 LINE",
"273.945 107.911 LINE",
"265.684 111.832 LINE",
"262.936 119.756 LINE",
"271.216 122.894 LINE"
);
},
{
closed = 1;
nodes = (
"246.046 557.539 LINE",
"214.893 561.584 LINE",
"193.811 592.434 LINE",
"229 621 LINE",
"265.14 592.743 LINE"
);
},
{
closed = 1;
nodes = (
"121.573 646.639 LINE",
"107.359 651.087 LINE",
"102.417 665.137 LINE",
"116.948 672.864 LINE",
"124.848 660.736 LINE"
);
},
{
closed = 1;
nodes = (
"180.907 60.223 LINE",
"166.911 48.306 LINE",
"151.01 54.5 LINE",
"152.11 72.706 LINE",
"168.067 71.135 LINE"
);
},
{
closed = 1;
nodes = (
"236.244 648.019 LINE",
"217.977 650.073 LINE",
"220.823 667.359 LINE",
"233.177 669.733 LINE",
"241.973 661.767 LINE"
);
}
);
width = 368;
},
{
anchors = (
{
name = bottom;
position = "{184, 0}";
},
{
name = ogonek;
position = "{301, 122}";
},
{
name = top;
position = "{184, 700}";
},
{
name = topleft;
position = "{20, 700}";
}
);
associatedMasterId = "EC64484B-0978-4CB1-9EE9-C40A2D8C4059";
background = {
anchors = (
{
name = bottom;
position = "{184, 0}";
},
{
name = ogonek;
position = "{301, 122}";
},
{
name = top;
position = "{184, 700}";
},
{
name = topleft;
position = "{20, 700}";
}
);
paths = (
{
closed = 1;
nodes = (
"286 0 LINE SMOOTH",
"301 0 OFFCURVE",
"313 12 OFFCURVE",
"313 27 CURVE SMOOTH",
"313 673 LINE SMOOTH",
"313 688 OFFCURVE",
"301 700 OFFCURVE",
"286 700 CURVE SMOOTH",
"82 700 LINE SMOOTH",
"67 700 OFFCURVE",
"55 688 OFFCURVE",
"55 673 CURVE SMOOTH",
"55 27 LINE SMOOTH",
"55 12 OFFCURVE",
"67 0 OFFCURVE",
"82 0 CURVE SMOOTH"
);
}
);
};
color = 6;
layerId = "9AF7FB6B-A1E6-4272-8191-85F347570827";
name = "Jul 23 21, 16:38";
paths = (
{
closed = 1;
nodes = (
"286 0 LINE SMOOTH",
"301 0 OFFCURVE",
"313 12 OFFCURVE",
"313 27 CURVE SMOOTH",
"313 673 LINE SMOOTH",
"313 688 OFFCURVE",
"301 700 OFFCURVE",
"286 700 CURVE SMOOTH",
"82 700 LINE SMOOTH",
"67 700 OFFCURVE",
"55 688 OFFCURVE",
"55 673 CURVE SMOOTH",
"55 27 LINE SMOOTH",
"55 12 OFFCURVE",
"67 0 OFFCURVE",
"82 0 CURVE SMOOTH"
);
}
);
width = 368;
}
);
leftKerningGroup = I;
rightKerningGroup = I;
unicode = 0049;
userData = {
com.typemytype.robofont.guides = (
{
angle = 90;
isGlobal = 0;
magnetic = 5;
x = 85;
y = 0;
},
{
angle = 90;
isGlobal = 0;
magnetic = 5;
x = 148;
y = 0;
}
);
};
},
{
color = 6;
glyphname = IJ;
layers = (
{
background = {
paths = (
{
closed = 1;
nodes = (
"628 -10 OFFCURVE",
"758 45 OFFCURVE",
"758 258 CURVE SMOOTH",
"758 673 LINE SMOOTH",
"758 688 OFFCURVE",
"746 700 OFFCURVE",
"731 700 CURVE SMOOTH",
"526 700 LINE SMOOTH",
"511 700 OFFCURVE",
"499 688 OFFCURVE",
"499 673 CURVE",
"499 298 LINE SMOOTH",
"499 227 OFFCURVE",
"476 205 OFFCURVE",
"420 205 CURVE SMOOTH",
"405 205 OFFCURVE",
"393 193 OFFCURVE",
"393 178 CURVE SMOOTH",
"393 17 LINE SMOOTH",
"393 2 OFFCURVE",
"405 -10 OFFCURVE",
"420 -10 CURVE SMOOTH"
);
},
{
closed = 1;
nodes = (
"286 0 LINE SMOOTH",
"301 0 OFFCURVE",
"313 12 OFFCURVE",
"313 27 CURVE SMOOTH",
"313 673 LINE SMOOTH",
"313 688 OFFCURVE",
"301 700 OFFCURVE",
"286 700 CURVE SMOOTH",
"82 700 LINE SMOOTH",
"67 700 OFFCURVE",
"55 688 OFFCURVE",
"55 673 CURVE SMOOTH",
"55 27 LINE SMOOTH",
"55 12 OFFCURVE",
"67 0 OFFCURVE",
"82 0 CURVE SMOOTH"
);
}
);
};
hints = (
{
horizontal = 1;
place = "{0, 0}";
type = Tag;
}
);
layerId = "EC64484B-0978-4CB1-9EE9-C40A2D8C4059";
paths = (
{
closed = 1;
nodes = (
"442.953 -25.506 LINE",
"464.332 10.97 LINE",
"486.961 -22.482 LINE",
"504.534 13.882 LINE",
"543.987 -1.643 LINE",
"575.968 26.193 LINE",
"603.653 13.34 LINE",
"617.963 40.3 LINE",
"652.347 37.309 LINE",
"666.465 68.804 LINE",
"706.802 70.456 LINE",
"703.858 110.719 LINE",
"738.884 133.356 LINE",
"729.404 173.969 LINE",
"765.239 201.84 LINE",
"737.594 237.85 LINE",
"764.797 275.713 LINE",
"738 313.865 LINE",
"762 333.817 LINE",
"738 353.769 LINE",
"773 375.716 LINE",
"738 397.663 LINE",
"758 433.577 LINE",
"738 469.49 LINE",
"760 511.389 LINE",
"738 553.288 LINE",
"772 579.226 LINE",
"738 605.163 LINE",
"770 637.087 LINE",
"738 669.01 LINE",
"714.808 705.95 LINE",
"679.75 680 LINE",
"642.298 707 LINE",
"604.846 680 LINE",
"571.337 718 LINE",
"537.827 680 LINE",
"491.267 662.45 LINE",
"519 621.138 LINE",
"499 579.25 LINE",
"519 537.362 LINE",
"487 515.42 LINE",
"519 493.479 LINE",
"496 457.574 LINE",
"519 421.67 LINE",
"495 395.739 LINE",
"519 369.809 LINE",
"498.987 331.886 LINE",
"518.974 293.951 LINE",
"486.122 270.335 LINE",
"510.632 238.145 LINE",
"466.834 238.873 LINE",
"475.097 195.856 LINE",
"434.063 197.548 LINE",
"413 162.293 LINE",
"399 128.915 LINE",
"413 95.537 LINE",
"386.4 75.902 LINE",
"413 56.268 LINE"
);
},
{
closed = 1;
nodes = (
"110 -2 LINE",
"138 20 LINE",
"176 -11 LINE",
"214 20 LINE",
"234 -19 LINE",
"254 20 LINE",
"293.698 23.078 LINE",
"293 62.889 LINE",
"314.7 102.765 LINE",
"293 142.642 LINE",
"307 180.525 LINE",
"293 218.407 LINE",
"322 258.284 LINE",
"293 298.16 LINE",
"321 340.031 LINE",
"293 381.901 LINE",
"324 409.815 LINE",
"293 437.728 LINE",
"316 475.611 LINE",
"293 513.494 LINE",
"331 549.383 LINE",
"293 585.272 LINE",
"315 605.21 LINE",
"293 625.148 LINE",
"317 647.08 LINE",
"293 669.012 LINE",
"279.422 705.51 LINE",
"250 680 LINE",
"226 702 LINE",
"202 680 LINE",
"164 704 LINE",
"126 680 LINE",
"94.392 702.856 LINE",
"75 669.012 LINE",
"38 635.117 LINE",
"75 601.222 LINE",
"42 581.284 LINE",
"75 561.346 LINE",
"46 533.432 LINE",
"75 505.519 LINE",
"40 465.642 LINE",
"75 425.765 LINE",
"51 385.889 LINE",
"75 346.012 LINE",
"38 324.08 LINE",
"75 302.148 LINE",
"36 280.216 LINE",
"75 258.284 LINE",
"39 218.407 LINE",
"75 178.531 LINE",
"39 150.617 LINE",
"75 122.704 LINE",
"52 88.809 LINE",
"75 54.914 LINE"
);
},
{
closed = 1;
nodes = (
"596.9 117.86 LINE",
"570.984 77.913 LINE",
"513.102 79.004 LINE",
"523.774 135.137 LINE",
"566.886 158.663 LINE"
);
},
{
closed = 1;
nodes = (
"546.444 462.265 LINE",
"539.477 459.023 LINE",
"530.256 462.75 LINE",
"534.85 473.572 LINE",
"545.248 471.038 LINE"
);
},
{
closed = 1;
nodes = (
"163.708 603.587 LINE",
"144.629 603.832 LINE",
"146.247 624.992 LINE",
"165.253 631.168 LINE",
"172 615 LINE"
);
},
{
closed = 1;
nodes = (
"212.483 143.204 LINE",
"176.083 167.288 LINE",
"156.142 208.906 LINE",
"207.854 231.544 LINE",
"228.92 186.302 LINE"
);
},
{
closed = 1;
nodes = (
"593.014 215.619 LINE",
"575.21 219.58 LINE",
"565.692 240.798 LINE",
"588.431 243.787 LINE",
"601.844 232.227 LINE"
);
},
{
closed = 1;
nodes = (
"248.49 319.576 LINE",
"229.431 309.068 LINE",
"206.641 321.376 LINE",
"221.214 343.286 LINE",
"247.401 345.868 LINE"
);
},
{
closed = 1;
nodes = (
"698.977 570.89 LINE",
"688.092 554.129 LINE",
"668.789 559.302 LINE",
"657.679 585.795 LINE",
"689.506 598.012 LINE"
);
},
{
closed = 1;
nodes = (
"147.257 124.048 LINE",
"141.017 89.166 LINE",
"105.002 96.551 LINE",
"104.456 125.492 LINE",
"124.814 143.937 LINE"
);
},
{
closed = 1;
nodes = (
"613.754 461.871 LINE",
"599.006 433.394 LINE",
"579.744 457.736 LINE",
"574.201 484.799 LINE",
"601.718 480.147 LINE"
);
},
{
closed = 1;
nodes = (
"237.845 398.28 LINE",
"215.05 392.119 LINE",
"199.331 404.565 LINE",
"209.243 421.994 LINE",
"228.594 420.433 LINE"
);
},
{
closed = 1;
nodes = (
"649.997 349.616 LINE",
"631.508 338.524 LINE",
"617.351 342.544 LINE",
"611.229 362.638 LINE",
"633.535 366.074 LINE"
);
},
{
closed = 1;
nodes = (
"155.756 285.144 LINE",
"99.946 293.626 LINE",
"99.373 343.214 LINE",
"137.119 369.687 LINE",
"165.375 334.488 LINE"
);
},
{
closed = 1;
nodes = (
"692.815 420.347 LINE",
"685.264 403.744 LINE",
"668.101 408.101 LINE",
"662.853 425.718 LINE",
"679.721 428.865 LINE"
);
},
{
closed = 1;
nodes = (
"167.144 500.489 LINE",
"129.902 482.923 LINE",
"109.11 515.472 LINE",
"122.761 553.9 LINE",
"155.358 533.089 LINE"
);
}
);
width = 807;
},
{
associatedMasterId = "EC64484B-0978-4CB1-9EE9-C40A2D8C4059";
background = {
paths = (
{
closed = 1;
nodes = (
"628 -10 OFFCURVE",
"758 45 OFFCURVE",
"758 258 CURVE SMOOTH",
"758 673 LINE SMOOTH",
"758 688 OFFCURVE",
"746 700 OFFCURVE",
"731 700 CURVE SMOOTH",
"526 700 LINE SMOOTH",
"511 700 OFFCURVE",
"499 688 OFFCURVE",
"499 673 CURVE",
"499 298 LINE SMOOTH",
"499 227 OFFCURVE",
"476 205 OFFCURVE",
"420 205 CURVE SMOOTH",
"405 205 OFFCURVE",
"393 193 OFFCURVE",
"393 178 CURVE SMOOTH",
"393 17 LINE SMOOTH",
"393 2 OFFCURVE",
"405 -10 OFFCURVE",
"420 -10 CURVE SMOOTH"
);
},
{
closed = 1;
nodes = (
"286 0 LINE SMOOTH",
"301 0 OFFCURVE",
"313 12 OFFCURVE",
"313 27 CURVE SMOOTH",
"313 673 LINE SMOOTH",
"313 688 OFFCURVE",
"301 700 OFFCURVE",
"286 700 CURVE SMOOTH",
"82 700 LINE SMOOTH",
"67 700 OFFCURVE",
"55 688 OFFCURVE",
"55 673 CURVE SMOOTH",
"55 27 LINE SMOOTH",
"55 12 OFFCURVE",
"67 0 OFFCURVE",
"82 0 CURVE SMOOTH"
);
}
);
};
color = 6;
hints = (
{
horizontal = 1;
place = "{0, 0}";
type = Tag;
}
);
layerId = "BF188397-8A0A-4129-8D23-C110CDC43C29";
name = "Jul 23 21, 16:38";
paths = (
{
closed = 1;
nodes = (
"628 -10 OFFCURVE",
"758 45 OFFCURVE",
"758 258 CURVE SMOOTH",
"758 673 LINE SMOOTH",
"758 688 OFFCURVE",
"746 700 OFFCURVE",
"731 700 CURVE SMOOTH",
"526 700 LINE SMOOTH",
"511 700 OFFCURVE",
"499 688 OFFCURVE",
"499 673 CURVE",
"499 298 LINE SMOOTH",
"499 227 OFFCURVE",
"476 205 OFFCURVE",
"420 205 CURVE SMOOTH",
"405 205 OFFCURVE",
"393 193 OFFCURVE",
"393 178 CURVE SMOOTH",
"393 17 LINE SMOOTH",
"393 2 OFFCURVE",
"405 -10 OFFCURVE",
"420 -10 CURVE SMOOTH"
);
},
{
closed = 1;
nodes = (
"286 0 LINE SMOOTH",
"301 0 OFFCURVE",
"313 12 OFFCURVE",
"313 27 CURVE SMOOTH",
"313 673 LINE SMOOTH",
"313 688 OFFCURVE",
"301 700 OFFCURVE",
"286 700 CURVE SMOOTH",
"82 700 LINE SMOOTH",
"67 700 OFFCURVE",
"55 688 OFFCURVE",
"55 673 CURVE SMOOTH",
"55 27 LINE SMOOTH",
"55 12 OFFCURVE",
"67 0 OFFCURVE",
"82 0 CURVE SMOOTH"
);
}
);
width = 807;
}
);
leftKerningGroup = I;
unicode = 0132;
userData = {
com.typemytype.robofont.guides = (
{
angle = 90;
isGlobal = 0;
magnetic = 5;
x = 642;
y = 0;
}
);
};
},
{
color = 6;
glyphname = Iogonek;
layers = (
{
background = {
paths = (
{
closed = 1;
nodes = (
"286 -222 LINE SMOOTH",
"301 -222 OFFCURVE",
"313 -210 OFFCURVE",
"313 -195 CURVE SMOOTH",
"313 -127 LINE SMOOTH",
"313 -112 OFFCURVE",
"301 -100 OFFCURVE",
"286 -100 CURVE SMOOTH",
"276 -100 LINE",
"237 -100 OFFCURVE",
"226 -71 OFFCURVE",
"226 -50 CURVE SMOOTH",
"226 -29 OFFCURVE",
"237 0 OFFCURVE",
"276 0 CURVE SMOOTH",
"286 0 LINE SMOOTH",
"301 0 OFFCURVE",
"313 12 OFFCURVE",
"313 27 CURVE SMOOTH",
"313 673 LINE SMOOTH",
"313 688 OFFCURVE",
"301 700 OFFCURVE",
"286 700 CURVE SMOOTH",
"82 700 LINE SMOOTH",
"67 700 OFFCURVE",
"55 688 OFFCURVE",
"55 673 CURVE SMOOTH",
"55 27 LINE SMOOTH",
"55 12 OFFCURVE",
"67 0 OFFCURVE",
"82 0 CURVE SMOOTH",
"105 0 LINE",
"102 -16 OFFCURVE",
"100 -32 OFFCURVE",
"100 -50 CURVE SMOOTH",
"100 -145 OFFCURVE",
"151 -222 OFFCURVE",
"272 -222 CURVE SMOOTH"
);
}
);
};
hints = (
{
horizontal = 1;
place = "{0, 0}";
type = Tag;
}
);
layerId = "EC64484B-0978-4CB1-9EE9-C40A2D8C4059";
paths = (
{
closed = 1;
nodes = (
"302.539 -174.781 LINE",
"293 -135 LINE",
"283.657 -89.442 LINE",
"243.87 -113.521 LINE",
"247.681 -67.02 LINE",
"206.092 -45.873 LINE",
"253.293 -37.014 LINE",
"229.844 4.898 LINE",
"266.426 -23.126 LINE",
"282.667 20 LINE",
"326.245 42.674 LINE",
"293 78.84 LINE",
"327 108.747 LINE",
"293 138.654 LINE",
"317 172.549 LINE",
"293 206.444 LINE",
"319 240.34 LINE",
"293 274.235 LINE",
"331 308.13 LINE",
"293 342.025 LINE",
"316 367.944 LINE",
"293 393.864 LINE",
"332 435.735 LINE",
"293 477.605 LINE",
"319 513.494 LINE",
"293 549.383 LINE",
"314 587.265 LINE",
"293 625.148 LINE",
"330 647.08 LINE",
"293 669.012 LINE",
"281.155 712.292 LINE",
"250 680 LINE",
"212 719 LINE",
"174 680 LINE",
"154 708 LINE",
"134 680 LINE",
"114 711 LINE",
"94 680 LINE",
"49.084 659.297 LINE",
"75 617.173 LINE",
"36 589.259 LINE",
"75 561.346 LINE",
"49 525.457 LINE",
"75 489.568 LINE",
"50 459.66 LINE",
"75 429.753 LINE",
"54 389.877 LINE",
"75 350 LINE",
"50 324.08 LINE",
"75 298.16 LINE",
"49 278.222 LINE",
"75 258.284 LINE",
"55 226.383 LINE",
"75 194.481 LINE",
"43 162.58 LINE",
"75 130.679 LINE",
"37 92.796 LINE",
"75 54.914 LINE",
"78.845 20.229 LINE",
"112.5 11 LINE",
"85.827 -32.686 LINE",
"120.828 -70.034 LINE",
"88.236 -96.631 LINE",
"128.332 -109.356 LINE",
"114.161 -146.369 LINE",
"152.846 -154.99 LINE",
"165.567 -205.421 LINE",
"216.486 -194.821 LINE"
);
},
{
closed = 1;
nodes = (
"179.336 513.368 LINE",
"165.366 511.405 LINE",
"159.182 524.084 LINE",
"169.608 531.903 LINE",
"178.19 525.507 LINE"
);
},
{
closed = 1;
nodes = (
"199.564 83.176 LINE",
"184.569 69.068 LINE",
"156.305 75.669 LINE",
"167.911 104.358 LINE",
"196.391 109.286 LINE"
);
},
{
closed = 1;
nodes = (
"140.909 102.958 LINE",
"135.835 98.058 LINE",
"125.113 99.178 LINE",
"128.748 110.474 LINE",
"138.756 111.064 LINE"
);
},
{
closed = 1;
nodes = (
"222.462 358.846 LINE",
"185.94 363.064 LINE",
"176.18 393.894 LINE",
"201.564 410.996 LINE",
"236.039 397.72 LINE"
);
},
{
closed = 1;
nodes = (
"210.326 598.685 LINE",
"197.91 606.122 LINE",
"197.101 618.466 LINE",
"208.163 618.657 LINE",
"219 612 LINE"
);
},
{
closed = 1;
nodes = (
"203.035 -85.217 LINE",
"194.732 -84.032 LINE",
"190.273 -76.929 LINE",
"197.529 -70.012 LINE",
"204.535 -76.491 LINE"
);
},
{
closed = 1;
nodes = (
"112.239 208.216 LINE",
"101.572 207.34 LINE",
"98.728 218.746 LINE",
"108.558 222.981 LINE",
"121.584 218.387 LINE"
);
},
{
closed = 1;
nodes = (
"232.97 556.849 LINE",
"214.882 543.511 LINE",
"198.42 549.83 LINE",
"197.789 568.698 LINE",
"218.167 576.672 LINE"
);
},
{
closed = 1;
nodes = (
"267.177 432.894 LINE",
"248.973 434.02 LINE",
"237.199 453.162 LINE",
"258.297 462.997 LINE",
"269.476 449.508 LINE"
);
},
{
closed = 1;
nodes = (
"139.199 429.879 LINE",
"127.675 415.046 LINE",
"109.594 429.162 LINE",
"123.171 443.329 LINE",
"138.642 445.491 LINE"
);
},
{
closed = 1;
nodes = (
"237.168 226.161 LINE",
"209.908 233.61 LINE",
"204.483 262 LINE",
"231.782 271.497 LINE",
"245.896 250.986 LINE"
);
},
{
closed = 1;
nodes = (
"140.588 626 LINE",
"122.713 624.24 LINE",
"105.11 632.909 LINE",
"119.306 647.79 LINE",
"140.606 649.052 LINE"
);
},
{
closed = 1;
nodes = (
"249.472 660.298 LINE",
"239.91 655.489 LINE",
"235 665 LINE",
"240.219 673.56 LINE",
"248.663 669.114 LINE"
);
},
{
closed = 1;
nodes = (
"175.699 307.339 LINE",
"159 303.144 LINE",
"147.437 321.158 LINE",
"164.387 341.863 LINE",
"189.839 327.168 LINE"
);
}
);
width = 368;
},
{
associatedMasterId = "EC64484B-0978-4CB1-9EE9-C40A2D8C4059";
background = {
paths = (
{
closed = 1;
nodes = (
"286 -222 LINE SMOOTH",
"301 -222 OFFCURVE",
"313 -210 OFFCURVE",
"313 -195 CURVE SMOOTH",
"313 -127 LINE SMOOTH",
"313 -112 OFFCURVE",
"301 -100 OFFCURVE",
"286 -100 CURVE SMOOTH",
"276 -100 LINE",
"237 -100 OFFCURVE",
"226 -71 OFFCURVE",
"226 -50 CURVE SMOOTH",
"226 -29 OFFCURVE",
"237 0 OFFCURVE",
"276 0 CURVE SMOOTH",
"286 0 LINE SMOOTH",
"301 0 OFFCURVE",
"313 12 OFFCURVE",
"313 27 CURVE SMOOTH",
"313 673 LINE SMOOTH",
"313 688 OFFCURVE",
"301 700 OFFCURVE",
"286 700 CURVE SMOOTH",
"82 700 LINE SMOOTH",
"67 700 OFFCURVE",
"55 688 OFFCURVE",
"55 673 CURVE SMOOTH",
"55 27 LINE SMOOTH",
"55 12 OFFCURVE",
"67 0 OFFCURVE",
"82 0 CURVE SMOOTH",
"105 0 LINE",
"102 -16 OFFCURVE",
"100 -32 OFFCURVE",
"100 -50 CURVE SMOOTH",
"100 -145 OFFCURVE",
"151 -222 OFFCURVE",
"272 -222 CURVE SMOOTH"
);
}
);
};
color = 6;
hints = (
{
horizontal = 1;
place = "{0, 0}";
type = Tag;
}
);
layerId = "1E577A47-B5AD-4737-A55C-802D509F7A6F";
name = "Jul 23 21, 16:38";
paths = (
{
closed = 1;
nodes = (
"286 -222 LINE SMOOTH",
"301 -222 OFFCURVE",
"313 -210 OFFCURVE",
"313 -195 CURVE SMOOTH",
"313 -127 LINE SMOOTH",
"313 -112 OFFCURVE",
"301 -100 OFFCURVE",
"286 -100 CURVE SMOOTH",
"276 -100 LINE",
"237 -100 OFFCURVE",
"226 -71 OFFCURVE",
"226 -50 CURVE SMOOTH",
"226 -29 OFFCURVE",
"237 0 OFFCURVE",
"276 0 CURVE SMOOTH",
"286 0 LINE SMOOTH",
"301 0 OFFCURVE",
"313 12 OFFCURVE",
"313 27 CURVE SMOOTH",
"313 673 LINE SMOOTH",
"313 688 OFFCURVE",
"301 700 OFFCURVE",
"286 700 CURVE SMOOTH",
"82 700 LINE SMOOTH",
"67 700 OFFCURVE",
"55 688 OFFCURVE",
"55 673 CURVE SMOOTH",
"55 27 LINE SMOOTH",
"55 12 OFFCURVE",
"67 0 OFFCURVE",
"82 0 CURVE SMOOTH",
"105 0 LINE",
"102 -16 OFFCURVE",
"100 -32 OFFCURVE",
"100 -50 CURVE SMOOTH",
"100 -145 OFFCURVE",
"151 -222 OFFCURVE",
"272 -222 CURVE SMOOTH"
);
}
);
width = 368;
}
);
leftKerningGroup = I;
rightKerningGroup = I;
unicode = 012E;
userData = {
com.typemytype.robofont.guides = (
{
angle = 90;
isGlobal = 0;
magnetic = 5;
x = 110;
y = 0;
}
);
};
},
{
color = 6;
glyphname = J;
layers = (
{
anchors = (
{
name = bottom;
position = "{351, 0}";
},
{
name = top;
position = "{371, 700}";
}
);
background = {
anchors = (
{
name = bottom;
position = "{351, 0}";
},
{
name = top;
position = "{371, 700}";
}
);
paths = (
{
closed = 1;
nodes = (
"509 -10 OFFCURVE",
"653 73 OFFCURVE",
"653 258 CURVE SMOOTH",
"653 673 LINE SMOOTH",
"653 688 OFFCURVE",
"641 700 OFFCURVE",
"626 700 CURVE SMOOTH",
"97 700 LINE SMOOTH",
"82 700 OFFCURVE",
"70 688 OFFCURVE",
"70 673 CURVE SMOOTH",
"70 524 LINE SMOOTH",
"70 509 OFFCURVE",
"82 497 OFFCURVE",
"97 497 CURVE SMOOTH",
"394 497 LINE",
"394 266 LINE SMOOTH",
"394 205 OFFCURVE",
"371 185 OFFCURVE",
"335 185 CURVE SMOOTH",
"302 185 OFFCURVE",
"290 198 OFFCURVE",
"277 225 CURVE SMOOTH",
"267 247 OFFCURVE",
"258 257 OFFCURVE",
"236 257 CURVE SMOOTH",
"32 257 LINE SMOOTH",
"20 257 OFFCURVE",
"10 247 OFFCURVE",
"10 235 CURVE SMOOTH",
"13 78 OFFCURVE",
"162 -10 OFFCURVE",
"327 -10 CURVE SMOOTH"
);
}
);
};
hints = (
{
horizontal = 1;
place = "{0, 0}";
type = Tag;
}
);
layerId = "EC64484B-0978-4CB1-9EE9-C40A2D8C4059";
paths = (
{
closed = 1;
nodes = (
"373.773 -20.301 LINE",
"415.021 17.174 LINE",
"450.651 -0.522 LINE",
"473.35 32.149 LINE",
"510.374 8.099 LINE",
"517.382 51.689 LINE",
"565.641 44.304 LINE",
"571.677 92.751 LINE",
"602.977 99.088 LINE",
"600.929 130.958 LINE",
"636.625 136.293 LINE",
"618.065 167.247 LINE",
"656.165 191.754 LINE",
"631.736 229.904 LINE",
"654.357 249.244 LINE",
"633 269.971 LINE",
"666 301.894 LINE",
"633 333.817 LINE",
"662 365.74 LINE",
"633 397.663 LINE",
"672 417.615 LINE",
"633 437.567 LINE",
"656 465.5 LINE",
"633 493.433 LINE",
"664 535.332 LINE",
"633 577.231 LINE",
"654 605.163 LINE",
"633 633.096 LINE",
"650.294 664.446 LINE",
"618.045 680 LINE",
"588.214 711 LINE",
"558.383 680 LINE",
"532.53 703 LINE",
"506.677 680 LINE",
"466.902 700 LINE",
"427.128 680 LINE",
"397.297 714 LINE",
"367.466 680 LINE",
"335.647 713 LINE",
"303.827 680 LINE",
"281.951 704 LINE",
"260.075 680 LINE",
"236.211 705 LINE",
"212.346 680 LINE",
"178.538 716 LINE",
"144.729 680 LINE",
"107.157 710.219 LINE",
"90 665.158 LINE",
"62 631.829 LINE",
"90 598.5 LINE",
"57 565.171 LINE",
"90 531.842 LINE",
"103.303 492.976 LINE",
"136.625 517 LINE",
"160.4 489 LINE",
"184.175 517 LINE",
"209.931 491 LINE",
"235.688 517 LINE",
"277.294 488 LINE",
"318.9 517 LINE",
"344.656 497 LINE",
"370.412 517 LINE",
"382.935 483.674 LINE",
"414 501.063 LINE",
"375 463.214 LINE",
"414 425.365 LINE",
"378 387.516 LINE",
"414 349.667 LINE",
"393 321.778 LINE",
"414 293.889 LINE",
"378.749 265.231 LINE",
"411.437 233.682 LINE",
"373.833 216.918 LINE",
"377.665 175.926 LINE",
"336.232 211.749 LINE",
"298.887 171.682 LINE",
"303.445 206.773 LINE",
"268.921 199.008 LINE",
"263.638 238.314 LINE",
"224 237 LINE",
"184 259 LINE",
"144 237 LINE",
"124 276 LINE",
"104 237 LINE",
"66.108 268.988 LINE",
"30 235 LINE",
"0.685 189.973 LINE",
"45.724 160.675 LINE",
"42.997 126.32 LINE",
"74.58 112.526 LINE",
"65.469 75.86 LINE",
"102.45 83.597 LINE",
"119.646 43.812 LINE",
"162.986 44.283 LINE",
"176.389 -0.216 LINE",
"215.676 24.61 LINE",
"245.416 -2.27 LINE",
"282.822 12.143 LINE"
);
},
{
closed = 1;
nodes = (
"536.993 270.384 LINE",
"530.788 256.844 LINE",
"517.332 263.228 LINE",
"516.052 276.71 LINE",
"528.481 278.651 LINE"
);
},
{
closed = 1;
nodes = (
"585.273 519.682 LINE",
"560.006 510.026 LINE",
"538.784 523.047 LINE",
"547.384 549.967 LINE",
"572.957 543.766 LINE"
);
},
{
closed = 1;
nodes = (
"292.535 579.308 LINE",
"287.151 566.881 LINE",
"276.075 569.696 LINE",
"269.724 580.104 LINE",
"281.384 586.993 LINE"
);
},
{
closed = 1;
nodes = (
"562.474 619.126 LINE",
"532.75 613.517 LINE",
"529.647 641.918 LINE",
"547.267 650.981 LINE",
"567.605 644.526 LINE"
);
},
{
closed = 1;
nodes = (
"211.665 140.571 LINE",
"196.815 139.434 LINE",
"194.954 154.689 LINE",
"206.959 160.958 LINE",
"217.692 152.699 LINE"
);
},
{
closed = 1;
nodes = (
"437.045 561.241 LINE",
"390.058 551.016 LINE",
"359.278 568.904 LINE",
"364.159 617.794 LINE",
"410.701 603.216 LINE"
);
},
{
closed = 1;
nodes = (
"233.429 193.335 LINE",
"221.526 188.282 LINE",
"211.049 197.867 LINE",
"218.139 212.808 LINE",
"230.792 204.905 LINE"
);
},
{
closed = 1;
nodes = (
"626.711 232.299 LINE",
"614.103 217.522 LINE",
"594.107 214.613 LINE",
"594.518 235.576 LINE",
"609.948 242.864 LINE"
);
},
{
closed = 1;
nodes = (
"586.87 423.403 LINE",
"551.365 428.009 LINE",
"543.367 452.816 LINE",
"560.319 470.836 LINE",
"594.721 463.792 LINE"
);
},
{
closed = 1;
nodes = (
"356.757 107.521 LINE",
"335.82 89.334 LINE",
"310.809 99.733 LINE",
"313.297 129.061 LINE",
"338.137 123.583 LINE"
);
},
{
closed = 1;
nodes = (
"415.961 114.419 LINE",
"386.775 127.305 LINE",
"390.011 154.343 LINE",
"415.343 167.679 LINE",
"425 142 LINE"
);
},
{
closed = 1;
nodes = (
"240.992 543.546 LINE",
"230.756 534.387 LINE",
"212.248 533.375 LINE",
"216.18 553.235 LINE",
"233.472 559.035 LINE"
);
},
{
closed = 1;
nodes = (
"617.405 585.056 LINE",
"600.359 587.483 LINE",
"588.979 604.18 LINE",
"608 613 LINE",
"628.923 604.798 LINE"
);
},
{
closed = 1;
nodes = (
"290 59 LINE",
"277.017 46.636 LINE",
"256.011 46.657 LINE",
"256.82 70.756 LINE",
"277.017 71.364 LINE"
);
},
{
closed = 1;
nodes = (
"597.778 294.184 LINE",
"582.503 281.197 LINE",
"566.635 290.19 LINE",
"569.393 307.607 LINE",
"586.81 310.365 LINE"
);
}
);
width = 702;
},
{
anchors = (
{
name = bottom;
position = "{351, 0}";
},
{
name = top;
position = "{371, 700}";
}
);
associatedMasterId = "EC64484B-0978-4CB1-9EE9-C40A2D8C4059";
background = {
anchors = (
{
name = bottom;
position = "{351, 0}";
},
{
name = top;
position = "{371, 700}";
}
);
paths = (
{
closed = 1;
nodes = (
"509 -10 OFFCURVE",
"653 73 OFFCURVE",
"653 258 CURVE SMOOTH",
"653 673 LINE SMOOTH",
"653 688 OFFCURVE",
"641 700 OFFCURVE",
"626 700 CURVE SMOOTH",
"97 700 LINE SMOOTH",
"82 700 OFFCURVE",
"70 688 OFFCURVE",
"70 673 CURVE SMOOTH",
"70 524 LINE SMOOTH",
"70 509 OFFCURVE",
"82 497 OFFCURVE",
"97 497 CURVE SMOOTH",
"394 497 LINE",
"394 266 LINE SMOOTH",
"394 205 OFFCURVE",
"371 185 OFFCURVE",
"335 185 CURVE SMOOTH",
"302 185 OFFCURVE",
"290 198 OFFCURVE",
"277 225 CURVE SMOOTH",
"267 247 OFFCURVE",
"258 257 OFFCURVE",
"236 257 CURVE SMOOTH",
"32 257 LINE SMOOTH",
"20 257 OFFCURVE",
"10 247 OFFCURVE",
"10 235 CURVE SMOOTH",
"13 78 OFFCURVE",
"162 -10 OFFCURVE",
"327 -10 CURVE SMOOTH"
);
}
);
};
color = 6;
hints = (
{
horizontal = 1;
place = "{0, 0}";
type = Tag;
}
);
layerId = "CB3CEF58-612C-4D8D-BEC2-EF34EC75248E";
name = "Jul 23 21, 16:38";
paths = (
{
closed = 1;
nodes = (
"509 -10 OFFCURVE",
"653 73 OFFCURVE",
"653 258 CURVE SMOOTH",
"653 673 LINE SMOOTH",
"653 688 OFFCURVE",
"641 700 OFFCURVE",
"626 700 CURVE SMOOTH",
"97 700 LINE SMOOTH",
"82 700 OFFCURVE",
"70 688 OFFCURVE",
"70 673 CURVE SMOOTH",
"70 524 LINE SMOOTH",
"70 509 OFFCURVE",
"82 497 OFFCURVE",
"97 497 CURVE SMOOTH",
"394 497 LINE",
"394 266 LINE SMOOTH",
"394 205 OFFCURVE",
"371 185 OFFCURVE",
"335 185 CURVE SMOOTH",
"302 185 OFFCURVE",
"290 198 OFFCURVE",
"277 225 CURVE SMOOTH",
"267 247 OFFCURVE",
"258 257 OFFCURVE",
"236 257 CURVE SMOOTH",
"32 257 LINE SMOOTH",
"20 257 OFFCURVE",
"10 247 OFFCURVE",
"10 235 CURVE SMOOTH",
"13 78 OFFCURVE",
"162 -10 OFFCURVE",
"327 -10 CURVE SMOOTH"
);
}
);
width = 702;
}
);
leftKerningGroup = J;
rightKerningGroup = U;
unicode = 004A;
userData = {
com.typemytype.robofont.guides = (
{
angle = 0;
isGlobal = 0;
magnetic = 5;
x = 0;
y = "-10";
},
{
angle = 0;
isGlobal = 0;
magnetic = 5;
x = 0;
y = 133;
},
{
angle = 0;
isGlobal = 0;
magnetic = 5;
x = 0;
y = 677;
},
{
angle = 90;
isGlobal = 0;
magnetic = 5;
x = 303;
y = 0;
},
{
angle = 90;
isGlobal = 0;
magnetic = 5;
x = 60;
y = 0;
},
{
angle = 90;
isGlobal = 0;
magnetic = 5;
x = 91;
y = 0;
}
);
};
},
{
color = 6;
glyphname = K;
layers = (
{
anchors = (
{
name = bottom;
position = "{358, 0}";
},
{
name = top;
position = "{358, 700}";
}
);
background = {
anchors = (
{
name = bottom;
position = "{358, 0}";
},
{
name = top;
position = "{358, 700}";
}
);
paths = (
{
closed = 1;
nodes = (
"273 0 LINE SMOOTH",
"288 0 OFFCURVE",
"300 12 OFFCURVE",
"300 27 CURVE SMOOTH",
"300 241 LINE",
"422 23 LINE SMOOTH",
"425 17 OFFCURVE",
"436 0 OFFCURVE",
"463 0 CURVE SMOOTH",
"691 0 LINE SMOOTH",
"703 0 OFFCURVE",
"713 10 OFFCURVE",
"713 22 CURVE SMOOTH",
"713 25 OFFCURVE",
"712 30 OFFCURVE",
"710 33 CURVE SMOOTH",
"513 365 LINE",
"693 667 LINE SMOOTH",
"695 670 OFFCURVE",
"696 674 OFFCURVE",
"696 678 CURVE SMOOTH",
"696 690 OFFCURVE",
"686 700 OFFCURVE",
"674 700 CURVE SMOOTH",
"453 700 LINE SMOOTH",
"431 700 OFFCURVE",
"419 689 OFFCURVE",
"413 678 CURVE SMOOTH",
"300 475 LINE",
"300 673 LINE SMOOTH",
"300 688 OFFCURVE",
"288 700 OFFCURVE",
"273 700 CURVE SMOOTH",
"82 700 LINE SMOOTH",
"67 700 OFFCURVE",
"55 688 OFFCURVE",
"55 673 CURVE SMOOTH",
"55 27 LINE SMOOTH",
"55 12 OFFCURVE",
"67 0 OFFCURVE",
"82 0 CURVE SMOOTH"
);
}
);
};
layerId = "EC64484B-0978-4CB1-9EE9-C40A2D8C4059";
paths = (
{
closed = 1;
nodes = (
"103.885 -17 LINE",
"125.771 20 LINE",
"155.615 -12 LINE",
"185.458 20 LINE",
"219.281 -11 LINE",
"253.104 20 LINE",
"286.562 31.773 LINE",
"280 66.63 LINE",
"304.5 90.407 LINE",
"280 114.185 LINE",
"306.6 135.981 LINE",
"280 157.778 LINE",
"306.6 189.481 LINE",
"280 221.185 LINE",
"312.108 201.812 LINE",
"324.81 237.095 LINE",
"318.335 201.45 LINE",
"352.143 188.429 LINE",
"353.48 150.311 LINE",
"385.333 129.333 LINE",
"385.694 92.954 LINE",
"416.571 73.714 LINE",
"400.369 26.975 LINE",
"449.646 22.621 LINE",
"480.92 -13.661 LINE",
"515 20 LINE",
"539 -18 LINE",
"563 20 LINE",
"599 -17 LINE",
"635 20 LINE",
"655 -2 LINE",
"675 20 LINE",
"705.251 49.498 LINE",
"666.61 66.59 LINE",
"671.73 108.987 LINE",
"632.1 124.9 LINE",
"645.826 172.391 LINE",
"597.59 183.21 LINE",
"610.367 218.56 LINE",
"573.23 224.37 LINE",
"585.455 254.762 LINE",
"552.93 258.67 LINE",
"553.129 307.418 LINE",
"510.3 330.7 LINE",
"529.19 362.864 LINE",
"506.174 392.217 LINE",
"545.105 399.006 LINE",
"532.457 436.446 LINE",
"561.629 444.43 LINE",
"554.696 473.87 LINE",
"597.67 487.462 LINE",
"589.065 531.707 LINE",
"624.152 547.685 LINE",
"621.413 586.141 LINE",
"655.338 598.207 LINE",
"649.717 633.772 LINE",
"684.908 638.18 LINE",
"671.957 671.196 LINE",
"647.339 701.295 LINE",
"614.804 680 LINE",
"595.071 700 LINE",
"575.339 680 LINE",
"555.607 700 LINE",
"535.875 680 LINE",
"514.17 707 LINE",
"492.464 680 LINE",
"451.748 698.419 LINE",
"427.136 661.119 LINE",
"388.701 660.074 LINE",
"407.814 626.712 LINE",
"377.655 618.756 LINE",
"386.559 588.864 LINE",
"346.332 572.986 LINE",
"353.712 530.373 LINE",
"327.013 511.423 LINE",
"324.729 478.763 LINE",
"303.36 498.028 LINE",
"291.1 472 LINE",
"301.275 500.715 LINE",
"280 522.52 LINE",
"303.1 548.26 LINE",
"280 574 LINE",
"303.8 607.66 LINE",
"280 641.32 LINE",
"294.712 666.394 LINE",
"269.021 680 LINE",
"229.229 719 LINE",
"189.438 680 LINE",
"151.635 702 LINE",
"113.833 680 LINE",
"78.282 666.887 LINE",
"75 629.136 LINE",
"43 591.253 LINE",
"75 553.37 LINE",
"55 511.5 LINE",
"75 469.63 LINE",
"44 435.735 LINE",
"75 401.84 LINE",
"37 365.951 LINE",
"75 330.062 LINE",
"52 298.16 LINE",
"75 266.259 LINE",
"40 224.389 LINE",
"75 182.519 LINE",
"48 150.617 LINE",
"75 118.716 LINE",
"55 78.84 LINE",
"75 38.963 LINE"
);
},
{
closed = 1;
nodes = (
"217.983 137.008 LINE",
"185.891 125.059 LINE",
"157.055 156.093 LINE",
"185.871 195.535 LINE",
"234.74 178.509 LINE"
);
},
{
closed = 1;
nodes = (
"516.792 503.279 LINE",
"474.94 509.766 LINE",
"446.024 566.028 LINE",
"512.685 589.971 LINE",
"567.508 543.043 LINE"
);
},
{
closed = 1;
nodes = (
"249.204 306.024 LINE",
"201.24 270.689 LINE",
"174.443 320.368 LINE",
"191.84 361.64 LINE",
"258.79 374.79 LINE"
);
},
{
closed = 1;
nodes = (
"495.301 186 LINE",
"432.872 121.01 LINE",
"371.444 202.533 LINE",
"414.173 295.96 LINE",
"512.938 265.869 LINE"
);
},
{
closed = 1;
nodes = (
"371.222 329.339 LINE",
"362.268 326.038 LINE",
"352.24 330.713 LINE",
"359.5 339.062 LINE",
"369.022 339.688 LINE"
);
},
{
closed = 1;
nodes = (
"214.011 607.691 LINE",
"202.369 605.393 LINE",
"193.002 613.791 LINE",
"201.419 624.401 LINE",
"212.986 620.018 LINE"
);
},
{
closed = 1;
nodes = (
"432.482 380.654 LINE",
"391.134 392.812 LINE",
"368.771 442.18 LINE",
"425.35 464.1 LINE",
"478.53 423.678 LINE"
);
},
{
closed = 1;
nodes = (
"572.451 36.447 LINE",
"518.167 55.786 LINE",
"516.549 113.389 LINE",
"570.288 124.895 LINE",
"596 84 LINE"
);
},
{
closed = 1;
nodes = (
"201.059 507.543 LINE",
"162.294 468.205 LINE",
"118.281 510.752 LINE",
"148.974 552 LINE",
"197.835 557.471 LINE"
);
},
{
closed = 1;
nodes = (
"135.456 593.351 LINE",
"118.371 591.222 LINE",
"115.708 608.232 LINE",
"128.244 617.998 LINE",
"144.257 608.97 LINE"
);
},
{
closed = 1;
nodes = (
"476.848 84.264 LINE",
"469.227 70.156 LINE",
"449.923 77.671 LINE",
"455.885 97.509 LINE",
"472.164 95.712 LINE"
);
}
);
width = 715;
},
{
anchors = (
{
name = bottom;
position = "{358, 0}";
},
{
name = top;
position = "{358, 700}";
}
);
associatedMasterId = "EC64484B-0978-4CB1-9EE9-C40A2D8C4059";
background = {
anchors = (
{
name = bottom;
position = "{358, 0}";
},
{
name = top;
position = "{358, 700}";
}
);
paths = (
{
closed = 1;
nodes = (
"273 0 LINE SMOOTH",
"288 0 OFFCURVE",
"300 12 OFFCURVE",
"300 27 CURVE SMOOTH",
"300 241 LINE",
"422 23 LINE SMOOTH",
"425 17 OFFCURVE",
"436 0 OFFCURVE",
"463 0 CURVE SMOOTH",
"691 0 LINE SMOOTH",
"703 0 OFFCURVE",
"713 10 OFFCURVE",
"713 22 CURVE SMOOTH",
"713 25 OFFCURVE",
"712 30 OFFCURVE",
"710 33 CURVE SMOOTH",
"513 365 LINE",
"693 667 LINE SMOOTH",
"695 670 OFFCURVE",
"696 674 OFFCURVE",
"696 678 CURVE SMOOTH",
"696 690 OFFCURVE",
"686 700 OFFCURVE",
"674 700 CURVE SMOOTH",
"453 700 LINE SMOOTH",
"431 700 OFFCURVE",
"419 689 OFFCURVE",
"413 678 CURVE SMOOTH",
"300 475 LINE",
"300 673 LINE SMOOTH",
"300 688 OFFCURVE",
"288 700 OFFCURVE",
"273 700 CURVE SMOOTH",
"82 700 LINE SMOOTH",
"67 700 OFFCURVE",
"55 688 OFFCURVE",
"55 673 CURVE SMOOTH",
"55 27 LINE SMOOTH",
"55 12 OFFCURVE",
"67 0 OFFCURVE",
"82 0 CURVE SMOOTH"
);
}
);
};
color = 6;
layerId = "18E8668A-D3B0-4FA0-9A45-B66E823764E3";
name = "Jul 23 21, 16:38";
paths = (
{
closed = 1;
nodes = (
"273 0 LINE SMOOTH",
"288 0 OFFCURVE",
"300 12 OFFCURVE",
"300 27 CURVE SMOOTH",
"300 241 LINE",
"422 23 LINE SMOOTH",
"425 17 OFFCURVE",
"436 0 OFFCURVE",
"463 0 CURVE SMOOTH",
"691 0 LINE SMOOTH",
"703 0 OFFCURVE",
"713 10 OFFCURVE",
"713 22 CURVE SMOOTH",
"713 25 OFFCURVE",
"712 30 OFFCURVE",
"710 33 CURVE SMOOTH",
"513 365 LINE",
"693 667 LINE SMOOTH",
"695 670 OFFCURVE",
"696 674 OFFCURVE",
"696 678 CURVE SMOOTH",
"696 690 OFFCURVE",
"686 700 OFFCURVE",
"674 700 CURVE SMOOTH",
"453 700 LINE SMOOTH",
"431 700 OFFCURVE",
"419 689 OFFCURVE",
"413 678 CURVE SMOOTH",
"300 475 LINE",
"300 673 LINE SMOOTH",
"300 688 OFFCURVE",
"288 700 OFFCURVE",
"273 700 CURVE SMOOTH",
"82 700 LINE SMOOTH",
"67 700 OFFCURVE",
"55 688 OFFCURVE",
"55 673 CURVE SMOOTH",
"55 27 LINE SMOOTH",
"55 12 OFFCURVE",
"67 0 OFFCURVE",
"82 0 CURVE SMOOTH"
);
}
);
width = 715;
}
);
leftKerningGroup = I;
rightKerningGroup = K;
unicode = 004B;
userData = {
com.typemytype.robofont.guides = (
{
angle = 0;
isGlobal = 0;
magnetic = 5;
x = 0;
y = 365;
},
{
angle = 90;
isGlobal = 0;
magnetic = 5;
x = 547;
y = 0;
},
{
angle = 90;
isGlobal = 0;
magnetic = 5;
x = 94;
y = 0;
},
{
angle = 90;
isGlobal = 0;
magnetic = 5;
x = 139;
y = 0;
}
);
};
},
{
color = 6;
glyphname = L;
layers = (
{
anchors = (
{
name = bottom;
position = "{313, 0}";
},
{
name = center;
position = "{313, 350}";
},
{
name = top;
position = "{173, 700}";
},
{
name = topright;
position = "{486, 649}";
}
);
background = {
anchors = (
{
name = bottom;
position = "{313, 0}";
},
{
name = center;
position = "{313, 350}";
},
{
name = top;
position = "{173, 700}";
},
{
name = topright;
position = "{486, 649}";
}
);
paths = (
{
closed = 1;
nodes = (
"586 0 LINE SMOOTH",
"601 0 OFFCURVE",
"613 12 OFFCURVE",
"613 27 CURVE SMOOTH",
"613 178 LINE SMOOTH",
"613 193 OFFCURVE",
"601 205 OFFCURVE",
"586 205 CURVE SMOOTH",
"309 205 LINE",
"309 673 LINE SMOOTH",
"309 688 OFFCURVE",
"297 700 OFFCURVE",
"282 700 CURVE SMOOTH",
"82 700 LINE SMOOTH",
"67 700 OFFCURVE",
"55 688 OFFCURVE",
"55 673 CURVE SMOOTH",
"55 27 LINE SMOOTH",
"55 12 OFFCURVE",
"67 0 OFFCURVE",
"82 0 CURVE SMOOTH"
);
}
);
};
layerId = "EC64484B-0978-4CB1-9EE9-C40A2D8C4059";
paths = (
{
closed = 1;
nodes = (
"104 -5 LINE",
"126 20 LINE",
"148 -7 LINE",
"170 20 LINE",
"212 -6 LINE",
"254 20 LINE",
"288 -9 LINE",
"322 20 LINE",
"362 -3 LINE",
"402 20 LINE",
"436 -8 LINE",
"470 20 LINE",
"508 -6 LINE",
"546 20 LINE",
"580.194 26.438 LINE",
"593 58.789 LINE",
"632 78.658 LINE",
"593 98.526 LINE",
"624 118.395 LINE",
"593 138.263 LINE",
"607.965 166.426 LINE",
"582.04 185 LINE",
"546.4 209 LINE",
"510.76 185 LINE",
"490.96 209 LINE",
"471.16 185 LINE",
"441.46 223 LINE",
"411.76 185 LINE",
"391.96 222 LINE",
"372.16 185 LINE",
"336.52 212 LINE",
"300.88 185 LINE",
"328.491 214.965 LINE",
"289 225 LINE",
"311 245 LINE",
"289 265 LINE",
"314 287 LINE",
"289 309 LINE",
"311 349 LINE",
"289 389 LINE",
"324 409 LINE",
"289 429 LINE",
"311 457 LINE",
"289 485 LINE",
"316 527 LINE",
"289 569 LINE",
"311 603 LINE",
"289 637 LINE",
"305.24 661.714 LINE",
"282 680 LINE",
"240 712 LINE",
"198 680 LINE",
"178 710 LINE",
"158 680 LINE",
"122 700 LINE",
"86 680 LINE",
"54.11 660.275 LINE",
"75 629.136 LINE",
"42 595.241 LINE",
"75 561.346 LINE",
"50 535.426 LINE",
"75 509.506 LINE",
"50 475.611 LINE",
"75 441.716 LINE",
"51 415.796 LINE",
"75 389.877 LINE",
"38 353.988 LINE",
"75 318.099 LINE",
"43 288.191 LINE",
"75 258.284 LINE",
"49 226.383 LINE",
"75 194.481 LINE",
"45 154.605 LINE",
"75 114.728 LINE",
"44 88.809 LINE",
"75 62.889 LINE"
);
},
{
closed = 1;
nodes = (
"235.743 540.329 LINE",
"224.316 524.142 LINE",
"211.124 537.929 LINE",
"212.452 553.239 LINE",
"231.211 559.618 LINE"
);
},
{
closed = 1;
nodes = (
"101.69 463.795 LINE",
"94.523 451.009 LINE",
"80.844 461.212 LINE",
"87.228 474.668 LINE",
"100.71 475.948 LINE"
);
},
{
closed = 1;
nodes = (
"147.465 615.355 LINE",
"137.949 598.279 LINE",
"123.572 603.34 LINE",
"114.238 617.368 LINE",
"130.907 623.968 LINE"
);
},
{
closed = 1;
nodes = (
"128.965 383.814 LINE",
"110.581 366.004 LINE",
"89.005 383.275 LINE",
"103.544 400.649 LINE",
"124.24 407.57 LINE"
);
},
{
closed = 1;
nodes = (
"170.454 513.5 LINE",
"148.594 497.568 LINE",
"131.126 520.596 LINE",
"144.645 544.012 LINE",
"167.377 535.044 LINE"
);
},
{
closed = 1;
nodes = (
"389.739 69.424 LINE",
"355.989 41.052 LINE",
"311.055 62.515 LINE",
"323.793 116.303 LINE",
"380.143 119.256 LINE"
);
},
{
closed = 1;
nodes = (
"562.368 90.448 LINE",
"536.789 91.382 LINE",
"530.294 111.053 LINE",
"543.684 126.858 LINE",
"572.283 120.256 LINE"
);
},
{
closed = 1;
nodes = (
"207.997 124.583 LINE",
"192.743 121.715 LINE",
"193.975 138.889 LINE",
"208.871 147.525 LINE",
"214.976 132.698 LINE"
);
},
{
closed = 1;
nodes = (
"260.915 203.47 LINE",
"238.394 204.948 LINE",
"236.679 229 LINE",
"259.198 243.454 LINE",
"278.863 221.613 LINE"
);
},
{
closed = 1;
nodes = (
"217.549 364.077 LINE",
"203.266 356.063 LINE",
"195.019 371.733 LINE",
"205.635 383.557 LINE",
"217.387 376.446 LINE"
);
},
{
closed = 1;
nodes = (
"238.996 77.529 LINE",
"216.97 61.743 LINE",
"199.713 69.396 LINE",
"195.229 90.638 LINE",
"220.465 102.583 LINE"
);
}
);
width = 626;
},
{
anchors = (
{
name = bottom;
position = "{313, 0}";
},
{
name = center;
position = "{313, 350}";
},
{
name = top;
position = "{173, 700}";
},
{
name = topright;
position = "{486, 649}";
}
);
associatedMasterId = "EC64484B-0978-4CB1-9EE9-C40A2D8C4059";
background = {
anchors = (
{
name = bottom;
position = "{313, 0}";
},
{
name = center;
position = "{313, 350}";
},
{
name = top;
position = "{173, 700}";
},
{
name = topright;
position = "{486, 649}";
}
);
paths = (
{
closed = 1;
nodes = (
"586 0 LINE SMOOTH",
"601 0 OFFCURVE",
"613 12 OFFCURVE",
"613 27 CURVE SMOOTH",
"613 178 LINE SMOOTH",
"613 193 OFFCURVE",
"601 205 OFFCURVE",
"586 205 CURVE SMOOTH",
"309 205 LINE",
"309 673 LINE SMOOTH",
"309 688 OFFCURVE",
"297 700 OFFCURVE",
"282 700 CURVE SMOOTH",
"82 700 LINE SMOOTH",
"67 700 OFFCURVE",
"55 688 OFFCURVE",
"55 673 CURVE SMOOTH",
"55 27 LINE SMOOTH",
"55 12 OFFCURVE",
"67 0 OFFCURVE",
"82 0 CURVE SMOOTH"
);
}
);
};
color = 6;
layerId = "38718274-2613-47DB-95E4-2D59496695C3";
name = "Jul 23 21, 16:38";
paths = (
{
closed = 1;
nodes = (
"586 0 LINE SMOOTH",
"601 0 OFFCURVE",
"613 12 OFFCURVE",
"613 27 CURVE SMOOTH",
"613 178 LINE SMOOTH",
"613 193 OFFCURVE",
"601 205 OFFCURVE",
"586 205 CURVE SMOOTH",
"309 205 LINE",
"309 673 LINE SMOOTH",
"309 688 OFFCURVE",
"297 700 OFFCURVE",
"282 700 CURVE SMOOTH",
"82 700 LINE SMOOTH",
"67 700 OFFCURVE",
"55 688 OFFCURVE",
"55 673 CURVE SMOOTH",
"55 27 LINE SMOOTH",
"55 12 OFFCURVE",
"67 0 OFFCURVE",
"82 0 CURVE SMOOTH"
);
}
);
width = 626;
}
);
leftKerningGroup = I;
rightKerningGroup = L;
unicode = 004C;
},
{
color = 6;
glyphname = Lslash;
layers = (
{
background = {
paths = (
{
closed = 1;
nodes = (
"594 0 LINE SMOOTH",
"609 0 OFFCURVE",
"621 12 OFFCURVE",
"621 27 CURVE SMOOTH",
"621 178 LINE SMOOTH",
"621 193 OFFCURVE",
"609 205 OFFCURVE",
"594 205 CURVE SMOOTH",
"317 205 LINE",
"317 325 LINE",
"472 386 LINE SMOOTH",
"488 392 OFFCURVE",
"494 401 OFFCURVE",
"494 419 CURVE SMOOTH",
"494 527 LINE SMOOTH",
"494 539 OFFCURVE",
"485 548 OFFCURVE",
"473 548 CURVE SMOOTH",
"471 548 OFFCURVE",
"467 547 OFFCURVE",
"462 545 CURVE SMOOTH",
"317 488 LINE",
"317 673 LINE SMOOTH",
"317 688 OFFCURVE",
"305 700 OFFCURVE",
"290 700 CURVE SMOOTH",
"90 700 LINE SMOOTH",
"75 700 OFFCURVE",
"63 688 OFFCURVE",
"63 673 CURVE SMOOTH",
"63 388 LINE",
"35 377 LINE SMOOTH",
"19 371 OFFCURVE",
"13 362 OFFCURVE",
"13 344 CURVE SMOOTH",
"13 236 LINE SMOOTH",
"13 224 OFFCURVE",
"22 215 OFFCURVE",
"34 215 CURVE SMOOTH",
"36 215 OFFCURVE",
"40 216 OFFCURVE",
"45 218 CURVE SMOOTH",
"63 225 LINE",
"63 27 LINE SMOOTH",
"63 12 OFFCURVE",
"75 0 OFFCURVE",
"90 0 CURVE SMOOTH"
);
}
);
};
hints = (
{
horizontal = 1;
place = "{0, 0}";
type = Tag;
}
);
layerId = "EC64484B-0978-4CB1-9EE9-C40A2D8C4059";
paths = (
{
closed = 1;
nodes = (
"118 -4 LINE",
"146 20 LINE",
"184 -17 LINE",
"222 20 LINE",
"258 -16 LINE",
"294 20 LINE",
"332 -9 LINE",
"370 20 LINE",
"398 -13 LINE",
"426 20 LINE",
"456 -8 LINE",
"486 20 LINE",
"522 -5 LINE",
"558 20 LINE",
"591.977 -8.42 LINE",
"601 34.947 LINE",
"636 54.816 LINE",
"601 74.684 LINE",
"637 106.474 LINE",
"601 138.263 LINE",
"607.032 172.774 LINE",
"574.2 185 LINE",
"534.6 218 LINE",
"495 185 LINE",
"463.32 208 LINE",
"431.64 185 LINE",
"409.86 223 LINE",
"388.08 185 LINE",
"366.3 200.4 LINE",
"344.52 185 LINE",
"337.529 225.192 LINE",
"297 220.538 LINE",
"325 242.256 LINE",
"297 263.974 LINE",
"330 299.513 LINE",
"297 335.051 LINE",
"338.217 326.933 LINE",
"359.087 363.391 LINE",
"404.389 344.659 LINE",
"424.826 389.217 LINE",
"454.419 379.408 LINE",
"469.31 406.798 LINE",
"510.437 424.784 LINE",
"474 451 LINE",
"508 483 LINE",
"474 515 LINE",
"439.783 534.441 LINE",
"414.106 504.617 LINE",
"368.814 518.097 LINE",
"344.574 477.532 LINE",
"318.464 490.849 LINE",
"297 470.889 LINE",
"317.3 500.611 LINE",
"297 530.333 LINE",
"324 558.074 LINE",
"297 585.815 LINE",
"333 627.426 LINE",
"297 669.037 LINE",
"281.923 699.713 LINE",
"254 680 LINE",
"214 712 LINE",
"174 680 LINE",
"144 715 LINE",
"114 680 LINE",
"83.507 688.781 LINE",
"83 657.053 LINE",
"45 623.167 LINE",
"83 589.28 LINE",
"55 559.38 LINE",
"83 529.48 LINE",
"62 499.58 LINE",
"83 469.68 LINE",
"57 441.773 LINE",
"83 413.867 LINE",
"40.463 404.131 LINE",
"59.083 364.667 LINE",
"23.852 370.523 LINE",
"33 336 LINE",
"-5 312 LINE",
"33 288 LINE",
"15.595 260.549 LINE",
"38 237 LINE",
"66.437 229.784 LINE",
"83 254 LINE",
"63 212.184 LINE",
"83 170.368 LINE",
"63 146.474 LINE",
"83 122.579 LINE",
"47 96.693 LINE",
"83 70.807 LINE"
);
},
{
closed = 1;
nodes = (
"464.812 118.677 LINE",
"448.787 72.534 LINE",
"405.431 84.487 LINE",
"404.675 117.616 LINE",
"428.511 144.912 LINE"
);
},
{
closed = 1;
nodes = (
"239.509 292.678 LINE",
"167.443 279.105 LINE",
"150.005 333.628 LINE",
"170.504 383.684 LINE",
"232.692 365.694 LINE"
);
},
{
closed = 1;
nodes = (
"151.912 221.672 LINE",
"146.168 197.161 LINE",
"124.11 209.294 LINE",
"118.679 230 LINE",
"140.366 240.541 LINE"
);
},
{
closed = 1;
nodes = (
"428.12 401.287 LINE",
"406.679 397.556 LINE",
"401.071 415.359 LINE",
"410.881 428.672 LINE",
"423.526 419.5 LINE"
);
},
{
closed = 1;
nodes = (
"446 495 LINE",
"438.163 488.343 LINE",
"428.719 489.71 LINE",
"426.292 502.053 LINE",
"439.708 506.413 LINE"
);
},
{
closed = 1;
nodes = (
"323.258 111.943 LINE",
"283.423 108.423 LINE",
"270.905 156.43 LINE",
"315.849 166.618 LINE",
"340.631 140.693 LINE"
);
},
{
closed = 1;
nodes = (
"227.412 469.106 LINE",
"214.423 429.764 LINE",
"175.54 441.059 LINE",
"170.623 474.833 LINE",
"200.509 499.724 LINE"
);
},
{
closed = 1;
nodes = (
"539.988 84.616 LINE",
"529.469 78.107 LINE",
"520.167 87.09 LINE",
"526.775 96.947 LINE",
"538.641 96.913 LINE"
);
},
{
closed = 1;
nodes = (
"181.313 98.823 LINE",
"135.404 83.384 LINE",
"114.653 131.467 LINE",
"151.294 164.601 LINE",
"199.243 144.603 LINE"
);
},
{
closed = 1;
nodes = (
"252.517 535.715 LINE",
"242.962 538.752 LINE",
"240.428 549.15 LINE",
"251.25 553.744 LINE",
"256.97 544.697 LINE"
);
},
{
closed = 1;
nodes = (
"123.534 554.289 LINE",
"103.393 562.393 LINE",
"90.834 584.804 LINE",
"117.442 594.729 LINE",
"127.828 575.19 LINE"
);
}
);
width = 634;
},
{
associatedMasterId = "EC64484B-0978-4CB1-9EE9-C40A2D8C4059";
background = {
paths = (
{
closed = 1;
nodes = (
"594 0 LINE SMOOTH",
"609 0 OFFCURVE",
"621 12 OFFCURVE",
"621 27 CURVE SMOOTH",
"621 178 LINE SMOOTH",
"621 193 OFFCURVE",
"609 205 OFFCURVE",
"594 205 CURVE SMOOTH",
"317 205 LINE",
"317 325 LINE",
"472 386 LINE SMOOTH",
"488 392 OFFCURVE",
"494 401 OFFCURVE",
"494 419 CURVE SMOOTH",
"494 527 LINE SMOOTH",
"494 539 OFFCURVE",
"485 548 OFFCURVE",
"473 548 CURVE SMOOTH",
"471 548 OFFCURVE",
"467 547 OFFCURVE",
"462 545 CURVE SMOOTH",
"317 488 LINE",
"317 673 LINE SMOOTH",
"317 688 OFFCURVE",
"305 700 OFFCURVE",
"290 700 CURVE SMOOTH",
"90 700 LINE SMOOTH",
"75 700 OFFCURVE",
"63 688 OFFCURVE",
"63 673 CURVE SMOOTH",
"63 388 LINE",
"35 377 LINE SMOOTH",
"19 371 OFFCURVE",
"13 362 OFFCURVE",
"13 344 CURVE SMOOTH",
"13 236 LINE SMOOTH",
"13 224 OFFCURVE",
"22 215 OFFCURVE",
"34 215 CURVE SMOOTH",
"36 215 OFFCURVE",
"40 216 OFFCURVE",
"45 218 CURVE SMOOTH",
"63 225 LINE",
"63 27 LINE SMOOTH",
"63 12 OFFCURVE",
"75 0 OFFCURVE",
"90 0 CURVE SMOOTH"
);
}
);
};
color = 6;
hints = (
{
horizontal = 1;
place = "{0, 0}";
type = Tag;
}
);
layerId = "40F2F344-5BCA-417F-A95F-1771ABCBCDBA";
name = "Jul 23 21, 16:38";
paths = (
{
closed = 1;
nodes = (
"594 0 LINE SMOOTH",
"609 0 OFFCURVE",
"621 12 OFFCURVE",
"621 27 CURVE SMOOTH",
"621 178 LINE SMOOTH",
"621 193 OFFCURVE",
"609 205 OFFCURVE",
"594 205 CURVE SMOOTH",
"317 205 LINE",
"317 325 LINE",
"472 386 LINE SMOOTH",
"488 392 OFFCURVE",
"494 401 OFFCURVE",
"494 419 CURVE SMOOTH",
"494 527 LINE SMOOTH",
"494 539 OFFCURVE",
"485 548 OFFCURVE",
"473 548 CURVE SMOOTH",
"471 548 OFFCURVE",
"467 547 OFFCURVE",
"462 545 CURVE SMOOTH",
"317 488 LINE",
"317 673 LINE SMOOTH",
"317 688 OFFCURVE",
"305 700 OFFCURVE",
"290 700 CURVE SMOOTH",
"90 700 LINE SMOOTH",
"75 700 OFFCURVE",
"63 688 OFFCURVE",
"63 673 CURVE SMOOTH",
"63 388 LINE",
"35 377 LINE SMOOTH",
"19 371 OFFCURVE",
"13 362 OFFCURVE",
"13 344 CURVE SMOOTH",
"13 236 LINE SMOOTH",
"13 224 OFFCURVE",
"22 215 OFFCURVE",
"34 215 CURVE SMOOTH",
"36 215 OFFCURVE",
"40 216 OFFCURVE",
"45 218 CURVE SMOOTH",
"63 225 LINE",
"63 27 LINE SMOOTH",
"63 12 OFFCURVE",
"75 0 OFFCURVE",
"90 0 CURVE SMOOTH"
);
}
);
width = 634;
}
);
leftKerningGroup = I;
rightKerningGroup = L;
unicode = 0141;
userData = {
com.typemytype.robofont.guides = (
{
angle = 0;
isGlobal = 0;
magnetic = 5;
x = 0;
y = 215;
},
{
angle = 0;
isGlobal = 0;
magnetic = 5;
x = 0;
y = 548;
},
{
angle = 0;
isGlobal = 0;
magnetic = 5;
x = 0;
y = 438;
},
{
angle = 0;
isGlobal = 0;
magnetic = 5;
x = 0;
y = 267;
},
{
angle = 0;
isGlobal = 0;
magnetic = 5;
x = 0;
y = 353;
},
{
angle = 90;
isGlobal = 0;
magnetic = 5;
x = 129;
y = 0;
},
{
angle = 90;
isGlobal = 0;
magnetic = 5;
x = 325;
y = 0;
},
{
angle = 90;
isGlobal = 0;
magnetic = 5;
x = "-5";
y = 0;
}
);
};
},
{
color = 6;
glyphname = M;
layers = (
{
anchors = (
{
name = bottom;
position = "{428, 0}";
},
{
name = top;
position = "{428, 700}";
}
);
background = {
anchors = (
{
name = bottom;
position = "{428, 0}";
},
{
name = top;
position = "{428, 700}";
}
);
paths = (
{
closed = 1;
nodes = (
"263 0 LINE SMOOTH",
"278 0 OFFCURVE",
"290 12 OFFCURVE",
"290 27 CURVE SMOOTH",
"290 301 LINE",
"356 193 LINE SMOOTH",
"363 182 OFFCURVE",
"373 168 OFFCURVE",
"393 168 CURVE SMOOTH",
"463 168 LINE SMOOTH",
"483 168 OFFCURVE",
"493 182 OFFCURVE",
"500 193 CURVE SMOOTH",
"566 301 LINE",
"566 27 LINE SMOOTH",
"566 12 OFFCURVE",
"578 0 OFFCURVE",
"593 0 CURVE SMOOTH",
"774 0 LINE SMOOTH",
"789 0 OFFCURVE",
"801 12 OFFCURVE",
"801 27 CURVE SMOOTH",
"801 673 LINE SMOOTH",
"801 688 OFFCURVE",
"789 700 OFFCURVE",
"774 700 CURVE SMOOTH",
"616 700 LINE SMOOTH",
"589 700 OFFCURVE",
"577 680 OFFCURVE",
"573 673 CURVE SMOOTH",
"428 433 LINE",
"283 673 LINE SMOOTH",
"279 680 OFFCURVE",
"267 700 OFFCURVE",
"240 700 CURVE SMOOTH",
"82 700 LINE SMOOTH",
"67 700 OFFCURVE",
"55 688 OFFCURVE",
"55 673 CURVE SMOOTH",
"55 27 LINE SMOOTH",
"55 12 OFFCURVE",
"67 0 OFFCURVE",
"82 0 CURVE SMOOTH"
);
}
);
};
hints = (
{
horizontal = 1;
place = "{0, 0}";
type = Tag;
}
);
layerId = "EC64484B-0978-4CB1-9EE9-C40A2D8C4059";
paths = (
{
closed = 1;
nodes = (
"117.413 -13 LINE",
"152.826 20 LINE",
"188.239 -18 LINE",
"223.652 20 LINE",
"246.817 -0.978 LINE",
"268 22 LINE",
"298.981 49.253 LINE",
"270 78.623 LINE",
"306 104.435 LINE",
"270 130.246 LINE",
"301 152.087 LINE",
"270 173.928 LINE",
"288.9 215.623 LINE",
"270 257.319 LINE",
"294.521 276.162 LINE",
"292.2 307 LINE",
"305.124 274.068 LINE",
"337.938 260.844 LINE",
"338.397 233.431 LINE",
"362.688 220.719 LINE",
"369.046 185.588 LINE",
"404.667 188 LINE",
"431.889 150 LINE",
"459.111 188 LINE",
"499.377 205.018 LINE",
"509.812 247.469 LINE",
"547.28 268.21 LINE",
"549 311 LINE",
"554.925 278.976 LINE",
"586 269.232 LINE",
"569.2 227.536 LINE",
"586 185.841 LINE",
"564 158.043 LINE",
"586 130.246 LINE",
"549 110.391 LINE",
"586 90.536 LINE",
"548.017 55.131 LINE",
"588 22 LINE",
"606.971 -3.969 LINE",
"628.413 20 LINE",
"648.087 -18 LINE",
"667.761 20 LINE",
"703.174 -1 LINE",
"738.587 20 LINE",
"765.793 16.062 LINE",
"781 38.963 LINE",
"817 76.846 LINE",
"781 114.728 LINE",
"809 136.66 LINE",
"781 158.593 LINE",
"813 190.494 LINE",
"781 222.395 LINE",
"819 242.333 LINE",
"781 262.272 LINE",
"813 284.204 LINE",
"781 306.136 LINE",
"807 338.037 LINE",
"781 369.938 LINE",
"811 403.833 LINE",
"781 437.728 LINE",
"802 457.667 LINE",
"781 477.605 LINE",
"811 517.481 LINE",
"781 557.358 LINE",
"804 579.29 LINE",
"781 601.222 LINE",
"810 627.142 LINE",
"781 653.062 LINE",
"765.47 679.856 LINE",
"734.5 680 LINE",
"700.925 703 LINE",
"667.35 680 LINE",
"639.527 703.873 LINE",
"611.923 679.747 LINE",
"567.738 662.369 LINE",
"561.291 615.329 LINE",
"510.283 604.288 LINE",
"524.38 554.038 LINE",
"476.279 545.886 LINE",
"491.57 499.557 LINE",
"463.249 486.452 LINE",
"464.911 455.291 LINE",
"428.746 439.839 LINE",
"423.899 400.81 LINE",
"421.46 438.781 LINE",
"389.038 458.696 LINE",
"396.175 486.194 LINE",
"368.532 492.747 LINE",
"371.155 540.727 LINE",
"327.519 560.848 LINE",
"338.864 600.161 LINE",
"298.81 608.519 LINE",
"300.467 651.647 LINE",
"261.234 669.635 LINE",
"248.343 704.871 LINE",
"220.25 680 LINE",
"178.775 700 LINE",
"137.3 680 LINE",
"115.575 706 LINE",
"93.85 680 LINE",
"48.488 664.924 LINE",
"75 625.148 LINE",
"47 585.272 LINE",
"75 545.395 LINE",
"51 513.494 LINE",
"75 481.593 LINE",
"54 445.704 LINE",
"75 409.815 LINE",
"41 377.914 LINE",
"75 346.012 LINE",
"43 314.111 LINE",
"75 282.21 LINE",
"53 248.315 LINE",
"75 214.42 LINE",
"47 178.531 LINE",
"75 142.642 LINE",
"51 118.716 LINE",
"75 94.79 LINE"
);
},
{
closed = 1;
nodes = (
"705.878 136.157 LINE",
"659.593 107.063 LINE",
"620.465 141.871 LINE",
"630.411 201.643 LINE",
"701.018 201.183 LINE"
);
},
{
closed = 1;
nodes = (
"694.59 500.311 LINE",
"674.124 461.428 LINE",
"634.745 488.78 LINE",
"639.519 534.493 LINE",
"680.676 528.84 LINE"
);
},
{
closed = 1;
nodes = (
"143.877 522.436 LINE",
"135.721 513.135 LINE",
"124.199 519.006 LINE",
"125.515 532.485 LINE",
"139.902 535.583 LINE"
);
},
{
closed = 1;
nodes = (
"455.388 317.093 LINE",
"448.309 303.989 LINE",
"435.38 304.215 LINE",
"431.599 316.581 LINE",
"442.175 322.998 LINE"
);
},
{
closed = 1;
nodes = (
"108.607 373.393 LINE",
"90.736 369.744 LINE",
"85.16 386.034 LINE",
"95.497 399.803 LINE",
"113.147 391.718 LINE"
);
},
{
closed = 1;
nodes = (
"657.5 590.638 LINE",
"649.82 590.912 LINE",
"642.327 598.661 LINE",
"652.512 602.983 LINE",
"664.126 600.495 LINE"
);
},
{
closed = 1;
nodes = (
"123.976 45.698 LINE",
"119.244 32.019 LINE",
"106.34 38.572 LINE",
"102.975 51.889 LINE",
"116.661 55.673 LINE"
);
},
{
closed = 1;
nodes = (
"473.803 396.497 LINE",
"460.19 385.172 LINE",
"449.981 394.914 LINE",
"449.515 407.485 LINE",
"462.086 407.019 LINE"
);
},
{
closed = 1;
nodes = (
"757.57 558.211 LINE",
"740.171 562.671 LINE",
"730.475 575.871 LINE",
"744.884 587.961 LINE",
"757.126 576.495 LINE"
);
},
{
closed = 1;
nodes = (
"743.466 358.958 LINE",
"726.43 287.117 LINE",
"642.262 281.304 LINE",
"631.269 361.534 LINE",
"689.169 408.99 LINE"
);
},
{
closed = 1;
nodes = (
"425.803 264.503 LINE",
"419.988 242.398 LINE",
"401.515 253.515 LINE",
"393.071 270.626 LINE",
"413.442 283.729 LINE"
);
},
{
closed = 1;
nodes = (
"199.673 521.047 LINE",
"193.86 515.001 LINE",
"188.262 521.246 LINE",
"188.838 530.372 LINE",
"197.611 527.792 LINE"
);
},
{
closed = 1;
nodes = (
"242.998 413.175 LINE",
"236.256 403.545 LINE",
"221.02 403.973 LINE",
"220.713 421.604 LINE",
"237.678 428.301 LINE"
);
},
{
closed = 1;
nodes = (
"372.437 378.388 LINE",
"340.232 370.354 LINE",
"338.594 404.601 LINE",
"361.89 412.977 LINE",
"384.182 402.212 LINE"
);
},
{
closed = 1;
nodes = (
"711.853 76.526 LINE",
"707.878 68.003 LINE",
"699.908 70.612 LINE",
"695.843 78.804 LINE",
"704.975 82.94 LINE"
);
},
{
closed = 1;
nodes = (
"315.914 498.095 LINE",
"313.54 488.09 LINE",
"301.929 489.929 LINE",
"299.199 501.994 LINE",
"310.564 506.877 LINE"
);
},
{
closed = 1;
nodes = (
"757.333 502.379 LINE",
"742.452 501.761 LINE",
"739.312 517.917 LINE",
"753.462 523.911 LINE",
"760.835 513.717 LINE"
);
},
{
closed = 1;
nodes = (
"138.458 634.141 LINE",
"125.942 611.016 LINE",
"108.086 631.844 LINE",
"110.224 656.912 LINE",
"132.829 649.607 LINE"
);
},
{
closed = 1;
nodes = (
"652.506 643.906 LINE",
"632.534 644.604 LINE",
"627.025 663.814 LINE",
"643.349 667.994 LINE",
"652.613 660.756 LINE"
);
},
{
closed = 1;
nodes = (
"283.046 557.753 LINE",
"257.099 544.029 LINE",
"230.793 555.324 LINE",
"231.457 595.309 LINE",
"269.616 585.967 LINE"
);
},
{
closed = 1;
nodes = (
"164.583 205.863 LINE",
"150.33 200.117 LINE",
"144.122 210.611 LINE",
"145.897 223.478 LINE",
"162.42 222.79 LINE"
);
}
);
width = 856;
},
{
anchors = (
{
name = bottom;
position = "{428, 0}";
},
{
name = top;
position = "{428, 700}";
}
);
associatedMasterId = "EC64484B-0978-4CB1-9EE9-C40A2D8C4059";
background = {
anchors = (
{
name = bottom;
position = "{428, 0}";
},
{
name = top;
position = "{428, 700}";
}
);
paths = (
{
closed = 1;
nodes = (
"263 0 LINE SMOOTH",
"278 0 OFFCURVE",
"290 12 OFFCURVE",
"290 27 CURVE SMOOTH",
"290 301 LINE",
"356 193 LINE SMOOTH",
"363 182 OFFCURVE",
"373 168 OFFCURVE",
"393 168 CURVE SMOOTH",
"463 168 LINE SMOOTH",
"483 168 OFFCURVE",
"493 182 OFFCURVE",
"500 193 CURVE SMOOTH",
"566 301 LINE",
"566 27 LINE SMOOTH",
"566 12 OFFCURVE",
"578 0 OFFCURVE",
"593 0 CURVE SMOOTH",
"774 0 LINE SMOOTH",
"789 0 OFFCURVE",
"801 12 OFFCURVE",
"801 27 CURVE SMOOTH",
"801 673 LINE SMOOTH",
"801 688 OFFCURVE",
"789 700 OFFCURVE",
"774 700 CURVE SMOOTH",
"616 700 LINE SMOOTH",
"589 700 OFFCURVE",
"577 680 OFFCURVE",
"573 673 CURVE SMOOTH",
"428 433 LINE",
"283 673 LINE SMOOTH",
"279 680 OFFCURVE",
"267 700 OFFCURVE",
"240 700 CURVE SMOOTH",
"82 700 LINE SMOOTH",
"67 700 OFFCURVE",
"55 688 OFFCURVE",
"55 673 CURVE SMOOTH",
"55 27 LINE SMOOTH",
"55 12 OFFCURVE",
"67 0 OFFCURVE",
"82 0 CURVE SMOOTH"
);
}
);
};
color = 6;
hints = (
{
horizontal = 1;
place = "{0, 0}";
type = Tag;
}
);
layerId = "73D4007A-0990-4B47-836F-8509FDBE36F8";
name = "Jul 23 21, 16:38";
paths = (
{
closed = 1;
nodes = (
"263 0 LINE SMOOTH",
"278 0 OFFCURVE",
"290 12 OFFCURVE",
"290 27 CURVE SMOOTH",
"290 301 LINE",
"356 193 LINE SMOOTH",
"363 182 OFFCURVE",
"373 168 OFFCURVE",
"393 168 CURVE SMOOTH",
"463 168 LINE SMOOTH",
"483 168 OFFCURVE",
"493 182 OFFCURVE",
"500 193 CURVE SMOOTH",
"566 301 LINE",
"566 27 LINE SMOOTH",
"566 12 OFFCURVE",
"578 0 OFFCURVE",
"593 0 CURVE SMOOTH",
"774 0 LINE SMOOTH",
"789 0 OFFCURVE",
"801 12 OFFCURVE",
"801 27 CURVE SMOOTH",
"801 673 LINE SMOOTH",
"801 688 OFFCURVE",
"789 700 OFFCURVE",
"774 700 CURVE SMOOTH",
"616 700 LINE SMOOTH",
"589 700 OFFCURVE",
"577 680 OFFCURVE",
"573 673 CURVE SMOOTH",
"428 433 LINE",
"283 673 LINE SMOOTH",
"279 680 OFFCURVE",
"267 700 OFFCURVE",
"240 700 CURVE SMOOTH",
"82 700 LINE SMOOTH",
"67 700 OFFCURVE",
"55 688 OFFCURVE",
"55 673 CURVE SMOOTH",
"55 27 LINE SMOOTH",
"55 12 OFFCURVE",
"67 0 OFFCURVE",
"82 0 CURVE SMOOTH"
);
}
);
width = 856;
}
);
leftKerningGroup = I;
rightKerningGroup = I;
unicode = 004D;
userData = {
com.typemytype.robofont.guides = (
{
angle = 0;
isGlobal = 0;
magnetic = 5;
x = 0;
y = 168;
},
{
angle = 0;
isGlobal = 0;
magnetic = 5;
x = 0;
y = 9;
},
{
angle = 0;
isGlobal = 0;
magnetic = 5;
x = 0;
y = 691;
},
{
angle = 90;
isGlobal = 0;
magnetic = 5;
x = 126;
y = 0;
},
{
angle = 90;
isGlobal = 0;
magnetic = 5;
x = 636;
y = 0;
}
);
};
},
{
color = 6;
glyphname = N;
layers = (
{
anchors = (
{
name = bottom;
position = "{374, 0}";
},
{
name = top;
position = "{370, 700}";
}
);
background = {
anchors = (
{
name = bottom;
position = "{374, 0}";
},
{
name = top;
position = "{370, 700}";
}
);
paths = (
{
closed = 1;
nodes = (
"263 0 LINE SMOOTH",
"278 0 OFFCURVE",
"290 12 OFFCURVE",
"290 27 CURVE SMOOTH",
"290 278 LINE",
"459 23 LINE SMOOTH",
"463 17 OFFCURVE",
"473 0 OFFCURVE",
"500 0 CURVE SMOOTH",
"658 0 LINE SMOOTH",
"673 0 OFFCURVE",
"685 12 OFFCURVE",
"685 27 CURVE SMOOTH",
"685 673 LINE SMOOTH",
"685 688 OFFCURVE",
"673 700 OFFCURVE",
"658 700 CURVE SMOOTH",
"477 700 LINE SMOOTH",
"462 700 OFFCURVE",
"450 688 OFFCURVE",
"450 673 CURVE SMOOTH",
"450 400 LINE",
"281 677 LINE SMOOTH",
"277 684 OFFCURVE",
"267 700 OFFCURVE",
"240 700 CURVE SMOOTH",
"82 700 LINE SMOOTH",
"67 700 OFFCURVE",
"55 688 OFFCURVE",
"55 673 CURVE SMOOTH",
"55 27 LINE SMOOTH",
"55 12 OFFCURVE",
"67 0 OFFCURVE",
"82 0 CURVE SMOOTH"
);
}
);
};
layerId = "EC64484B-0978-4CB1-9EE9-C40A2D8C4059";
paths = (
{
closed = 1;
nodes = (
"101.674 -4 LINE",
"121.348 20 LINE",
"141.022 -13 LINE",
"160.696 20 LINE",
"188.239 -5 LINE",
"215.783 20 LINE",
"254.098 10.89 LINE",
"270 46.921 LINE",
"289.6 82.778 LINE",
"270 118.635 LINE",
"297.3 144.532 LINE",
"270 170.429 LINE",
"284.7 208.278 LINE",
"270 246.127 LINE",
"295.651 256.967 LINE",
"292.2 284.6 LINE",
"298.505 254.798 LINE",
"328.948 255.883 LINE",
"325.779 225.185 LINE",
"355.286 216.143 LINE",
"366.078 173.249 LINE",
"401.377 146.597 LINE",
"404.417 112.866 LINE",
"434.299 96.922 LINE",
"424.392 59.375 LINE",
"462.831 53.87 LINE",
"468.132 18.41 LINE",
"503.95 20 LINE",
"527.65 -1 LINE",
"551.35 20 LINE",
"588.875 0 LINE",
"626.4 20 LINE",
"663.074 18.248 LINE",
"665 54.914 LINE",
"685 74.852 LINE",
"665 94.79 LINE",
"696 136.66 LINE",
"665 178.531 LINE",
"704 220.401 LINE",
"665 262.272 LINE",
"690 282.21 LINE",
"665 302.148 LINE",
"704 330.062 LINE",
"665 357.975 LINE",
"698 397.852 LINE",
"665 437.728 LINE",
"702 459.66 LINE",
"665 481.593 LINE",
"686 517.481 LINE",
"665 553.37 LINE",
"687 593.247 LINE",
"665 633.123 LINE",
"674.438 664.12 LINE",
"646.196 680 LINE",
"612.75 717 LINE",
"579.304 680 LINE",
"541.924 708 LINE",
"504.543 680 LINE",
"466.916 678.866 LINE",
"470 641.348 LINE",
"455.3 615.63 LINE",
"470 589.913 LINE",
"445.5 548.37 LINE",
"470 506.826 LINE",
"449 473.196 LINE",
"470 439.565 LINE",
"440.743 424.465 LINE",
"458.9 397 LINE",
"448.742 431.619 LINE",
"414.451 420.402 LINE",
"420.177 454.026 LINE",
"387.659 464.317 LINE",
"383.348 510.359 LINE",
"344.378 535.256 LINE",
"343.488 581.068 LINE",
"303.159 602.817 LINE",
"309.624 653.35 LINE",
"261.592 670.328 LINE",
"225.329 709.916 LINE",
"180.75 680 LINE",
"145.2 708 LINE",
"109.65 680 LINE",
"83.732 677.584 LINE",
"75 653.062 LINE",
"47 621.16 LINE",
"75 589.259 LINE",
"51 563.34 LINE",
"75 537.42 LINE",
"43 509.506 LINE",
"75 481.593 LINE",
"45 449.691 LINE",
"75 417.79 LINE",
"46 387.883 LINE",
"75 357.975 LINE",
"40 330.062 LINE",
"75 302.148 LINE",
"55 272.241 LINE",
"75 242.333 LINE",
"54 214.42 LINE",
"75 186.506 LINE",
"55 144.636 LINE",
"75 102.765 LINE",
"43 82.827 LINE",
"75 62.889 LINE"
);
},
{
closed = 1;
nodes = (
"636.306 453.34 LINE",
"601.124 457.571 LINE",
"588.666 484.849 LINE",
"611.472 507.89 LINE",
"643.456 491.503 LINE"
);
},
{
closed = 1;
nodes = (
"399.079 303.5 LINE",
"370.744 286.061 LINE",
"349.529 303.133 LINE",
"355.501 327.087 LINE",
"380.658 329.657 LINE"
);
},
{
closed = 1;
nodes = (
"499.326 76.685 LINE",
"479.629 78.832 LINE",
"476.393 103.519 LINE",
"502.725 113.776 LINE",
"517 90 LINE"
);
},
{
closed = 1;
nodes = (
"224.991 502.523 LINE",
"218.551 478.508 LINE",
"195.028 490.302 LINE",
"188.445 516.539 LINE",
"218.269 530.838 LINE"
);
},
{
closed = 1;
nodes = (
"220.32 183.94 LINE",
"187.534 162.216 LINE",
"145.029 172.827 LINE",
"163.54 212.941 LINE",
"206.301 231.233 LINE"
);
},
{
closed = 1;
nodes = (
"602.73 225.812 LINE",
"541.448 191.076 LINE",
"482.284 202.128 LINE",
"483.699 273.988 LINE",
"549.974 274.343 LINE"
);
},
{
closed = 1;
nodes = (
"274.932 281.974 LINE",
"270.192 276.506 LINE",
"261.526 274.748 LINE",
"261.819 284.286 LINE",
"269.042 286.909 LINE"
);
},
{
closed = 1;
nodes = (
"116.241 341.285 LINE",
"97.503 342.925 LINE",
"99.715 358.517 LINE",
"109.133 367.951 LINE",
"122.616 358.374 LINE"
);
},
{
closed = 1;
nodes = (
"574.358 556.184 LINE",
"527.368 538.735 LINE",
"495.298 573.125 LINE",
"523.589 602.47 LINE",
"561.329 602.552 LINE"
);
},
{
closed = 1;
nodes = (
"613.908 370.054 LINE",
"579.735 349.261 LINE",
"552.588 377.894 LINE",
"575.273 399.743 LINE",
"607.87 409.597 LINE"
);
},
{
closed = 1;
nodes = (
"147 248 LINE",
"141.635 233.734 LINE",
"130.528 243.298 LINE",
"126.483 255.641 LINE",
"139.472 255.608 LINE"
);
},
{
closed = 1;
nodes = (
"609.843 90.441 LINE",
"594.915 62.57 LINE",
"569.758 82.334 LINE",
"569.985 110.732 LINE",
"600.833 118.377 LINE"
);
},
{
closed = 1;
nodes = (
"239.783 586.656 LINE",
"195.863 582.774 LINE",
"196.594 619.838 LINE",
"214.326 638.942 LINE",
"250.306 628.86 LINE"
);
},
{
closed = 1;
nodes = (
"467.818 128.505 LINE",
"451.088 127.298 LINE",
"449.312 144.917 LINE",
"463.341 149.918 LINE",
"474.761 141.481 LINE"
);
},
{
closed = 1;
nodes = (
"216.508 423.134 LINE",
"203.196 423.843 LINE",
"199.06 432.975 LINE",
"205.664 438.871 LINE",
"216.621 437.333 LINE"
);
}
);
width = 740;
},
{
anchors = (
{
name = bottom;
position = "{374, 0}";
},
{
name = top;
position = "{370, 700}";
}
);
associatedMasterId = "EC64484B-0978-4CB1-9EE9-C40A2D8C4059";
background = {
anchors = (
{
name = bottom;
position = "{374, 0}";
},
{
name = top;
position = "{370, 700}";
}
);
paths = (
{
closed = 1;
nodes = (
"263 0 LINE SMOOTH",
"278 0 OFFCURVE",
"290 12 OFFCURVE",
"290 27 CURVE SMOOTH",
"290 278 LINE",
"459 23 LINE SMOOTH",
"463 17 OFFCURVE",
"473 0 OFFCURVE",
"500 0 CURVE SMOOTH",
"658 0 LINE SMOOTH",
"673 0 OFFCURVE",
"685 12 OFFCURVE",
"685 27 CURVE SMOOTH",
"685 673 LINE SMOOTH",
"685 688 OFFCURVE",
"673 700 OFFCURVE",
"658 700 CURVE SMOOTH",
"477 700 LINE SMOOTH",
"462 700 OFFCURVE",
"450 688 OFFCURVE",
"450 673 CURVE SMOOTH",
"450 400 LINE",
"281 677 LINE SMOOTH",
"277 684 OFFCURVE",
"267 700 OFFCURVE",
"240 700 CURVE SMOOTH",
"82 700 LINE SMOOTH",
"67 700 OFFCURVE",
"55 688 OFFCURVE",
"55 673 CURVE SMOOTH",
"55 27 LINE SMOOTH",
"55 12 OFFCURVE",
"67 0 OFFCURVE",
"82 0 CURVE SMOOTH"
);
}
);
};
color = 6;
layerId = "7849E05C-66F8-41D9-B361-94D4ECE9DB99";
name = "Jul 23 21, 16:38";
paths = (
{
closed = 1;
nodes = (
"263 0 LINE SMOOTH",
"278 0 OFFCURVE",
"290 12 OFFCURVE",
"290 27 CURVE SMOOTH",
"290 278 LINE",
"459 23 LINE SMOOTH",
"463 17 OFFCURVE",
"473 0 OFFCURVE",
"500 0 CURVE SMOOTH",
"658 0 LINE SMOOTH",
"673 0 OFFCURVE",
"685 12 OFFCURVE",
"685 27 CURVE SMOOTH",
"685 673 LINE SMOOTH",
"685 688 OFFCURVE",
"673 700 OFFCURVE",
"658 700 CURVE SMOOTH",
"477 700 LINE SMOOTH",
"462 700 OFFCURVE",
"450 688 OFFCURVE",
"450 673 CURVE SMOOTH",
"450 400 LINE",
"281 677 LINE SMOOTH",
"277 684 OFFCURVE",
"267 700 OFFCURVE",
"240 700 CURVE SMOOTH",
"82 700 LINE SMOOTH",
"67 700 OFFCURVE",
"55 688 OFFCURVE",
"55 673 CURVE SMOOTH",
"55 27 LINE SMOOTH",
"55 12 OFFCURVE",
"67 0 OFFCURVE",
"82 0 CURVE SMOOTH"
);
}
);
width = 740;
}
);
leftKerningGroup = I;
rightKerningGroup = I;
unicode = 004E;
userData = {
com.typemytype.robofont.guides = (
{
angle = 0;
isGlobal = 0;
magnetic = 5;
x = 0;
y = 9;
},
{
angle = 0;
isGlobal = 0;
magnetic = 5;
x = 0;
y = 691;
},
{
angle = 90;
isGlobal = 0;
magnetic = 5;
x = 540;
y = 0;
},
{
angle = 90;
isGlobal = 0;
magnetic = 5;
x = 125;
y = 0;
}
);
};
},
